<svg xmlns="http://www.w3.org/2000/svg" xmlns:xlink="http://www.w3.org/1999/xlink" width="1365.999" height="453.699" viewBox="0 0 1365.999 453.699">
  <defs>
    <linearGradient id="linear-gradient" x1="0.5" x2="0.5" y2="1" gradientUnits="objectBoundingBox">
      <stop offset="0" stop-color="#070042" stop-opacity="0.251"/>
      <stop offset="1" stop-color="#040024" stop-opacity="0.251"/>
    </linearGradient>
    <clipPath id="clip-path">
      <path id="Path_37257" data-name="Path 37257" d="M0,0H1366V453.7H0Z" transform="translate(945.206)" fill="url(#linear-gradient)"/>
    </clipPath>
    <linearGradient id="linear-gradient-2" x1="0.538" y1="1" x2="0.54" gradientUnits="objectBoundingBox">
      <stop offset="0" stop-color="#2680eb"/>
      <stop offset="1" stop-color="#6bb1fe"/>
    </linearGradient>
  </defs>
  <g id="bg-program" transform="translate(-944.206 -81.543)">
    <g id="bg-smp-large" transform="translate(-1 81.543)">
      <g id="Mask_Group_1518" data-name="Mask Group 1518" clip-path="url(#clip-path)">
        <path id="Path_645" data-name="Path 645" d="M1366,0V453.7H0V0Z" transform="translate(945.206)" fill="url(#linear-gradient-2)"/>
        <g id="Group_3509" data-name="Group 3509" transform="translate(0 60)">
          <g id="_018-chemistry" data-name="018-chemistry" transform="translate(2291.485 145.87) rotate(20)" opacity="0.07">
            <path id="Path_761" data-name="Path 761" d="M69.473,65.468l-23.3-27.947.008-32.394a2.563,2.563,0,1,0,0-5.127L25.664,0a2.563,2.563,0,1,0,0,5.127l-.008,32.394L2.342,65.484a10.1,10.1,0,0,0,7.753,16.549l51.618-.012A10.108,10.108,0,0,0,69.473,65.468ZM30.19,40.094a2.563,2.563,0,0,0,.595-1.641L30.792,5.13l10.259,0v5.127H39.767a2.563,2.563,0,1,0,0,5.127h1.282v5.127H39.765a2.563,2.563,0,1,0,0,5.127h1.282V30.76H39.763a2.563,2.563,0,1,0,0,5.127h1.282V38.45a2.561,2.561,0,0,0,.594,1.641l5.437,6.521a19.1,19.1,0,0,0-12.435,2.431c-2.321,1.326-6.316,2.431-12.648.883Zm31.525,36.8L10.1,76.906a4.969,4.969,0,0,1-3.814-8.142L18.387,54.247c6.192,1.974,13.151,2.47,18.8-.755,6.891-3.937,12.569-.851,15.707.095L65.532,68.751A4.973,4.973,0,0,1,61.714,76.894Z" transform="translate(0 0)" fill="#3146bb"/>
          </g>
          <g id="_005-whiteboard" data-name="005-whiteboard" transform="translate(1946.366 191.395) rotate(20)" opacity="0.07">
            <path id="Path_757" data-name="Path 757" d="M82.5,50.532H79.837l.011-47.874A2.659,2.659,0,0,0,77.188,0L8,.016a2.662,2.662,0,0,0-2.662,2.66L5.325,50.55H2.664A2.662,2.662,0,0,0,0,53.211L0,63.85a2.659,2.659,0,0,0,2.661,2.659l9.778,0L8.082,81.735a2.661,2.661,0,0,0,5.117,1.46l1.35-4.72L70.6,78.461l1.348,4.72a2.661,2.661,0,0,0,5.118-1.463L72.717,66.492l9.778,0a2.662,2.662,0,0,0,2.662-2.66l0-10.639A2.659,2.659,0,0,0,82.5,50.532Zm-71.84-45.2L74.526,5.32l-.011,45.214H69.193v-2.66A7.986,7.986,0,0,0,61.212,39.9l-7.983,0a8,8,0,0,0-7.985,7.981v2.66l-34.595.008Zm53.212,45.2-13.306,0V47.88a2.665,2.665,0,0,1,2.662-2.66l7.983,0a2.662,2.662,0,0,1,2.661,2.659Zm5.211,22.606-53.01.012,1.9-6.65,49.208-.012ZM79.835,61.171l-74.512.018V55.87l74.512-.018Z" transform="translate(0 0)" fill="#3146bb"/>
            <path id="Path_758" data-name="Path 758" d="M15.968,17.285A7.986,7.986,0,0,0,5.325,9.766l0-7.107A2.661,2.661,0,0,0,0,2.66L0,22.608a2.664,2.664,0,0,0,4.543,1.879A8,8,0,0,0,15.968,17.285ZM7.985,14.627a2.66,2.66,0,1,1-2.662,2.66A2.662,2.662,0,0,1,7.985,14.627Z" transform="translate(34.602 9.318)" fill="#3146bb"/>
            <path id="Path_759" data-name="Path 759" d="M11.425.786a7.98,7.98,0,1,0,0,14.4A2.666,2.666,0,0,0,15.966,13.3l0-10.639A2.664,2.664,0,0,0,11.425.786Zm-3.442,9.86a2.66,2.66,0,1,1,2.662-2.66A2.662,2.662,0,0,1,7.983,10.646Z" transform="translate(14.645 18.623)" fill="#3146bb"/>
            <path id="Path_760" data-name="Path 760" d="M13.627,13.62A2.66,2.66,0,1,0,9.865,9.86a2.661,2.661,0,1,1,0-3.761A2.661,2.661,0,0,0,13.63,2.336a7.982,7.982,0,1,0,0,11.284Z" transform="translate(54.562 18.621)" fill="#3146bb"/>
          </g>
          <g id="Group_1424" data-name="Group 1424" transform="translate(1858.758 -43.375) rotate(20)" opacity="0.07">
            <g id="_024-music" data-name="024-music" transform="translate(0 0)" opacity="0.05">
              <path id="Path_809" data-name="Path 809" d="M39.791,10.6C39.793,4.443,36.5,0,30.511,0,24.562,0,19.9,8.153,19.9,18.557v4.462C10.5,29.066,0,36.5,0,47.72c0,13.885,8.292,21.2,19.886,21.2l0,6.627c0,3.976-1.41,3.976-2.653,3.977a1.281,1.281,0,0,1-1.281-.9,2.347,2.347,0,0,1,.505-2.529,2.651,2.651,0,1,0-3.75-3.748c-4.468,4.465-1.841,12.477,4.524,12.476,4.728,0,7.957-2.923,7.959-9.279l0-7.03c8.971-1.436,14.589-6.687,14.591-15.5,0-11.629-8.891-15.346-14.583-15.841l0-11.25c7.862-5.014,14.589-9.379,14.591-15.32ZM25.2,18.556C25.2,10.334,28.64,5.3,30.51,5.3c.984,0,3.978,0,3.977,5.3,0,2.573-4.327,5.777-9.285,9.014Zm-9.289,29.16c0-2.416,1.687-3.759,3.979-4.57l0,20.473C14.44,63.62,5.3,61.556,5.3,47.718c0-7.477,7.006-13.285,14.591-18.363l0,8.273C10.74,39.844,9.33,47.1,11.454,51.712a2.741,2.741,0,0,0,4.959-2.334A4.462,4.462,0,0,1,15.913,47.716Zm18.564,5.3c0,6.478-4.336,9.173-9.285,10.139l0-20.651C28.112,42.853,34.479,44.586,34.477,53.013Z" fill="#3146bb"/>
              <path id="Path_810" data-name="Path 810" d="M15.913,34.629l.005-23.364,17.24-5.072,0,14.143a7.951,7.951,0,1,0,5.3,7.495c.006-27.141.059-25.383-.1-25.929A2.656,2.656,0,0,0,35.064.108C11.012,7.185,12.375,6.754,12.013,6.947a2.655,2.655,0,0,0-1.274,1.536c-.185.584-.123-.713-.128,18.485a7.951,7.951,0,1,0,5.3,7.661ZM30.5,30.484a2.651,2.651,0,1,1,2.653-2.651A2.653,2.653,0,0,1,30.5,30.484ZM7.956,37.116a2.651,2.651,0,1,1,2.653-2.651A2.653,2.653,0,0,1,7.956,37.116Z" transform="translate(41.111 2.64)" fill="#3146bb"/>
              <path id="Path_811" data-name="Path 811" d="M25.2,3.973c-2.178,0-2.676-.429-3.58-1.208C19.931,1.308,18.019,0,13.267,0a2.653,2.653,0,0,0-2.653,2.651l0,17.685a7.952,7.952,0,1,0,5.3,7.495l.005-22.3A4.666,4.666,0,0,1,18.156,6.78c1.583,1.365,3.206,2.5,7.044,2.494a2.651,2.651,0,1,0,0-5.3ZM7.956,30.484a2.651,2.651,0,1,1,2.653-2.651A2.653,2.653,0,0,1,7.956,30.484Z" transform="translate(57.016 46.378)" fill="#3146bb"/>
            </g>
          </g>
          <g id="_004-calculator" data-name="004-calculator" transform="translate(1876.813 78.305) rotate(20)" opacity="0.07">
            <path id="Path_635" data-name="Path 635" d="M48.863,0,2.448.011A2.444,2.444,0,0,0,0,2.453L0,21.985a2.441,2.441,0,0,0,2.442,2.441l46.415-.011A2.444,2.444,0,0,0,51.3,21.973l0-19.532A2.441,2.441,0,0,0,48.863,0ZM46.416,19.533l-41.529.01,0-14.649,41.529-.01Z" transform="translate(9.781 8.547)" fill="#3146bb"/>
            <path id="Path_636" data-name="Path 636" d="M63.532,0,7.345.013A7.339,7.339,0,0,0,.015,7.34L0,70.82a7.331,7.331,0,0,0,7.327,7.323l56.187-.013a7.339,7.339,0,0,0,7.33-7.326l.015-63.48A7.331,7.331,0,0,0,63.532,0Zm2.426,70.8a2.446,2.446,0,0,1-2.443,2.442l-56.187.013a2.444,2.444,0,0,1-2.442-2.441L4.9,7.338A2.446,2.446,0,0,1,7.344,4.9l56.187-.013a2.444,2.444,0,0,1,2.442,2.441Z" transform="translate(0 0)" fill="#3146bb"/>
            <path id="Path_637" data-name="Path 637" d="M12.217,0,2.446,0A2.444,2.444,0,0,0,0,2.444l0,9.766a2.441,2.441,0,0,0,2.442,2.441l9.772,0a2.444,2.444,0,0,0,2.443-2.442l0-9.766A2.441,2.441,0,0,0,12.217,0ZM9.772,9.767H4.886V4.885H9.773Z" transform="translate(9.777 36.633)" fill="#3146bb"/>
            <path id="Path_638" data-name="Path 638" d="M12.217,0,2.446,0A2.444,2.444,0,0,0,0,2.444l0,9.766a2.441,2.441,0,0,0,2.442,2.441l9.772,0a2.444,2.444,0,0,0,2.443-2.442l0-9.766A2.441,2.441,0,0,0,12.217,0ZM9.772,9.767H4.886V4.885H9.773Z" transform="translate(28.099 36.629)" fill="#3146bb"/>
            <path id="Path_639" data-name="Path 639" d="M12.217,0,2.446,0A2.444,2.444,0,0,0,0,2.444l0,9.766a2.441,2.441,0,0,0,2.442,2.441l9.772,0a2.444,2.444,0,0,0,2.443-2.442l0-9.766A2.441,2.441,0,0,0,12.217,0ZM9.772,9.767H4.886V4.885H9.773Z" transform="translate(9.773 54.944)" fill="#3146bb"/>
            <path id="Path_640" data-name="Path 640" d="M12.217,0,2.446,0A2.444,2.444,0,0,0,0,2.444l0,9.766a2.441,2.441,0,0,0,2.442,2.441l9.772,0a2.444,2.444,0,0,0,2.444-2.442l0-9.766A2.441,2.441,0,0,0,12.217,0ZM9.772,9.767H4.886V4.885H9.773Z" transform="translate(28.094 54.94)" fill="#3146bb"/>
            <path id="Path_641" data-name="Path 641" d="M12.222,0,2.45,0A2.444,2.444,0,0,0,.007,2.444L0,30.522a2.441,2.441,0,0,0,2.442,2.441l9.772,0a2.444,2.444,0,0,0,2.444-2.442l.007-28.078A2.441,2.441,0,0,0,12.222,0ZM9.772,28.078H4.886L4.892,4.885H9.778Z" transform="translate(46.416 36.624)" fill="#3146bb"/>
          </g>
          <g id="_003-backpack" data-name="003-backpack" transform="translate(1837.784 293.938) rotate(20)" opacity="0.07">
            <path id="Path_642" data-name="Path 642" d="M94.244,51.64l-9.12,0V47.084a36.495,36.495,0,0,0-22.8-33.8,13.676,13.676,0,0,0-27.34.006A36.537,36.537,0,0,0,12.166,47.1v4.557l-9.12,0A3.041,3.041,0,0,0,0,54.7L0,74.449a15.209,15.209,0,0,0,12.241,14.9,9.125,9.125,0,0,0,9.033,7.884l54.719-.013A9.136,9.136,0,0,0,85.03,89.33a15.226,15.226,0,0,0,12.248-14.9l0-19.749A3.037,3.037,0,0,0,94.244,51.64ZM48.656,6.077a7.608,7.608,0,0,1,7.236,5.277,36.638,36.638,0,0,0-14.474,0A7.617,7.617,0,0,1,48.656,6.077ZM6.08,74.447l0-16.71h6.08l-.006,25.3A9.125,9.125,0,0,1,6.08,74.447ZM79.036,88.1A3.044,3.044,0,0,1,76,91.141l-54.719.013a3.041,3.041,0,0,1-3.039-3.038c0-2.16.009-39.485.01-41.017a30.4,30.4,0,0,1,60.8-.014ZM91.2,74.427a9.136,9.136,0,0,1-6.082,8.6l.006-25.3H91.2Z" transform="translate(0 0)" fill="#3146bb"/>
            <path id="Path_643" data-name="Path 643" d="M25.846,0A25.876,25.876,0,0,0,0,25.831a3.04,3.04,0,0,0,6.08,0,19.76,19.76,0,0,1,39.52-.009,3.04,3.04,0,0,0,6.08,0A25.847,25.847,0,0,0,25.846,0Z" transform="translate(22.806 21.268)" fill="#3146bb"/>
            <path id="Path_644" data-name="Path 644" d="M39.524,0,9.125.007A9.133,9.133,0,0,0,0,9.124L0,19.758a9.123,9.123,0,0,0,9.118,9.113l30.4-.007a9.133,9.133,0,0,0,9.122-9.117l0-10.634A9.123,9.123,0,0,0,39.524,0ZM42.56,19.748a3.044,3.044,0,0,1-3.041,3.039l-30.4.007A3.041,3.041,0,0,1,6.08,19.757l0-10.634A3.044,3.044,0,0,1,9.123,6.084l30.4-.007a3.041,3.041,0,0,1,3.039,3.038Z" transform="translate(24.319 57.723)" fill="#3146bb"/>
          </g>
          <g id="_009-trophy" data-name="009-trophy" transform="translate(2007.361 84.058) rotate(20)" opacity="0.07">
            <path id="Path_647" data-name="Path 647" d="M74.613,7.848c-5.681,0-7.329,5.154-9,8.145.835-8.609,2.3-10.45,2.636-10.766A2.616,2.616,0,0,0,68.07,0L15.712.012a2.616,2.616,0,0,0-.183,5.227c.338.316,1.8,2.156,2.631,10.765-1.679-3.008-3.314-8.142-9-8.141C4.939,7.864,0,11.291,0,20.947c0,6.4,1.866,11.018,5.709,14.125,3.246,2.625,7.3,3.649,10.885,4.553,6.41,1.618,8.271,2.47,8.27,6.4a1.087,1.087,0,0,1-1.851.767,2.618,2.618,0,0,0-3.7,3.7,6.324,6.324,0,0,0,10.23-1.875,19.753,19.753,0,0,0,9.721,4.812l0,9.374-10.472,0a2.619,2.619,0,0,0-2.618,2.617l0,13.082H23.547a2.616,2.616,0,1,0,0,5.233l36.65-.009a2.616,2.616,0,1,0,0-5.233H57.58l0-13.082A2.616,2.616,0,0,0,54.966,62.8l-10.472,0,0-9.374a19.776,19.776,0,0,0,9.724-4.817,6.322,6.322,0,0,0,10.229,1.87,2.617,2.617,0,1,0-3.7-3.7,1.086,1.086,0,0,1-1.851-.766v-.225c0-3.749,2.145-4.625,8.273-6.175,3.581-.906,7.641-1.932,10.887-4.558,3.844-3.11,5.714-7.731,5.716-14.128,0-9.656-4.933-13.081-9.16-13.08ZM52.344,78.5,31.4,78.5l0-10.466,20.943,0ZM5.236,20.946c0-3.621,1.03-7.849,3.929-7.85,1.426,0,2.1.9,3.548,3.786,1.16,2.321,2.676,5.346,5.9,6.342a32.6,32.6,0,0,0,1.974,12.043c-7.76-2.212-15.358-2.458-15.355-14.32ZM41.88,48.41c-9.662,0-17.74-13.033-17.954-22.753-.122-5.547-.563-15.19-2.515-20.413l40.959-.01c-1.955,5.224-2.4,14.867-2.525,20.414C59.626,35.351,51.552,48.407,41.88,48.41ZM63.174,35.256c1.982-5.388,1.855-8.649,1.98-12.044,5.9-1.823,5.891-10.131,9.457-10.132,2.9,0,3.926,4.227,3.925,7.848C78.534,32.757,71,33.023,63.174,35.256Z" transform="translate(0 0)" fill="#3146bb"/>
          </g>
          <g id="_013-book" data-name="013-book" transform="translate(2224.768 60.071) rotate(20)" opacity="0.07">
            <path id="Path_631" data-name="Path 631" d="M60.917,0,8.542.012A8.538,8.538,0,0,0,.014,8.536L0,69.4a8.529,8.529,0,0,0,8.524,8.519L60.9,77.91a2.437,2.437,0,0,0,2.437-2.435c0-2.211.007-31.085.017-73.04A2.434,2.434,0,0,0,60.917,0Zm-2.45,60.867-43.849.01.013-56L58.48,4.87ZM4.886,8.535A3.659,3.659,0,0,1,8.541,4.882H9.759l-.013,56a10.011,10.011,0,0,0-4.872.819ZM58.464,73.041l-49.939.012a3.652,3.652,0,1,1,0-7.3l49.939-.012Z" transform="translate(0 0)" fill="#3146bb"/>
            <path id="Path_632" data-name="Path 632" d="M2.441,21.967l29.3-.007A2.442,2.442,0,0,0,34.18,19.52l0-17.08A2.439,2.439,0,0,0,31.743,0L2.446.007A2.442,2.442,0,0,0,0,2.447l0,17.08A2.439,2.439,0,0,0,2.441,21.967ZM4.886,4.886,29.3,4.881l0,12.2-24.414.006Z" transform="translate(19.448 10.982)" fill="#3146bb"/>
            <path id="Path_633" data-name="Path 633" d="M29.3,0,2.442.006a2.44,2.44,0,1,0,0,4.88L29.3,4.88A2.44,2.44,0,1,0,29.3,0Z" transform="translate(20.665 48.689)" fill="#3146bb"/>
          </g>
          <g id="_017-presentation" data-name="017-presentation" transform="translate(2115.965 -16.801) rotate(20)" opacity="0.07">
            <path id="Path_762" data-name="Path 762" d="M84.69,16.38a2.732,2.732,0,0,0,2.732-2.731l0-10.92A2.729,2.729,0,0,0,84.694,0L2.748.019A2.732,2.732,0,0,0,.015,2.75l0,10.92A2.729,2.729,0,0,0,2.744,16.4H4.11L4.1,65.54H2.732a2.73,2.73,0,1,0,0,5.46l38.242-.009,0,9.236a4.094,4.094,0,1,0,5.463,0l0-9.236,38.242-.009a2.73,2.73,0,1,0,0-5.46H83.313l.012-49.14ZM5.478,5.479l76.484-.018v5.46l-76.484.018ZM77.85,65.522l-68.289.016L9.573,16.4l68.289-.016Z" transform="translate(0 0)" fill="#3146bb"/>
            <path id="Path_763" data-name="Path 763" d="M1.642,15.381l7.719,3.342,0,8.972c0,3.119,1.959,5.925,5.518,7.9,10.213,5.669,28.039,1.759,28.041-7.908l0-8.972,7.721-3.345a2.732,2.732,0,0,0,0-5.01L27.231.225a2.733,2.733,0,0,0-2.172,0L1.643,10.371a2.732,2.732,0,0,0,0,5.01ZM37.455,27.687c0,2.067-4.41,5.071-11.318,5.073s-11.316-3-11.315-5.067l0-6.606,10.229,4.428a2.733,2.733,0,0,0,2.172,0l10.231-4.433ZM26.143,5.705l16.542,7.161L26.14,20.035,9.6,12.874Z" transform="translate(17.571 21.85)" fill="#3146bb"/>
          </g>
          <g id="_001-school_supplies" data-name="001-school supplies" transform="translate(2100.754 258.53) rotate(20)" opacity="0.07">
            <path id="Path_812" data-name="Path 812" d="M87.738,22.69a2.764,2.764,0,0,0,0-3.911L69.759.81a2.768,2.768,0,0,0-3.913,0L40.82,25.822,18.572,3.587a2.768,2.768,0,0,0-3.913,0L3.59,14.651a2.764,2.764,0,0,0,0,3.911L25.837,40.8.811,65.809a2.764,2.764,0,0,0,0,3.911L18.79,87.69a2.768,2.768,0,0,0,3.913,0L47.729,62.677,64.9,79.836c.912.911,1.277,1.4,2.158,1.642C83.806,86.04,82.484,85.72,83,85.719a2.768,2.768,0,0,0,2.67-3.493L81.524,67.018a2.761,2.761,0,0,0-.713-1.228L62.712,47.7ZM16.615,9.453,72.991,65.8a17.917,17.917,0,0,0-7.156,7.152L9.459,16.605ZM40.12,62.462,37.927,60.27a2.767,2.767,0,0,0-3.914,3.912l2.193,2.192L31.818,70.76l-2.193-2.192a2.767,2.767,0,0,0-3.914,3.912L27.9,74.671l-7.156,7.152L6.68,67.763,29.749,44.707l14.068,14.06ZM70.2,76.6a12.4,12.4,0,0,1,6.445-6.441l2.414,8.854ZM44.732,29.732,67.8,6.676l14.068,14.06-7.156,7.152L72.52,25.7a2.767,2.767,0,0,0-3.914,3.912L70.8,31.8l-4.389,4.386-2.193-2.192A2.767,2.767,0,0,0,60.3,37.905L62.5,40.1l-3.7,3.695Z" transform="translate(0 0)" fill="#3146bb"/>
          </g>
          <g id="_022-table_lamp" data-name="022-table lamp" transform="translate(1988.696 305.556) rotate(20)" opacity="0.07">
            <path id="Path_654" data-name="Path 654" d="M70.619,78.2l0-7.607a3,3,0,0,0-3-3H64.611l.006-24.032A32.352,32.352,0,0,0,48.754,15.762a11.31,11.31,0,0,0-18.4-12.444L26.814,6.854a22.028,22.028,0,0,0-20.872,5.76l-5.016,4.8A3,3,0,0,0,.88,21.712l5.753,5.75A12.012,12.012,0,1,0,23.624,44.443l4.116,4.114a3.007,3.007,0,0,0,4.2.044c6.776-6.49,4.671-4.458,5.085-4.871a22,22,0,0,0,5.787-20.884l2.264-2.262A26.328,26.328,0,0,1,58.605,43.556L58.6,67.588H55.594a3.007,3.007,0,0,0-3.006,3l0,7.51H46.574V76.6a3.006,3.006,0,0,0-6.011,0v1.5h-1.5A12.04,12.04,0,0,0,27.035,90.125v3a3,3,0,0,0,3,3l48.091-.011a3.007,3.007,0,0,0,3.006-3v-3A12.027,12.027,0,0,0,70.619,78.2Zm-55.6-36.132a6.011,6.011,0,0,1-4.14-10.355L19.373,40.2A6.029,6.029,0,0,1,15.023,42.064Zm17.778-2.6-2.89,2.768L7.3,19.632c3.02-2.892,2.833-2.713,2.867-2.747A15.984,15.984,0,0,1,32.8,39.461Zm.025-30.122L34.6,7.565a5.3,5.3,0,0,1,8.652,5.777c-.535,1.29-1.256,1.828-2.925,3.5A22.015,22.015,0,0,0,32.827,9.339ZM58.6,73.6h6.011V78.1H58.6ZM33.046,90.124a6.02,6.02,0,0,1,6.013-6.009l30.057-.007a6.013,6.013,0,0,1,6.01,6.007Z" transform="translate(0 0)" fill="#3146bb"/>
          </g>
          <g id="Group_1425" data-name="Group 1425" transform="translate(2155.523 154.499) rotate(20)" opacity="0.07">
            <g id="_024-music-2" data-name="024-music" transform="translate(0 0)" opacity="0.05">
              <path id="Path_809-2" data-name="Path 809" d="M39.791,10.6C39.793,4.443,36.5,0,30.511,0,24.562,0,19.9,8.153,19.9,18.557v4.462C10.5,29.066,0,36.5,0,47.72c0,13.885,8.292,21.2,19.886,21.2l0,6.627c0,3.976-1.41,3.976-2.653,3.977a1.281,1.281,0,0,1-1.281-.9,2.347,2.347,0,0,1,.505-2.529,2.651,2.651,0,1,0-3.75-3.748c-4.468,4.465-1.841,12.477,4.524,12.476,4.728,0,7.957-2.923,7.959-9.279l0-7.03c8.971-1.436,14.589-6.687,14.591-15.5,0-11.629-8.891-15.346-14.583-15.841l0-11.25c7.862-5.014,14.589-9.379,14.591-15.32ZM25.2,18.556C25.2,10.334,28.64,5.3,30.51,5.3c.984,0,3.978,0,3.977,5.3,0,2.573-4.327,5.777-9.285,9.014Zm-9.289,29.16c0-2.416,1.687-3.759,3.979-4.57l0,20.473C14.44,63.62,5.3,61.556,5.3,47.718c0-7.477,7.006-13.285,14.591-18.363l0,8.273C10.74,39.844,9.33,47.1,11.454,51.712a2.741,2.741,0,0,0,4.959-2.334A4.462,4.462,0,0,1,15.913,47.716Zm18.564,5.3c0,6.478-4.336,9.173-9.285,10.139l0-20.651C28.112,42.853,34.479,44.586,34.477,53.013Z" fill="#3146bb"/>
              <path id="Path_810-2" data-name="Path 810" d="M15.913,34.629l.005-23.364,17.24-5.072,0,14.143a7.951,7.951,0,1,0,5.3,7.495c.006-27.141.059-25.383-.1-25.929A2.656,2.656,0,0,0,35.064.108C11.012,7.185,12.375,6.754,12.013,6.947a2.655,2.655,0,0,0-1.274,1.536c-.185.584-.123-.713-.128,18.485a7.951,7.951,0,1,0,5.3,7.661ZM30.5,30.484a2.651,2.651,0,1,1,2.653-2.651A2.653,2.653,0,0,1,30.5,30.484ZM7.956,37.116a2.651,2.651,0,1,1,2.653-2.651A2.653,2.653,0,0,1,7.956,37.116Z" transform="translate(41.111 2.64)" fill="#3146bb"/>
              <path id="Path_811-2" data-name="Path 811" d="M25.2,3.973c-2.178,0-2.676-.429-3.58-1.208C19.931,1.308,18.019,0,13.267,0a2.653,2.653,0,0,0-2.653,2.651l0,17.685a7.952,7.952,0,1,0,5.3,7.495l.005-22.3A4.666,4.666,0,0,1,18.156,6.78c1.583,1.365,3.206,2.5,7.044,2.494a2.651,2.651,0,1,0,0-5.3ZM7.956,30.484a2.651,2.651,0,1,1,2.653-2.651A2.653,2.653,0,0,1,7.956,30.484Z" transform="translate(57.016 46.378)" fill="#3146bb"/>
            </g>
          </g>
          <g id="_015-school_supplies" data-name="015-school supplies" transform="translate(2236.936 263.193) rotate(20)" opacity="0.07">
            <path id="Path_648" data-name="Path 648" d="M84.272.5,1.182,58.644a2.769,2.769,0,0,0,1.587,5.035l83.076-.02a2.77,2.77,0,0,0,2.77-2.768l.014-58.12A2.77,2.77,0,0,0,84.272.5Zm-1.195,57.62H77.539V56.742a2.769,2.769,0,0,0-5.538,0v1.384H66.462V56.745a2.769,2.769,0,0,0-5.538,0V58.13H55.385V56.747a2.769,2.769,0,0,0-5.538,0v1.384H44.308V56.75a2.769,2.769,0,0,0-5.538,0v1.384H33.231V56.753a2.769,2.769,0,0,0-5.538,0v1.384l-16.138,0L83.089,8.088Z" transform="translate(0 0)" fill="#3146bb"/>
            <path id="Path_649" data-name="Path 649" d="M2.769,23.25l25.305-.006a2.77,2.77,0,0,0,2.77-2.768l0-17.7A2.77,2.77,0,0,0,26.492.505L1.182,18.215A2.769,2.769,0,0,0,2.769,23.25ZM25.309,8.089l0,9.621-13.751,0Z" transform="translate(43.928 26.58)" fill="#3146bb"/>
            <path id="Path_650" data-name="Path 650" d="M.005,2.772,0,24.913a8.31,8.31,0,0,0,8.306,8.3h5.538a8.319,8.319,0,0,0,8.31-8.3l.005-22.141A2.767,2.767,0,0,0,19.39,0L2.775,0A2.77,2.77,0,0,0,.005,2.772Zm13.84,24.906H8.307a2.77,2.77,0,0,1-2.769-2.767V22.144l11.077,0v2.768A2.773,2.773,0,0,1,13.845,27.678ZM16.62,5.536l0,11.071-11.077,0,0-11.071Z" transform="translate(0.009 0.019)" fill="#3146bb"/>
            <path id="Path_651" data-name="Path 651" d="M80.3,16.606l-67.845.016a2.769,2.769,0,0,1-1.358-.355L1.411,10.82A2.767,2.767,0,0,1,1.38,6.014L11.073.39a2.771,2.771,0,0,1,1.39-.374L80.309,0a2.767,2.767,0,0,1,2.769,2.767l0,11.071A2.77,2.77,0,0,1,80.3,16.606ZM13.186,11.086l64.351-.015V5.536l-64.331.015L8.351,8.369Z" transform="translate(1.38 71.963)" fill="#3146bb"/>
          </g>
          <g id="_014-basketball" data-name="014-basketball" transform="translate(896.027 -51.385)" opacity="0.07">
            <path id="Path_661" data-name="Path 661" d="M67.876,11.637h0a39.782,39.782,0,0,0-56.231,0A39.732,39.732,0,0,0,39.761,79.464,39.726,39.726,0,0,0,67.876,11.637Zm-3.514,3.512a34.548,34.548,0,0,1,8.976,15.508,27.168,27.168,0,0,0-7.28-4.776c-6.7-2.834-12.037-2.431-16.741-2.076-4.383.331-7.746.584-11.29-1.915a61.59,61.59,0,0,1,23.1-9.6,34.965,34.965,0,0,1,3.239,2.859ZM39.285,74.475c-4.074-3.089-7.342-6.938-8.809-10.4C28.11,58.484,28.45,54,28.778,49.655c.385-5.089.781-10.336-3.787-15.783q1.2-1.475,2.506-2.883L62.541,66.007A34.716,34.716,0,0,1,39.285,74.475ZM5.3,44.369c2.4-5.968,5.837-10.08,9.047-10.787a5.125,5.125,0,0,1,3.983.861A66.48,66.48,0,0,0,8.577,55.153,34.7,34.7,0,0,1,5.3,44.369Zm7.977-15.637c-2.8.616-5.477,2.5-7.836,5.408a34.551,34.551,0,0,1,8.029-17.171L23.98,27.474q-1.365,1.47-2.636,3.014a10.111,10.111,0,0,0-8.07-1.756Zm3.707-15.275A34.6,34.6,0,0,1,34.168,5.433c-2.927,2.367-4.813,5.056-5.422,7.859a10.1,10.1,0,0,0,1.764,8.035q-1.542,1.268-3.016,2.635Zm16.622.891c.7-3.2,4.823-6.653,10.8-9.054a34.763,34.763,0,0,1,10.79,3.278,66.563,66.563,0,0,0-20.726,9.742A5.118,5.118,0,0,1,33.6,14.347ZM12.3,61.078A61.505,61.505,0,0,1,21.905,38c2.5,3.541,2.248,6.9,1.917,11.281-.356,4.7-.759,10.029,2.078,16.729a27.137,27.137,0,0,0,4.778,7.274,34.585,34.585,0,0,1-15.518-8.97A34.942,34.942,0,0,1,12.3,61.078ZM66.055,62.5,31.011,27.477q1.408-1.3,2.886-2.5c5.451,4.565,10.7,4.169,15.795,3.784,4.344-.328,8.835-.667,14.43,1.7,3.463,1.464,7.316,4.731,10.408,8.8A34.66,34.66,0,0,1,66.055,62.5Z" transform="translate(0)" fill="#3146bb"/>
          </g>
          <g id="_023-cubes_stack" data-name="023-cubes stack" transform="translate(954.008 57.693) rotate(20)" opacity="0.07">
            <path id="Path_655" data-name="Path 655" d="M83.42,43.114l-13.438,0a8.581,8.581,0,0,0,.5-2.875l.007-31.621A8.631,8.631,0,0,0,61.858,0L30.22.007a8.641,8.641,0,0,0-8.631,8.626l-.007,31.621a8.577,8.577,0,0,0,.494,2.874l-13.438,0A8.641,8.641,0,0,0,.007,51.757L0,83.378A8.631,8.631,0,0,0,8.627,92l31.638-.007a8.6,8.6,0,0,0,5.753-2.2,8.592,8.592,0,0,0,5.752,2.2l31.638-.007a8.641,8.641,0,0,0,8.631-8.626l.007-31.621A8.631,8.631,0,0,0,83.42,43.114ZM27.334,40.252l.007-31.621a2.88,2.88,0,0,1,2.877-2.875l31.638-.007a2.877,2.877,0,0,1,2.876,2.874l-.007,31.621a2.88,2.88,0,0,1-2.877,2.875l-31.638.007A2.877,2.877,0,0,1,27.334,40.252ZM40.266,86.243,8.628,86.25a2.877,2.877,0,0,1-2.876-2.874L5.76,51.756a2.88,2.88,0,0,1,2.877-2.875l31.638-.007a2.877,2.877,0,0,1,2.876,2.874l-.007,31.621A2.88,2.88,0,0,1,40.266,86.243Zm46.02-2.885a2.88,2.88,0,0,1-2.877,2.875l-31.638.007A2.877,2.877,0,0,1,48.9,83.366L48.9,51.746a2.88,2.88,0,0,1,2.877-2.875l31.638-.007a2.877,2.877,0,0,1,2.876,2.874Z" transform="translate(0 0)" fill="#3146bb"/>
            <path id="Path_656" data-name="Path 656" d="M8.633,0H2.881a2.875,2.875,0,1,0,0,5.749H8.632a1.437,1.437,0,1,1,0,2.875H5.755a2.875,2.875,0,1,0,0,5.749H8.63a1.437,1.437,0,1,1,0,2.875H2.877a2.875,2.875,0,1,0,0,5.749H8.628a7.2,7.2,0,0,0,5.751-11.5A7.191,7.191,0,0,0,8.633,0Z" transform="translate(59.683 56.053)" fill="#3146bb"/>
            <path id="Path_657" data-name="Path 657" d="M15.822,7.9A7.91,7.91,0,0,0,0,7.907a2.876,2.876,0,0,0,5.752,0,2.157,2.157,0,0,1,4.314,0,4.117,4.117,0,0,1-1.722,3.343l-7.142,5.1A2.876,2.876,0,0,0,0,18.687v1.437A2.874,2.874,0,0,0,2.876,23l10.067,0a2.875,2.875,0,1,0,0-5.749h-3.1l1.852-1.322A9.88,9.88,0,0,0,15.822,7.9Z" transform="translate(16.54 56.063)" fill="#3146bb"/>
            <path id="Path_658" data-name="Path 658" d="M2.875,5.75l0,14.373a2.876,2.876,0,0,0,5.752,0l0-17.248A2.874,2.874,0,0,0,5.753,0H2.877a2.875,2.875,0,1,0,0,5.749Z" transform="translate(41.721 12.939)" fill="#3146bb"/>
          </g>
          <g id="_007-geometry" data-name="007-geometry" transform="translate(1059.907 149.843) rotate(20)" opacity="0.07">
            <path id="Path_662" data-name="Path 662" d="M79.122,16.049A2.469,2.469,0,0,0,77.7,13.814C77.437,13.691,35.354.11,35.311.1a2.463,2.463,0,0,0-1.573.066C-.707,13.409,1.45,12.556,1.128,12.767a2.478,2.478,0,0,0-1.049,1.5C-.038,14.754.008,63.2.012,63.243A2.478,2.478,0,0,0,1.1,65.066c.409.274-2.068-.569,42.635,13.876a2.482,2.482,0,0,0,.961.111c.538-.044-1.4.647,32.829-12.518a2.489,2.489,0,0,0,1.355-1.269c.35-.756.229,2.491.242-49.218ZM9.894,14.629,34.7,5.09,69.24,16.252l-24.8,9.539ZM46.98,30.107l27.2-10.46-.01,42.886-27.2,10.46ZM4.945,61.214l.01-42.987,27.238,8.8a2.47,2.47,0,0,0,4.117,1.33l5.725,1.85,0,20.9a2.47,2.47,0,0,0,0,4.525l0,17.565Z" transform="translate(0 0)" fill="#3146bb"/>
            <path id="Path_663" data-name="Path 663" d="M3.233.12A2.471,2.471,0,1,0,4.824,3.232,2.473,2.473,0,0,0,3.233.12Z" transform="translate(57.356 56.327)" fill="#3146bb"/>
            <path id="Path_664" data-name="Path 664" d="M3.233.12A2.471,2.471,0,1,0,4.824,3.23,2.473,2.473,0,0,0,3.233.12Z" transform="translate(48.951 53.611)" fill="#3146bb"/>
            <path id="Path_665" data-name="Path 665" d="M3.235.12A2.471,2.471,0,1,0,4.824,3.23,2.474,2.474,0,0,0,3.235.12Z" transform="translate(65.761 59.043)" fill="#3146bb"/>
            <ellipse id="Ellipse_161" data-name="Ellipse 161" cx="2.472" cy="2.47" rx="2.472" ry="2.47" transform="translate(32.144 40.15)" fill="#3146bb"/>
            <ellipse id="Ellipse_162" data-name="Ellipse 162" cx="2.472" cy="2.47" rx="2.472" ry="2.47" transform="translate(32.146 32.12)" fill="#3146bb"/>
            <ellipse id="Ellipse_163" data-name="Ellipse 163" cx="2.472" cy="2.47" rx="2.472" ry="2.47" transform="translate(32.15 16.06)" fill="#3146bb"/>
            <ellipse id="Ellipse_164" data-name="Ellipse 164" cx="2.472" cy="2.47" rx="2.472" ry="2.47" transform="translate(32.152 8.03)" fill="#3146bb"/>
            <path id="Path_666" data-name="Path 666" d="M1.586.166A2.471,2.471,0,1,0,4.78,1.585,2.469,2.469,0,0,0,1.586.166Z" transform="translate(16.071 54.36)" fill="#3146bb"/>
            <path id="Path_667" data-name="Path 667" d="M1.586.166A2.471,2.471,0,1,0,4.78,1.585,2.469,2.469,0,0,0,1.586.166Z" transform="translate(8.035 57.45)" fill="#3146bb"/>
            <path id="Path_668" data-name="Path 668" d="M1.586.166A2.471,2.471,0,1,0,4.78,1.585,2.469,2.469,0,0,0,1.586.166Z" transform="translate(24.106 51.269)" fill="#3146bb"/>
            <path id="Path_669" data-name="Path 669" d="M4.895,1.985A2.472,2.472,0,1,0,3.188,4.831,2.468,2.468,0,0,0,4.895,1.985Z" transform="translate(32.144 48.181)" fill="#3146bb"/>
          </g>
          <g id="_009-trophy-2" data-name="009-trophy" transform="translate(1109.248 42.535) rotate(20)" opacity="0.07">
            <path id="Path_647-2" data-name="Path 647" d="M74.613,7.848c-5.681,0-7.329,5.154-9,8.145.835-8.609,2.3-10.45,2.636-10.766A2.616,2.616,0,0,0,68.07,0L15.712.012a2.616,2.616,0,0,0-.183,5.227c.338.316,1.8,2.156,2.631,10.765-1.679-3.008-3.314-8.142-9-8.141C4.939,7.864,0,11.291,0,20.947c0,6.4,1.866,11.018,5.709,14.125,3.246,2.625,7.3,3.649,10.885,4.553,6.41,1.618,8.271,2.47,8.27,6.4a1.087,1.087,0,0,1-1.851.767,2.618,2.618,0,0,0-3.7,3.7,6.324,6.324,0,0,0,10.23-1.875,19.753,19.753,0,0,0,9.721,4.812l0,9.374-10.472,0a2.619,2.619,0,0,0-2.618,2.617l0,13.082H23.547a2.616,2.616,0,1,0,0,5.233l36.65-.009a2.616,2.616,0,1,0,0-5.233H57.58l0-13.082A2.616,2.616,0,0,0,54.966,62.8l-10.472,0,0-9.374a19.776,19.776,0,0,0,9.724-4.817,6.322,6.322,0,0,0,10.229,1.87,2.617,2.617,0,1,0-3.7-3.7,1.086,1.086,0,0,1-1.851-.766v-.225c0-3.749,2.145-4.625,8.273-6.175,3.581-.906,7.641-1.932,10.887-4.558,3.844-3.11,5.714-7.731,5.716-14.128,0-9.656-4.933-13.081-9.16-13.08ZM52.344,78.5,31.4,78.5l0-10.466,20.943,0ZM5.236,20.946c0-3.621,1.03-7.849,3.929-7.85,1.426,0,2.1.9,3.548,3.786,1.16,2.321,2.676,5.346,5.9,6.342a32.6,32.6,0,0,0,1.974,12.043c-7.76-2.212-15.358-2.458-15.355-14.32ZM41.88,48.41c-9.662,0-17.74-13.033-17.954-22.753-.122-5.547-.563-15.19-2.515-20.413l40.959-.01c-1.955,5.224-2.4,14.867-2.525,20.414C59.626,35.351,51.552,48.407,41.88,48.41ZM63.174,35.256c1.982-5.388,1.855-8.649,1.98-12.044,5.9-1.823,5.891-10.131,9.457-10.132,2.9,0,3.926,4.227,3.925,7.848C78.534,32.757,71,33.023,63.174,35.256Z" transform="translate(0 0)" fill="#3146bb"/>
          </g>
          <g id="_020-atom" data-name="020-atom" transform="translate(1025.736 -48.092) rotate(20)" opacity="0.07">
            <path id="Path_652" data-name="Path 652" d="M11.9,0A11.887,11.887,0,1,0,23.787,11.884,11.91,11.91,0,0,0,11.9,0Zm0,17.83a5.943,5.943,0,1,1,5.948-5.945A5.948,5.948,0,0,1,11.892,17.83Z" transform="translate(30.918 35.711)" fill="#3146bb"/>
            <path id="Path_653" data-name="Path 653" d="M77.653,47.59c15.734-19.1,7.192-34.259-17.414-30.153C51.563-5.724,34.153-5.9,25.4,17.445.986,13.383-7.881,28.362,7.97,47.606-8.083,67.092,1.321,81.774,25.384,77.759c8.649,23.09,26.078,23.361,34.842-.008C84.637,81.813,93.5,66.834,77.653,47.59Zm1.214-20.8c2.029,3.513.1,9.591-5.262,16.346a84.785,84.785,0,0,0-9.229-7.982,84.735,84.735,0,0,0-2.3-11.987C67.443,22.365,76.157,22.095,78.867,26.787ZM57.651,64.664c-.407,2.174-.886,4.233-1.426,6.164-1.976-.508-4-1.126-6.05-1.85C52.713,67.647,55.17,66.233,57.651,64.664Zm-14.844,1.32A100.675,100.675,0,0,1,26.876,56.8a100.752,100.752,0,0,1,0-18.388,100.785,100.785,0,0,1,15.936-9.2A100.673,100.673,0,0,1,58.747,38.4a100.752,100.752,0,0,1,0,18.388A100.784,100.784,0,0,1,42.807,65.985Zm-7.37,3c-2.052.724-4.074,1.344-6.051,1.852q-.808-2.9-1.423-6.164C30.386,66.2,32.839,67.62,35.437,68.983ZM20.6,51.916c-1.679-1.438-3.223-2.88-4.626-4.311,1.4-1.432,2.948-2.875,4.628-4.313C20.482,46.186,20.481,49.02,20.6,51.916Zm7.375-21.384c.407-2.174.886-4.233,1.426-6.164,1.976.508,4,1.126,6.05,1.85-2.538,1.332-4.994,2.746-7.475,4.315Zm22.213-4.318c2.052-.724,4.074-1.344,6.051-1.852.539,1.931,1.017,3.99,1.423,6.164-2.422-1.531-4.875-2.949-7.473-4.311ZM65.025,43.28c1.679,1.438,3.223,2.88,4.626,4.311-1.4,1.432-2.948,2.875-4.628,4.313.118-2.9.118-5.729,0-8.625ZM42.821,5.994c4.059,0,8.36,4.706,11.531,12.721a84.89,84.89,0,0,0-11.535,4A84.825,84.825,0,0,0,31.284,18.72C34.459,10.7,38.762,5.995,42.821,5.994ZM6.766,26.8c2.71-4.691,11.412-4.43,16.794-3.631a84.778,84.778,0,0,0-2.308,11.988,84.9,84.9,0,0,0-9.232,7.986C6.662,36.4,4.735,30.318,6.766,26.8Zm-.01,41.6c-2.029-3.513-.1-9.591,5.262-16.346a84.786,84.786,0,0,0,9.229,7.982,84.708,84.708,0,0,0,2.3,11.987C18.169,72.833,9.46,73.092,6.756,68.409ZM42.8,89.2c-4.059,0-8.36-4.706-11.531-12.721a84.892,84.892,0,0,0,11.535-4,84.836,84.836,0,0,0,11.533,3.994C51.164,84.493,46.861,89.2,42.8,89.2ZM78.857,68.392c-2.709,4.689-11.408,4.43-16.794,3.631A84.751,84.751,0,0,0,64.37,60.035,84.9,84.9,0,0,0,73.6,52.048C78.961,58.8,80.888,64.878,78.857,68.392Z" transform="translate(0 0)" fill="#3146bb"/>
          </g>
          <g id="_004-calculator-2" data-name="004-calculator" transform="translate(1243.259 19.014) rotate(20)" opacity="0.07">
            <path id="Path_635-2" data-name="Path 635" d="M48.863,0,2.448.011A2.444,2.444,0,0,0,0,2.453L0,21.985a2.441,2.441,0,0,0,2.442,2.441l46.415-.011A2.444,2.444,0,0,0,51.3,21.973l0-19.532A2.441,2.441,0,0,0,48.863,0ZM46.416,19.533l-41.529.01,0-14.649,41.529-.01Z" transform="translate(9.781 8.547)" fill="#3146bb"/>
            <path id="Path_636-2" data-name="Path 636" d="M63.532,0,7.345.013A7.339,7.339,0,0,0,.015,7.34L0,70.82a7.331,7.331,0,0,0,7.327,7.323l56.187-.013a7.339,7.339,0,0,0,7.33-7.326l.015-63.48A7.331,7.331,0,0,0,63.532,0Zm2.426,70.8a2.446,2.446,0,0,1-2.443,2.442l-56.187.013a2.444,2.444,0,0,1-2.442-2.441L4.9,7.338A2.446,2.446,0,0,1,7.344,4.9l56.187-.013a2.444,2.444,0,0,1,2.442,2.441Z" transform="translate(0 0)" fill="#3146bb"/>
            <path id="Path_637-2" data-name="Path 637" d="M12.217,0,2.446,0A2.444,2.444,0,0,0,0,2.444l0,9.766a2.441,2.441,0,0,0,2.442,2.441l9.772,0a2.444,2.444,0,0,0,2.443-2.442l0-9.766A2.441,2.441,0,0,0,12.217,0ZM9.772,9.767H4.886V4.885H9.773Z" transform="translate(9.777 36.633)" fill="#3146bb"/>
            <path id="Path_638-2" data-name="Path 638" d="M12.217,0,2.446,0A2.444,2.444,0,0,0,0,2.444l0,9.766a2.441,2.441,0,0,0,2.442,2.441l9.772,0a2.444,2.444,0,0,0,2.443-2.442l0-9.766A2.441,2.441,0,0,0,12.217,0ZM9.772,9.767H4.886V4.885H9.773Z" transform="translate(28.099 36.629)" fill="#3146bb"/>
            <path id="Path_639-2" data-name="Path 639" d="M12.217,0,2.446,0A2.444,2.444,0,0,0,0,2.444l0,9.766a2.441,2.441,0,0,0,2.442,2.441l9.772,0a2.444,2.444,0,0,0,2.443-2.442l0-9.766A2.441,2.441,0,0,0,12.217,0ZM9.772,9.767H4.886V4.885H9.773Z" transform="translate(9.773 54.944)" fill="#3146bb"/>
            <path id="Path_640-2" data-name="Path 640" d="M12.217,0,2.446,0A2.444,2.444,0,0,0,0,2.444l0,9.766a2.441,2.441,0,0,0,2.442,2.441l9.772,0a2.444,2.444,0,0,0,2.444-2.442l0-9.766A2.441,2.441,0,0,0,12.217,0ZM9.772,9.767H4.886V4.885H9.773Z" transform="translate(28.094 54.94)" fill="#3146bb"/>
            <path id="Path_641-2" data-name="Path 641" d="M12.222,0,2.45,0A2.444,2.444,0,0,0,.007,2.444L0,30.522a2.441,2.441,0,0,0,2.442,2.441l9.772,0a2.444,2.444,0,0,0,2.444-2.442l.007-28.078A2.441,2.441,0,0,0,12.222,0ZM9.772,28.078H4.886L4.892,4.885H9.778Z" transform="translate(46.416 36.624)" fill="#3146bb"/>
          </g>
          <g id="_003-backpack-2" data-name="003-backpack" transform="translate(1157.075 -82.068) rotate(20)" opacity="0.07">
            <path id="Path_642-2" data-name="Path 642" d="M94.244,51.64l-9.12,0V47.084a36.495,36.495,0,0,0-22.8-33.8,13.676,13.676,0,0,0-27.34.006A36.537,36.537,0,0,0,12.166,47.1v4.557l-9.12,0A3.041,3.041,0,0,0,0,54.7L0,74.449a15.209,15.209,0,0,0,12.241,14.9,9.125,9.125,0,0,0,9.033,7.884l54.719-.013A9.136,9.136,0,0,0,85.03,89.33a15.226,15.226,0,0,0,12.248-14.9l0-19.749A3.037,3.037,0,0,0,94.244,51.64ZM48.656,6.077a7.608,7.608,0,0,1,7.236,5.277,36.638,36.638,0,0,0-14.474,0A7.617,7.617,0,0,1,48.656,6.077ZM6.08,74.447l0-16.71h6.08l-.006,25.3A9.125,9.125,0,0,1,6.08,74.447ZM79.036,88.1A3.044,3.044,0,0,1,76,91.141l-54.719.013a3.041,3.041,0,0,1-3.039-3.038c0-2.16.009-39.485.01-41.017a30.4,30.4,0,0,1,60.8-.014ZM91.2,74.427a9.136,9.136,0,0,1-6.082,8.6l.006-25.3H91.2Z" transform="translate(0 0)" fill="#3146bb"/>
            <path id="Path_643-2" data-name="Path 643" d="M25.846,0A25.876,25.876,0,0,0,0,25.831a3.04,3.04,0,0,0,6.08,0,19.76,19.76,0,0,1,39.52-.009,3.04,3.04,0,0,0,6.08,0A25.847,25.847,0,0,0,25.846,0Z" transform="translate(22.806 21.268)" fill="#3146bb"/>
            <path id="Path_644-2" data-name="Path 644" d="M39.524,0,9.125.007A9.133,9.133,0,0,0,0,9.124L0,19.758a9.123,9.123,0,0,0,9.118,9.113l30.4-.007a9.133,9.133,0,0,0,9.122-9.117l0-10.634A9.123,9.123,0,0,0,39.524,0ZM42.56,19.748a3.044,3.044,0,0,1-3.041,3.039l-30.4.007A3.041,3.041,0,0,1,6.08,19.757l0-10.634A3.044,3.044,0,0,1,9.123,6.084l30.4-.007a3.041,3.041,0,0,1,3.039,3.038Z" transform="translate(24.319 57.723)" fill="#3146bb"/>
          </g>
          <g id="_025-dna" data-name="025-dna" transform="translate(1318.319 82.995) rotate(20)" opacity="0.07">
            <path id="Path_659" data-name="Path 659" d="M34.118,41.221C46.544,30.646,54.095,19.27,54.017,2.558a2.572,2.572,0,0,0-5.144.026c.073,15.6-7.286,25.667-18.788,35.313-1.346-1.078-2.69-2.134-4.115-3.257C36.895,25.63,43.8,16.932,43.728,2.611a2.572,2.572,0,0,0-5.144.027A34.332,34.332,0,0,1,38.4,6.456L5.332,6.463a34.473,34.473,0,0,1-.187-3.818A2.572,2.572,0,0,0,0,2.621C-.089,19.986,9.988,28.6,23.412,39.173,35.761,48.9,48.859,59.2,48.854,79.72a2.572,2.572,0,0,0,5.144,0c0-16.547-7.423-27.862-19.881-38.5ZM37.381,11.6a27.206,27.206,0,0,1-2.113,5.142l-26.821.006A27.129,27.129,0,0,1,6.34,11.6ZM11.906,21.887l19.9,0a68.013,68.013,0,0,1-9.951,9.481A67.959,67.959,0,0,1,11.906,21.887Z" transform="translate(10.307 0)" fill="#3146bb"/>
            <path id="Path_660" data-name="Path 660" d="M5.163,2.583A2.572,2.572,0,0,0,.018,2.559C-.068,19.217,7.4,30.557,19.9,41.213,7.556,51.754,0,63.027,0,79.72a2.572,2.572,0,0,0,5.144,0c0-15.518,7.325-25.557,18.789-35.186,1.368,1.1,2.726,2.162,4.115,3.256-10.841,8.948-17.756,17.637-17.76,31.928a2.572,2.572,0,0,0,5.144,0,34.479,34.479,0,0,1,.211-3.856l33.018-.008a34.541,34.541,0,0,1,.21,3.856,2.572,2.572,0,0,0,5.144,0c.008-36.8-49.062-37.02-48.854-77.124Zm27,48.485A68.276,68.276,0,0,1,42,60.429l-19.69,0A68.322,68.322,0,0,1,32.16,51.068ZM16.686,70.718a27.369,27.369,0,0,1,2.141-5.142l26.66-.006a27.323,27.323,0,0,1,2.137,5.141Z" transform="translate(0 0.014)" fill="#3146bb"/>
          </g>
          <g id="_019-globe" data-name="019-globe" transform="translate(1193.755 122.411) rotate(20)" opacity="0.07">
            <path id="Path_634" data-name="Path 634" d="M61.752,56.372C77.216,42.256,77.9,19.773,63.78,4.943l.371-.339a2.534,2.534,0,0,0,0-3.814,3.158,3.158,0,0,0-4.179,0L52.262,7.83C40.089-1.354,21.971-.746,10.577,9.655h0c-11.4,10.4-12.059,26.944-2,38.055L.866,54.75a2.534,2.534,0,0,0,0,3.814,3.158,3.158,0,0,0,4.179,0l.371-.339a43.509,43.509,0,0,0,28.562,9.188l0,13.513-13.3,0a2.708,2.708,0,1,0,0,5.395l32.5-.008a2.708,2.708,0,1,0,0-5.395l-13.3,0,0-14.085A42.5,42.5,0,0,0,61.752,56.372ZM50.271,13.461c.544.5.985,2.6-1.238,6.99a49.329,49.329,0,0,1-9.241,12.06L29.4,23.028a54.2,54.2,0,0,1,13.211-8.436,16.167,16.167,0,0,1,5.97-1.533,2.644,2.644,0,0,1,1.687.4ZM35.613,36.327A54.2,54.2,0,0,1,22.4,44.763c-4.813,2.029-7.113,1.627-7.657,1.13s-.985-2.6,1.238-6.99a49.328,49.328,0,0,1,9.241-12.06Zm4.167,3.8,8.271,7.55A27.165,27.165,0,0,1,22.3,50.629C28.523,48.59,34.933,44.239,39.78,40.13Zm12.45,3.734-8.271-7.55c4.537-4.461,9.274-10.3,11.5-15.958A21.374,21.374,0,0,1,52.23,43.864ZM42.718,8.726c-6.205,2.033-12.594,6.355-17.48,10.5l-8.271-7.55A27.155,27.155,0,0,1,42.718,8.726ZM12.787,15.49l8.271,7.55C16.52,27.5,11.783,33.337,9.558,39A21.374,21.374,0,0,1,12.787,15.49ZM9.607,54.4l3.148-2.874c12.143,9.162,30.262,8.6,41.687-1.826,11.4-10.4,12.059-26.943,2-38.055L59.588,8.77c11.637,12.52,11.327,31.61-2.013,43.788S23.328,65.024,9.607,54.4Z" transform="translate(0 0)" fill="#3146bb"/>
          </g>
          <g id="_013-book-2" data-name="013-book" transform="translate(1464.502 66.691) rotate(20)" opacity="0.07">
            <path id="Path_631-2" data-name="Path 631" d="M60.917,0,8.542.012A8.538,8.538,0,0,0,.014,8.536L0,69.4a8.529,8.529,0,0,0,8.524,8.519L60.9,77.91a2.437,2.437,0,0,0,2.437-2.435c0-2.211.007-31.085.017-73.04A2.434,2.434,0,0,0,60.917,0Zm-2.45,60.867-43.849.01.013-56L58.48,4.87ZM4.886,8.535A3.659,3.659,0,0,1,8.541,4.882H9.759l-.013,56a10.011,10.011,0,0,0-4.872.819ZM58.464,73.041l-49.939.012a3.652,3.652,0,1,1,0-7.3l49.939-.012Z" transform="translate(0 0)" fill="#3146bb"/>
            <path id="Path_632-2" data-name="Path 632" d="M2.441,21.967l29.3-.007A2.442,2.442,0,0,0,34.18,19.52l0-17.08A2.439,2.439,0,0,0,31.743,0L2.446.007A2.442,2.442,0,0,0,0,2.447l0,17.08A2.439,2.439,0,0,0,2.441,21.967ZM4.886,4.886,29.3,4.881l0,12.2-24.414.006Z" transform="translate(19.448 10.982)" fill="#3146bb"/>
            <path id="Path_633-2" data-name="Path 633" d="M29.3,0,2.442.006a2.44,2.44,0,1,0,0,4.88L29.3,4.88A2.44,2.44,0,1,0,29.3,0Z" transform="translate(20.665 48.689)" fill="#3146bb"/>
          </g>
          <g id="_018-chemistry-2" data-name="018-chemistry" transform="translate(1385.033 -23.341) rotate(20)" opacity="0.07">
            <path id="Path_761-2" data-name="Path 761" d="M69.473,65.468l-23.3-27.947.008-32.394a2.563,2.563,0,1,0,0-5.127L25.664,0a2.563,2.563,0,1,0,0,5.127l-.008,32.394L2.342,65.484a10.1,10.1,0,0,0,7.753,16.549l51.618-.012A10.108,10.108,0,0,0,69.473,65.468ZM30.19,40.094a2.563,2.563,0,0,0,.595-1.641L30.792,5.13l10.259,0v5.127H39.767a2.563,2.563,0,1,0,0,5.127h1.282v5.127H39.765a2.563,2.563,0,1,0,0,5.127h1.282V30.76H39.763a2.563,2.563,0,1,0,0,5.127h1.282V38.45a2.561,2.561,0,0,0,.594,1.641l5.437,6.521a19.1,19.1,0,0,0-12.435,2.431c-2.321,1.326-6.316,2.431-12.648.883Zm31.525,36.8L10.1,76.906a4.969,4.969,0,0,1-3.814-8.142L18.387,54.247c6.192,1.974,13.151,2.47,18.8-.755,6.891-3.937,12.569-.851,15.707.095L65.532,68.751A4.973,4.973,0,0,1,61.714,76.894Z" transform="translate(0 0)" fill="#3146bb"/>
          </g>
          <g id="_005-whiteboard-2" data-name="005-whiteboard" transform="translate(1510.059 -51.385) rotate(20)" opacity="0.07">
            <path id="Path_757-2" data-name="Path 757" d="M82.5,50.532H79.837l.011-47.874A2.659,2.659,0,0,0,77.188,0L8,.016a2.662,2.662,0,0,0-2.662,2.66L5.325,50.55H2.664A2.662,2.662,0,0,0,0,53.211L0,63.85a2.659,2.659,0,0,0,2.661,2.659l9.778,0L8.082,81.735a2.661,2.661,0,0,0,5.117,1.46l1.35-4.72L70.6,78.461l1.348,4.72a2.661,2.661,0,0,0,5.118-1.463L72.717,66.492l9.778,0a2.662,2.662,0,0,0,2.662-2.66l0-10.639A2.659,2.659,0,0,0,82.5,50.532Zm-71.84-45.2L74.526,5.32l-.011,45.214H69.193v-2.66A7.986,7.986,0,0,0,61.212,39.9l-7.983,0a8,8,0,0,0-7.985,7.981v2.66l-34.595.008Zm53.212,45.2-13.306,0V47.88a2.665,2.665,0,0,1,2.662-2.66l7.983,0a2.662,2.662,0,0,1,2.661,2.659Zm5.211,22.606-53.01.012,1.9-6.65,49.208-.012ZM79.835,61.171l-74.512.018V55.87l74.512-.018Z" transform="translate(0 0)" fill="#3146bb"/>
            <path id="Path_758-2" data-name="Path 758" d="M15.968,17.285A7.986,7.986,0,0,0,5.325,9.766l0-7.107A2.661,2.661,0,0,0,0,2.66L0,22.608a2.664,2.664,0,0,0,4.543,1.879A8,8,0,0,0,15.968,17.285ZM7.985,14.627a2.66,2.66,0,1,1-2.662,2.66A2.662,2.662,0,0,1,7.985,14.627Z" transform="translate(34.602 9.318)" fill="#3146bb"/>
            <path id="Path_759-2" data-name="Path 759" d="M11.425.786a7.98,7.98,0,1,0,0,14.4A2.666,2.666,0,0,0,15.966,13.3l0-10.639A2.664,2.664,0,0,0,11.425.786Zm-3.442,9.86a2.66,2.66,0,1,1,2.662-2.66A2.662,2.662,0,0,1,7.983,10.646Z" transform="translate(14.645 18.623)" fill="#3146bb"/>
            <path id="Path_760-2" data-name="Path 760" d="M13.627,13.62A2.66,2.66,0,1,0,9.865,9.86a2.661,2.661,0,1,1,0-3.761A2.661,2.661,0,0,0,13.63,2.336a7.982,7.982,0,1,0,0,11.284Z" transform="translate(54.562 18.621)" fill="#3146bb"/>
          </g>
          <g id="Group_1422" data-name="Group 1422" transform="translate(1401.173 149.843) rotate(20)" opacity="0.07">
            <g id="_024-music-3" data-name="024-music" transform="translate(0 0)" opacity="0.05">
              <path id="Path_809-3" data-name="Path 809" d="M39.791,10.6C39.793,4.443,36.5,0,30.511,0,24.562,0,19.9,8.153,19.9,18.557v4.462C10.5,29.066,0,36.5,0,47.72c0,13.885,8.292,21.2,19.886,21.2l0,6.627c0,3.976-1.41,3.976-2.653,3.977a1.281,1.281,0,0,1-1.281-.9,2.347,2.347,0,0,1,.505-2.529,2.651,2.651,0,1,0-3.75-3.748c-4.468,4.465-1.841,12.477,4.524,12.476,4.728,0,7.957-2.923,7.959-9.279l0-7.03c8.971-1.436,14.589-6.687,14.591-15.5,0-11.629-8.891-15.346-14.583-15.841l0-11.25c7.862-5.014,14.589-9.379,14.591-15.32ZM25.2,18.556C25.2,10.334,28.64,5.3,30.51,5.3c.984,0,3.978,0,3.977,5.3,0,2.573-4.327,5.777-9.285,9.014Zm-9.289,29.16c0-2.416,1.687-3.759,3.979-4.57l0,20.473C14.44,63.62,5.3,61.556,5.3,47.718c0-7.477,7.006-13.285,14.591-18.363l0,8.273C10.74,39.844,9.33,47.1,11.454,51.712a2.741,2.741,0,0,0,4.959-2.334A4.462,4.462,0,0,1,15.913,47.716Zm18.564,5.3c0,6.478-4.336,9.173-9.285,10.139l0-20.651C28.112,42.853,34.479,44.586,34.477,53.013Z" fill="#3146bb"/>
              <path id="Path_810-3" data-name="Path 810" d="M15.913,34.629l.005-23.364,17.24-5.072,0,14.143a7.951,7.951,0,1,0,5.3,7.495c.006-27.141.059-25.383-.1-25.929A2.656,2.656,0,0,0,35.064.108C11.012,7.185,12.375,6.754,12.013,6.947a2.655,2.655,0,0,0-1.274,1.536c-.185.584-.123-.713-.128,18.485a7.951,7.951,0,1,0,5.3,7.661ZM30.5,30.484a2.651,2.651,0,1,1,2.653-2.651A2.653,2.653,0,0,1,30.5,30.484ZM7.956,37.116a2.651,2.651,0,1,1,2.653-2.651A2.653,2.653,0,0,1,7.956,37.116Z" transform="translate(41.111 2.64)" fill="#3146bb"/>
              <path id="Path_811-3" data-name="Path 811" d="M25.2,3.973c-2.178,0-2.676-.429-3.58-1.208C19.931,1.308,18.019,0,13.267,0a2.653,2.653,0,0,0-2.653,2.651l0,17.685a7.952,7.952,0,1,0,5.3,7.495l.005-22.3A4.666,4.666,0,0,1,18.156,6.78c1.583,1.365,3.206,2.5,7.044,2.494a2.651,2.651,0,1,0,0-5.3ZM7.956,30.484a2.651,2.651,0,1,1,2.653-2.651A2.653,2.653,0,0,1,7.956,30.484Z" transform="translate(57.016 46.378)" fill="#3146bb"/>
            </g>
          </g>
          <g id="_001-school_supplies-2" data-name="001-school supplies" transform="translate(1560.388 116.678) rotate(20)" opacity="0.07">
            <path id="Path_812-2" data-name="Path 812" d="M87.738,22.69a2.764,2.764,0,0,0,0-3.911L69.759.81a2.768,2.768,0,0,0-3.913,0L40.82,25.822,18.572,3.587a2.768,2.768,0,0,0-3.913,0L3.59,14.651a2.764,2.764,0,0,0,0,3.911L25.837,40.8.811,65.809a2.764,2.764,0,0,0,0,3.911L18.79,87.69a2.768,2.768,0,0,0,3.913,0L47.729,62.677,64.9,79.836c.912.911,1.277,1.4,2.158,1.642C83.806,86.04,82.484,85.72,83,85.719a2.768,2.768,0,0,0,2.67-3.493L81.524,67.018a2.761,2.761,0,0,0-.713-1.228L62.712,47.7ZM16.615,9.453,72.991,65.8a17.917,17.917,0,0,0-7.156,7.152L9.459,16.605ZM40.12,62.462,37.927,60.27a2.767,2.767,0,0,0-3.914,3.912l2.193,2.192L31.818,70.76l-2.193-2.192a2.767,2.767,0,0,0-3.914,3.912L27.9,74.671l-7.156,7.152L6.68,67.763,29.749,44.707l14.068,14.06ZM70.2,76.6a12.4,12.4,0,0,1,6.445-6.441l2.414,8.854ZM44.732,29.732,67.8,6.676l14.068,14.06-7.156,7.152L72.52,25.7a2.767,2.767,0,0,0-3.914,3.912L70.8,31.8l-4.389,4.386-2.193-2.192A2.767,2.767,0,0,0,60.3,37.905L62.5,40.1l-3.7,3.695Z" transform="translate(0 0)" fill="#3146bb"/>
          </g>
          <g id="_023-cubes_stack-2" data-name="023-cubes stack" transform="translate(1620.079 16.936) rotate(20)" opacity="0.07">
            <path id="Path_655-2" data-name="Path 655" d="M83.42,43.114l-13.438,0a8.581,8.581,0,0,0,.5-2.875l.007-31.621A8.631,8.631,0,0,0,61.858,0L30.22.007a8.641,8.641,0,0,0-8.631,8.626l-.007,31.621a8.577,8.577,0,0,0,.494,2.874l-13.438,0A8.641,8.641,0,0,0,.007,51.757L0,83.378A8.631,8.631,0,0,0,8.627,92l31.638-.007a8.6,8.6,0,0,0,5.753-2.2,8.592,8.592,0,0,0,5.752,2.2l31.638-.007a8.641,8.641,0,0,0,8.631-8.626l.007-31.621A8.631,8.631,0,0,0,83.42,43.114ZM27.334,40.252l.007-31.621a2.88,2.88,0,0,1,2.877-2.875l31.638-.007a2.877,2.877,0,0,1,2.876,2.874l-.007,31.621a2.88,2.88,0,0,1-2.877,2.875l-31.638.007A2.877,2.877,0,0,1,27.334,40.252ZM40.266,86.243,8.628,86.25a2.877,2.877,0,0,1-2.876-2.874L5.76,51.756a2.88,2.88,0,0,1,2.877-2.875l31.638-.007a2.877,2.877,0,0,1,2.876,2.874l-.007,31.621A2.88,2.88,0,0,1,40.266,86.243Zm46.02-2.885a2.88,2.88,0,0,1-2.877,2.875l-31.638.007A2.877,2.877,0,0,1,48.9,83.366L48.9,51.746a2.88,2.88,0,0,1,2.877-2.875l31.638-.007a2.877,2.877,0,0,1,2.876,2.874Z" transform="translate(0 0)" fill="#3146bb"/>
            <path id="Path_656-2" data-name="Path 656" d="M8.633,0H2.881a2.875,2.875,0,1,0,0,5.749H8.632a1.437,1.437,0,1,1,0,2.875H5.755a2.875,2.875,0,1,0,0,5.749H8.63a1.437,1.437,0,1,1,0,2.875H2.877a2.875,2.875,0,1,0,0,5.749H8.628a7.2,7.2,0,0,0,5.751-11.5A7.191,7.191,0,0,0,8.633,0Z" transform="translate(59.683 56.053)" fill="#3146bb"/>
            <path id="Path_657-2" data-name="Path 657" d="M15.822,7.9A7.91,7.91,0,0,0,0,7.907a2.876,2.876,0,0,0,5.752,0,2.157,2.157,0,0,1,4.314,0,4.117,4.117,0,0,1-1.722,3.343l-7.142,5.1A2.876,2.876,0,0,0,0,18.687v1.437A2.874,2.874,0,0,0,2.876,23l10.067,0a2.875,2.875,0,1,0,0-5.749h-3.1l1.852-1.322A9.88,9.88,0,0,0,15.822,7.9Z" transform="translate(16.54 56.063)" fill="#3146bb"/>
            <path id="Path_658-2" data-name="Path 658" d="M2.875,5.75l0,14.373a2.876,2.876,0,0,0,5.752,0l0-17.248A2.874,2.874,0,0,0,5.753,0H2.877a2.875,2.875,0,1,0,0,5.749Z" transform="translate(41.721 12.939)" fill="#3146bb"/>
          </g>
          <g id="_007-geometry-2" data-name="007-geometry" transform="translate(1812.785 185.968) rotate(20)" opacity="0.07">
            <path id="Path_662-2" data-name="Path 662" d="M79.122,16.049A2.469,2.469,0,0,0,77.7,13.814C77.437,13.691,35.354.11,35.311.1a2.463,2.463,0,0,0-1.573.066C-.707,13.409,1.45,12.556,1.128,12.767a2.478,2.478,0,0,0-1.049,1.5C-.038,14.754.008,63.2.012,63.243A2.478,2.478,0,0,0,1.1,65.066c.409.274-2.068-.569,42.635,13.876a2.482,2.482,0,0,0,.961.111c.538-.044-1.4.647,32.829-12.518a2.489,2.489,0,0,0,1.355-1.269c.35-.756.229,2.491.242-49.218ZM9.894,14.629,34.7,5.09,69.24,16.252l-24.8,9.539ZM46.98,30.107l27.2-10.46-.01,42.886-27.2,10.46ZM4.945,61.214l.01-42.987,27.238,8.8a2.47,2.47,0,0,0,4.117,1.33l5.725,1.85,0,20.9a2.47,2.47,0,0,0,0,4.525l0,17.565Z" transform="translate(0 0)" fill="#3146bb"/>
            <path id="Path_663-2" data-name="Path 663" d="M3.233.12A2.471,2.471,0,1,0,4.824,3.232,2.473,2.473,0,0,0,3.233.12Z" transform="translate(57.356 56.327)" fill="#3146bb"/>
            <path id="Path_664-2" data-name="Path 664" d="M3.233.12A2.471,2.471,0,1,0,4.824,3.23,2.473,2.473,0,0,0,3.233.12Z" transform="translate(48.951 53.611)" fill="#3146bb"/>
            <path id="Path_665-2" data-name="Path 665" d="M3.235.12A2.471,2.471,0,1,0,4.824,3.23,2.474,2.474,0,0,0,3.235.12Z" transform="translate(65.761 59.043)" fill="#3146bb"/>
            <ellipse id="Ellipse_161-2" data-name="Ellipse 161" cx="2.472" cy="2.47" rx="2.472" ry="2.47" transform="translate(32.144 40.15)" fill="#3146bb"/>
            <ellipse id="Ellipse_162-2" data-name="Ellipse 162" cx="2.472" cy="2.47" rx="2.472" ry="2.47" transform="translate(32.146 32.12)" fill="#3146bb"/>
            <ellipse id="Ellipse_163-2" data-name="Ellipse 163" cx="2.472" cy="2.47" rx="2.472" ry="2.47" transform="translate(32.15 16.06)" fill="#3146bb"/>
            <ellipse id="Ellipse_164-2" data-name="Ellipse 164" cx="2.472" cy="2.47" rx="2.472" ry="2.47" transform="translate(32.152 8.03)" fill="#3146bb"/>
            <path id="Path_666-2" data-name="Path 666" d="M1.586.166A2.471,2.471,0,1,0,4.78,1.585,2.469,2.469,0,0,0,1.586.166Z" transform="translate(16.071 54.36)" fill="#3146bb"/>
            <path id="Path_667-2" data-name="Path 667" d="M1.586.166A2.471,2.471,0,1,0,4.78,1.585,2.469,2.469,0,0,0,1.586.166Z" transform="translate(8.035 57.45)" fill="#3146bb"/>
            <path id="Path_668-2" data-name="Path 668" d="M1.586.166A2.471,2.471,0,1,0,4.78,1.585,2.469,2.469,0,0,0,1.586.166Z" transform="translate(24.106 51.269)" fill="#3146bb"/>
            <path id="Path_669-2" data-name="Path 669" d="M4.895,1.985A2.472,2.472,0,1,0,3.188,4.831,2.468,2.468,0,0,0,4.895,1.985Z" transform="translate(32.144 48.181)" fill="#3146bb"/>
          </g>
          <g id="_009-trophy-3" data-name="009-trophy" transform="translate(1725.806 -49.605) rotate(20)" opacity="0.07">
            <path id="Path_647-3" data-name="Path 647" d="M74.613,7.848c-5.681,0-7.329,5.154-9,8.145.835-8.609,2.3-10.45,2.636-10.766A2.616,2.616,0,0,0,68.07,0L15.712.012a2.616,2.616,0,0,0-.183,5.227c.338.316,1.8,2.156,2.631,10.765-1.679-3.008-3.314-8.142-9-8.141C4.939,7.864,0,11.291,0,20.947c0,6.4,1.866,11.018,5.709,14.125,3.246,2.625,7.3,3.649,10.885,4.553,6.41,1.618,8.271,2.47,8.27,6.4a1.087,1.087,0,0,1-1.851.767,2.618,2.618,0,0,0-3.7,3.7,6.324,6.324,0,0,0,10.23-1.875,19.753,19.753,0,0,0,9.721,4.812l0,9.374-10.472,0a2.619,2.619,0,0,0-2.618,2.617l0,13.082H23.547a2.616,2.616,0,1,0,0,5.233l36.65-.009a2.616,2.616,0,1,0,0-5.233H57.58l0-13.082A2.616,2.616,0,0,0,54.966,62.8l-10.472,0,0-9.374a19.776,19.776,0,0,0,9.724-4.817,6.322,6.322,0,0,0,10.229,1.87,2.617,2.617,0,1,0-3.7-3.7,1.086,1.086,0,0,1-1.851-.766v-.225c0-3.749,2.145-4.625,8.273-6.175,3.581-.906,7.641-1.932,10.887-4.558,3.844-3.11,5.714-7.731,5.716-14.128,0-9.656-4.933-13.081-9.16-13.08ZM52.344,78.5,31.4,78.5l0-10.466,20.943,0ZM5.236,20.946c0-3.621,1.03-7.849,3.929-7.85,1.426,0,2.1.9,3.548,3.786,1.16,2.321,2.676,5.346,5.9,6.342a32.6,32.6,0,0,0,1.974,12.043c-7.76-2.212-15.358-2.458-15.355-14.32ZM41.88,48.41c-9.662,0-17.74-13.033-17.954-22.753-.122-5.547-.563-15.19-2.515-20.413l40.959-.01c-1.955,5.224-2.4,14.867-2.525,20.414C59.626,35.351,51.552,48.407,41.88,48.41ZM63.174,35.256c1.982-5.388,1.855-8.649,1.98-12.044,5.9-1.823,5.891-10.131,9.457-10.132,2.9,0,3.926,4.227,3.925,7.848C78.534,32.757,71,33.023,63.174,35.256Z" transform="translate(0 0)" fill="#3146bb"/>
          </g>
          <g id="_020-atom-2" data-name="020-atom" transform="translate(1683.316 139.856) rotate(20)" opacity="0.07">
            <path id="Path_652-2" data-name="Path 652" d="M11.9,0A11.887,11.887,0,1,0,23.787,11.884,11.91,11.91,0,0,0,11.9,0Zm0,17.83a5.943,5.943,0,1,1,5.948-5.945A5.948,5.948,0,0,1,11.892,17.83Z" transform="translate(30.918 35.711)" fill="#3146bb"/>
            <path id="Path_653-2" data-name="Path 653" d="M77.653,47.59c15.734-19.1,7.192-34.259-17.414-30.153C51.563-5.724,34.153-5.9,25.4,17.445.986,13.383-7.881,28.362,7.97,47.606-8.083,67.092,1.321,81.774,25.384,77.759c8.649,23.09,26.078,23.361,34.842-.008C84.637,81.813,93.5,66.834,77.653,47.59Zm1.214-20.8c2.029,3.513.1,9.591-5.262,16.346a84.785,84.785,0,0,0-9.229-7.982,84.735,84.735,0,0,0-2.3-11.987C67.443,22.365,76.157,22.095,78.867,26.787ZM57.651,64.664c-.407,2.174-.886,4.233-1.426,6.164-1.976-.508-4-1.126-6.05-1.85C52.713,67.647,55.17,66.233,57.651,64.664Zm-14.844,1.32A100.675,100.675,0,0,1,26.876,56.8a100.752,100.752,0,0,1,0-18.388,100.785,100.785,0,0,1,15.936-9.2A100.673,100.673,0,0,1,58.747,38.4a100.752,100.752,0,0,1,0,18.388A100.784,100.784,0,0,1,42.807,65.985Zm-7.37,3c-2.052.724-4.074,1.344-6.051,1.852q-.808-2.9-1.423-6.164C30.386,66.2,32.839,67.62,35.437,68.983ZM20.6,51.916c-1.679-1.438-3.223-2.88-4.626-4.311,1.4-1.432,2.948-2.875,4.628-4.313C20.482,46.186,20.481,49.02,20.6,51.916Zm7.375-21.384c.407-2.174.886-4.233,1.426-6.164,1.976.508,4,1.126,6.05,1.85-2.538,1.332-4.994,2.746-7.475,4.315Zm22.213-4.318c2.052-.724,4.074-1.344,6.051-1.852.539,1.931,1.017,3.99,1.423,6.164-2.422-1.531-4.875-2.949-7.473-4.311ZM65.025,43.28c1.679,1.438,3.223,2.88,4.626,4.311-1.4,1.432-2.948,2.875-4.628,4.313.118-2.9.118-5.729,0-8.625ZM42.821,5.994c4.059,0,8.36,4.706,11.531,12.721a84.89,84.89,0,0,0-11.535,4A84.825,84.825,0,0,0,31.284,18.72C34.459,10.7,38.762,5.995,42.821,5.994ZM6.766,26.8c2.71-4.691,11.412-4.43,16.794-3.631a84.778,84.778,0,0,0-2.308,11.988,84.9,84.9,0,0,0-9.232,7.986C6.662,36.4,4.735,30.318,6.766,26.8Zm-.01,41.6c-2.029-3.513-.1-9.591,5.262-16.346a84.786,84.786,0,0,0,9.229,7.982,84.708,84.708,0,0,0,2.3,11.987C18.169,72.833,9.46,73.092,6.756,68.409ZM42.8,89.2c-4.059,0-8.36-4.706-11.531-12.721a84.892,84.892,0,0,0,11.535-4,84.836,84.836,0,0,0,11.533,3.994C51.164,84.493,46.861,89.2,42.8,89.2ZM78.857,68.392c-2.709,4.689-11.408,4.43-16.794,3.631A84.751,84.751,0,0,0,64.37,60.035,84.9,84.9,0,0,0,73.6,52.048C78.961,58.8,80.888,64.878,78.857,68.392Z" transform="translate(0 0)" fill="#3146bb"/>
          </g>
          <g id="_018-chemistry-3" data-name="018-chemistry" transform="translate(1778.904 52.853) rotate(20)" opacity="0.07">
            <path id="Path_761-3" data-name="Path 761" d="M69.473,65.468l-23.3-27.947.008-32.394a2.563,2.563,0,1,0,0-5.127L25.664,0a2.563,2.563,0,1,0,0,5.127l-.008,32.394L2.342,65.484a10.1,10.1,0,0,0,7.753,16.549l51.618-.012A10.108,10.108,0,0,0,69.473,65.468ZM30.19,40.094a2.563,2.563,0,0,0,.595-1.641L30.792,5.13l10.259,0v5.127H39.767a2.563,2.563,0,1,0,0,5.127h1.282v5.127H39.765a2.563,2.563,0,1,0,0,5.127h1.282V30.76H39.763a2.563,2.563,0,1,0,0,5.127h1.282V38.45a2.561,2.561,0,0,0,.594,1.641l5.437,6.521a19.1,19.1,0,0,0-12.435,2.431c-2.321,1.326-6.316,2.431-12.648.883Zm31.525,36.8L10.1,76.906a4.969,4.969,0,0,1-3.814-8.142L18.387,54.247c6.192,1.974,13.151,2.47,18.8-.755,6.891-3.937,12.569-.851,15.707.095L65.532,68.751A4.973,4.973,0,0,1,61.714,76.894Z" transform="translate(0 0)" fill="#3146bb"/>
          </g>
          <g id="_013-book-3" data-name="013-book" transform="translate(1227.283 313.176) rotate(20)" opacity="0.07">
            <path id="Path_631-3" data-name="Path 631" d="M60.917,0,8.542.012A8.538,8.538,0,0,0,.014,8.536L0,69.4a8.529,8.529,0,0,0,8.524,8.519L60.9,77.91a2.437,2.437,0,0,0,2.437-2.435c0-2.211.007-31.085.017-73.04A2.434,2.434,0,0,0,60.917,0Zm-2.45,60.867-43.849.01.013-56L58.48,4.87ZM4.886,8.535A3.659,3.659,0,0,1,8.541,4.882H9.759l-.013,56a10.011,10.011,0,0,0-4.872.819ZM58.464,73.041l-49.939.012a3.652,3.652,0,1,1,0-7.3l49.939-.012Z" transform="translate(0 0)" fill="#3146bb"/>
            <path id="Path_632-3" data-name="Path 632" d="M2.441,21.967l29.3-.007A2.442,2.442,0,0,0,34.18,19.52l0-17.08A2.439,2.439,0,0,0,31.743,0L2.446.007A2.442,2.442,0,0,0,0,2.447l0,17.08A2.439,2.439,0,0,0,2.441,21.967ZM4.886,4.886,29.3,4.881l0,12.2-24.414.006Z" transform="translate(19.448 10.982)" fill="#3146bb"/>
            <path id="Path_633-3" data-name="Path 633" d="M29.3,0,2.442.006a2.44,2.44,0,1,0,0,4.88L29.3,4.88A2.44,2.44,0,1,0,29.3,0Z" transform="translate(20.665 48.689)" fill="#3146bb"/>
          </g>
          <g id="_018-chemistry-4" data-name="018-chemistry" transform="translate(950.599 187.769) rotate(20)" opacity="0.07">
            <path id="Path_761-4" data-name="Path 761" d="M69.473,65.468l-23.3-27.947.008-32.394a2.563,2.563,0,1,0,0-5.127L25.664,0a2.563,2.563,0,1,0,0,5.127l-.008,32.394L2.342,65.484a10.1,10.1,0,0,0,7.753,16.549l51.618-.012A10.108,10.108,0,0,0,69.473,65.468ZM30.19,40.094a2.563,2.563,0,0,0,.595-1.641L30.792,5.13l10.259,0v5.127H39.767a2.563,2.563,0,1,0,0,5.127h1.282v5.127H39.765a2.563,2.563,0,1,0,0,5.127h1.282V30.76H39.763a2.563,2.563,0,1,0,0,5.127h1.282V38.45a2.561,2.561,0,0,0,.594,1.641l5.437,6.521a19.1,19.1,0,0,0-12.435,2.431c-2.321,1.326-6.316,2.431-12.648.883Zm31.525,36.8L10.1,76.906a4.969,4.969,0,0,1-3.814-8.142L18.387,54.247c6.192,1.974,13.151,2.47,18.8-.755,6.891-3.937,12.569-.851,15.707.095L65.532,68.751A4.973,4.973,0,0,1,61.714,76.894Z" transform="translate(0 0)" fill="#3146bb"/>
          </g>
          <g id="_005-whiteboard-3" data-name="005-whiteboard" transform="translate(1140.955 231.573) rotate(20)" opacity="0.07">
            <path id="Path_757-3" data-name="Path 757" d="M82.5,50.532H79.837l.011-47.874A2.659,2.659,0,0,0,77.188,0L8,.016a2.662,2.662,0,0,0-2.662,2.66L5.325,50.55H2.664A2.662,2.662,0,0,0,0,53.211L0,63.85a2.659,2.659,0,0,0,2.661,2.659l9.778,0L8.082,81.735a2.661,2.661,0,0,0,5.117,1.46l1.35-4.72L70.6,78.461l1.348,4.72a2.661,2.661,0,0,0,5.118-1.463L72.717,66.492l9.778,0a2.662,2.662,0,0,0,2.662-2.66l0-10.639A2.659,2.659,0,0,0,82.5,50.532Zm-71.84-45.2L74.526,5.32l-.011,45.214H69.193v-2.66A7.986,7.986,0,0,0,61.212,39.9l-7.983,0a8,8,0,0,0-7.985,7.981v2.66l-34.595.008Zm53.212,45.2-13.306,0V47.88a2.665,2.665,0,0,1,2.662-2.66l7.983,0a2.662,2.662,0,0,1,2.661,2.659Zm5.211,22.606-53.01.012,1.9-6.65,49.208-.012ZM79.835,61.171l-74.512.018V55.87l74.512-.018Z" transform="translate(0 0)" fill="#3146bb"/>
            <path id="Path_758-3" data-name="Path 758" d="M15.968,17.285A7.986,7.986,0,0,0,5.325,9.766l0-7.107A2.661,2.661,0,0,0,0,2.66L0,22.608a2.664,2.664,0,0,0,4.543,1.879A8,8,0,0,0,15.968,17.285ZM7.985,14.627a2.66,2.66,0,1,1-2.662,2.66A2.662,2.662,0,0,1,7.985,14.627Z" transform="translate(34.602 9.318)" fill="#3146bb"/>
            <path id="Path_759-3" data-name="Path 759" d="M11.425.786a7.98,7.98,0,1,0,0,14.4A2.666,2.666,0,0,0,15.966,13.3l0-10.639A2.664,2.664,0,0,0,11.425.786Zm-3.442,9.86a2.66,2.66,0,1,1,2.662-2.66A2.662,2.662,0,0,1,7.983,10.646Z" transform="translate(14.645 18.623)" fill="#3146bb"/>
            <path id="Path_760-3" data-name="Path 760" d="M13.627,13.62A2.66,2.66,0,1,0,9.865,9.86a2.661,2.661,0,1,1,0-3.761A2.661,2.661,0,0,0,13.63,2.336a7.982,7.982,0,1,0,0,11.284Z" transform="translate(54.562 18.621)" fill="#3146bb"/>
          </g>
          <g id="_023-cubes_stack-3" data-name="023-cubes stack" transform="translate(1275.192 178.94) rotate(20)" opacity="0.07">
            <path id="Path_655-3" data-name="Path 655" d="M83.42,43.114l-13.438,0a8.581,8.581,0,0,0,.5-2.875l.007-31.621A8.631,8.631,0,0,0,61.858,0L30.22.007a8.641,8.641,0,0,0-8.631,8.626l-.007,31.621a8.577,8.577,0,0,0,.494,2.874l-13.438,0A8.641,8.641,0,0,0,.007,51.757L0,83.378A8.631,8.631,0,0,0,8.627,92l31.638-.007a8.6,8.6,0,0,0,5.753-2.2,8.592,8.592,0,0,0,5.752,2.2l31.638-.007a8.641,8.641,0,0,0,8.631-8.626l.007-31.621A8.631,8.631,0,0,0,83.42,43.114ZM27.334,40.252l.007-31.621a2.88,2.88,0,0,1,2.877-2.875l31.638-.007a2.877,2.877,0,0,1,2.876,2.874l-.007,31.621a2.88,2.88,0,0,1-2.877,2.875l-31.638.007A2.877,2.877,0,0,1,27.334,40.252ZM40.266,86.243,8.628,86.25a2.877,2.877,0,0,1-2.876-2.874L5.76,51.756a2.88,2.88,0,0,1,2.877-2.875l31.638-.007a2.877,2.877,0,0,1,2.876,2.874l-.007,31.621A2.88,2.88,0,0,1,40.266,86.243Zm46.02-2.885a2.88,2.88,0,0,1-2.877,2.875l-31.638.007A2.877,2.877,0,0,1,48.9,83.366L48.9,51.746a2.88,2.88,0,0,1,2.877-2.875l31.638-.007a2.877,2.877,0,0,1,2.876,2.874Z" transform="translate(0 0)" fill="#3146bb"/>
            <path id="Path_656-3" data-name="Path 656" d="M8.633,0H2.881a2.875,2.875,0,1,0,0,5.749H8.632a1.437,1.437,0,1,1,0,2.875H5.755a2.875,2.875,0,1,0,0,5.749H8.63a1.437,1.437,0,1,1,0,2.875H2.877a2.875,2.875,0,1,0,0,5.749H8.628a7.2,7.2,0,0,0,5.751-11.5A7.191,7.191,0,0,0,8.633,0Z" transform="translate(59.683 56.053)" fill="#3146bb"/>
            <path id="Path_657-3" data-name="Path 657" d="M15.822,7.9A7.91,7.91,0,0,0,0,7.907a2.876,2.876,0,0,0,5.752,0,2.157,2.157,0,0,1,4.314,0,4.117,4.117,0,0,1-1.722,3.343l-7.142,5.1A2.876,2.876,0,0,0,0,18.687v1.437A2.874,2.874,0,0,0,2.876,23l10.067,0a2.875,2.875,0,1,0,0-5.749h-3.1l1.852-1.322A9.88,9.88,0,0,0,15.822,7.9Z" transform="translate(16.54 56.063)" fill="#3146bb"/>
            <path id="Path_658-3" data-name="Path 658" d="M2.875,5.75l0,14.373a2.876,2.876,0,0,0,5.752,0l0-17.248A2.874,2.874,0,0,0,5.753,0H2.877a2.875,2.875,0,1,0,0,5.749Z" transform="translate(41.721 12.939)" fill="#3146bb"/>
          </g>
          <g id="_009-trophy-4" data-name="009-trophy" transform="translate(1027.463 276.673) rotate(20)" opacity="0.07">
            <path id="Path_647-4" data-name="Path 647" d="M74.613,7.848c-5.681,0-7.329,5.154-9,8.145.835-8.609,2.3-10.45,2.636-10.766A2.616,2.616,0,0,0,68.07,0L15.712.012a2.616,2.616,0,0,0-.183,5.227c.338.316,1.8,2.156,2.631,10.765-1.679-3.008-3.314-8.142-9-8.141C4.939,7.864,0,11.291,0,20.947c0,6.4,1.866,11.018,5.709,14.125,3.246,2.625,7.3,3.649,10.885,4.553,6.41,1.618,8.271,2.47,8.27,6.4a1.087,1.087,0,0,1-1.851.767,2.618,2.618,0,0,0-3.7,3.7,6.324,6.324,0,0,0,10.23-1.875,19.753,19.753,0,0,0,9.721,4.812l0,9.374-10.472,0a2.619,2.619,0,0,0-2.618,2.617l0,13.082H23.547a2.616,2.616,0,1,0,0,5.233l36.65-.009a2.616,2.616,0,1,0,0-5.233H57.58l0-13.082A2.616,2.616,0,0,0,54.966,62.8l-10.472,0,0-9.374a19.776,19.776,0,0,0,9.724-4.817,6.322,6.322,0,0,0,10.229,1.87,2.617,2.617,0,1,0-3.7-3.7,1.086,1.086,0,0,1-1.851-.766v-.225c0-3.749,2.145-4.625,8.273-6.175,3.581-.906,7.641-1.932,10.887-4.558,3.844-3.11,5.714-7.731,5.716-14.128,0-9.656-4.933-13.081-9.16-13.08ZM52.344,78.5,31.4,78.5l0-10.466,20.943,0ZM5.236,20.946c0-3.621,1.03-7.849,3.929-7.85,1.426,0,2.1.9,3.548,3.786,1.16,2.321,2.676,5.346,5.9,6.342a32.6,32.6,0,0,0,1.974,12.043c-7.76-2.212-15.358-2.458-15.355-14.32ZM41.88,48.41c-9.662,0-17.74-13.033-17.954-22.753-.122-5.547-.563-15.19-2.515-20.413l40.959-.01c-1.955,5.224-2.4,14.867-2.525,20.414C59.626,35.351,51.552,48.407,41.88,48.41ZM63.174,35.256c1.982-5.388,1.855-8.649,1.98-12.044,5.9-1.823,5.891-10.131,9.457-10.132,2.9,0,3.926,4.227,3.925,7.848C78.534,32.757,71,33.023,63.174,35.256Z" transform="translate(0 0)" fill="#3146bb"/>
          </g>
          <g id="_018-chemistry-5" data-name="018-chemistry" transform="translate(1347.858 300.192) rotate(20)" opacity="0.07">
            <path id="Path_761-5" data-name="Path 761" d="M69.473,65.468l-23.3-27.947.008-32.394a2.563,2.563,0,1,0,0-5.127L25.664,0a2.563,2.563,0,1,0,0,5.127l-.008,32.394L2.342,65.484a10.1,10.1,0,0,0,7.753,16.549l51.618-.012A10.108,10.108,0,0,0,69.473,65.468ZM30.19,40.094a2.563,2.563,0,0,0,.595-1.641L30.792,5.13l10.259,0v5.127H39.767a2.563,2.563,0,1,0,0,5.127h1.282v5.127H39.765a2.563,2.563,0,1,0,0,5.127h1.282V30.76H39.763a2.563,2.563,0,1,0,0,5.127h1.282V38.45a2.561,2.561,0,0,0,.594,1.641l5.437,6.521a19.1,19.1,0,0,0-12.435,2.431c-2.321,1.326-6.316,2.431-12.648.883Zm31.525,36.8L10.1,76.906a4.969,4.969,0,0,1-3.814-8.142L18.387,54.247c6.192,1.974,13.151,2.47,18.8-.755,6.891-3.937,12.569-.851,15.707.095L65.532,68.751A4.973,4.973,0,0,1,61.714,76.894Z" transform="translate(0 0)" fill="#3146bb"/>
          </g>
          <g id="_015-school_supplies-2" data-name="015-school supplies" transform="translate(1562.121 243.43) rotate(20)" opacity="0.07">
            <path id="Path_648-2" data-name="Path 648" d="M84.272.5,1.182,58.644a2.769,2.769,0,0,0,1.587,5.035l83.076-.02a2.77,2.77,0,0,0,2.77-2.768l.014-58.12A2.77,2.77,0,0,0,84.272.5Zm-1.195,57.62H77.539V56.742a2.769,2.769,0,0,0-5.538,0v1.384H66.462V56.745a2.769,2.769,0,0,0-5.538,0V58.13H55.385V56.747a2.769,2.769,0,0,0-5.538,0v1.384H44.308V56.75a2.769,2.769,0,0,0-5.538,0v1.384H33.231V56.753a2.769,2.769,0,0,0-5.538,0v1.384l-16.138,0L83.089,8.088Z" transform="translate(0 0)" fill="#3146bb"/>
            <path id="Path_649-2" data-name="Path 649" d="M2.769,23.25l25.305-.006a2.77,2.77,0,0,0,2.77-2.768l0-17.7A2.77,2.77,0,0,0,26.492.505L1.182,18.215A2.769,2.769,0,0,0,2.769,23.25ZM25.309,8.089l0,9.621-13.751,0Z" transform="translate(43.928 26.58)" fill="#3146bb"/>
            <path id="Path_650-2" data-name="Path 650" d="M.005,2.772,0,24.913a8.31,8.31,0,0,0,8.306,8.3h5.538a8.319,8.319,0,0,0,8.31-8.3l.005-22.141A2.767,2.767,0,0,0,19.39,0L2.775,0A2.77,2.77,0,0,0,.005,2.772Zm13.84,24.906H8.307a2.77,2.77,0,0,1-2.769-2.767V22.144l11.077,0v2.768A2.773,2.773,0,0,1,13.845,27.678ZM16.62,5.536l0,11.071-11.077,0,0-11.071Z" transform="translate(0.009 0.019)" fill="#3146bb"/>
            <path id="Path_651-2" data-name="Path 651" d="M80.3,16.606l-67.845.016a2.769,2.769,0,0,1-1.358-.355L1.411,10.82A2.767,2.767,0,0,1,1.38,6.014L11.073.39a2.771,2.771,0,0,1,1.39-.374L80.309,0a2.767,2.767,0,0,1,2.769,2.767l0,11.071A2.77,2.77,0,0,1,80.3,16.606ZM13.186,11.086l64.351-.015V5.536l-64.331.015L8.351,8.369Z" transform="translate(1.38 71.963)" fill="#3146bb"/>
          </g>
          <g id="_022-table_lamp-2" data-name="022-table lamp" transform="translate(1453.872 281.647) rotate(20)" opacity="0.07">
            <path id="Path_654-2" data-name="Path 654" d="M70.619,78.2l0-7.607a3,3,0,0,0-3-3H64.611l.006-24.032A32.352,32.352,0,0,0,48.754,15.762a11.31,11.31,0,0,0-18.4-12.444L26.814,6.854a22.028,22.028,0,0,0-20.872,5.76l-5.016,4.8A3,3,0,0,0,.88,21.712l5.753,5.75A12.012,12.012,0,1,0,23.624,44.443l4.116,4.114a3.007,3.007,0,0,0,4.2.044c6.776-6.49,4.671-4.458,5.085-4.871a22,22,0,0,0,5.787-20.884l2.264-2.262A26.328,26.328,0,0,1,58.605,43.556L58.6,67.588H55.594a3.007,3.007,0,0,0-3.006,3l0,7.51H46.574V76.6a3.006,3.006,0,0,0-6.011,0v1.5h-1.5A12.04,12.04,0,0,0,27.035,90.125v3a3,3,0,0,0,3,3l48.091-.011a3.007,3.007,0,0,0,3.006-3v-3A12.027,12.027,0,0,0,70.619,78.2Zm-55.6-36.132a6.011,6.011,0,0,1-4.14-10.355L19.373,40.2A6.029,6.029,0,0,1,15.023,42.064Zm17.778-2.6-2.89,2.768L7.3,19.632c3.02-2.892,2.833-2.713,2.867-2.747A15.984,15.984,0,0,1,32.8,39.461Zm.025-30.122L34.6,7.565a5.3,5.3,0,0,1,8.652,5.777c-.535,1.29-1.256,1.828-2.925,3.5A22.015,22.015,0,0,0,32.827,9.339ZM58.6,73.6h6.011V78.1H58.6ZM33.046,90.124a6.02,6.02,0,0,1,6.013-6.009l30.057-.007a6.013,6.013,0,0,1,6.01,6.007Z" transform="translate(0 0)" fill="#3146bb"/>
          </g>
          <g id="_014-basketball-2" data-name="014-basketball" transform="translate(1673.34 297.566)" opacity="0.07">
            <path id="Path_661-2" data-name="Path 661" d="M67.876,11.637h0a39.782,39.782,0,0,0-56.231,0A39.732,39.732,0,0,0,39.761,79.464,39.726,39.726,0,0,0,67.876,11.637Zm-3.514,3.512a34.548,34.548,0,0,1,8.976,15.508,27.168,27.168,0,0,0-7.28-4.776c-6.7-2.834-12.037-2.431-16.741-2.076-4.383.331-7.746.584-11.29-1.915a61.59,61.59,0,0,1,23.1-9.6,34.965,34.965,0,0,1,3.239,2.859ZM39.285,74.475c-4.074-3.089-7.342-6.938-8.809-10.4C28.11,58.484,28.45,54,28.778,49.655c.385-5.089.781-10.336-3.787-15.783q1.2-1.475,2.506-2.883L62.541,66.007A34.716,34.716,0,0,1,39.285,74.475ZM5.3,44.369c2.4-5.968,5.837-10.08,9.047-10.787a5.125,5.125,0,0,1,3.983.861A66.48,66.48,0,0,0,8.577,55.153,34.7,34.7,0,0,1,5.3,44.369Zm7.977-15.637c-2.8.616-5.477,2.5-7.836,5.408a34.551,34.551,0,0,1,8.029-17.171L23.98,27.474q-1.365,1.47-2.636,3.014a10.111,10.111,0,0,0-8.07-1.756Zm3.707-15.275A34.6,34.6,0,0,1,34.168,5.433c-2.927,2.367-4.813,5.056-5.422,7.859a10.1,10.1,0,0,0,1.764,8.035q-1.542,1.268-3.016,2.635Zm16.622.891c.7-3.2,4.823-6.653,10.8-9.054a34.763,34.763,0,0,1,10.79,3.278,66.563,66.563,0,0,0-20.726,9.742A5.118,5.118,0,0,1,33.6,14.347ZM12.3,61.078A61.505,61.505,0,0,1,21.905,38c2.5,3.541,2.248,6.9,1.917,11.281-.356,4.7-.759,10.029,2.078,16.729a27.137,27.137,0,0,0,4.778,7.274,34.585,34.585,0,0,1-15.518-8.97A34.942,34.942,0,0,1,12.3,61.078ZM66.055,62.5,31.011,27.477q1.408-1.3,2.886-2.5c5.451,4.565,10.7,4.169,15.795,3.784,4.344-.328,8.835-.667,14.43,1.7,3.463,1.464,7.316,4.731,10.408,8.8A34.66,34.66,0,0,1,66.055,62.5Z" transform="translate(0)" fill="#3146bb"/>
          </g>
          <g id="_020-atom-3" data-name="020-atom" transform="translate(2211.327 -129.32) rotate(20)" opacity="0.07">
            <path id="Path_652-3" data-name="Path 652" d="M11.9,0A11.887,11.887,0,1,0,23.787,11.884,11.91,11.91,0,0,0,11.9,0Zm0,17.83a5.943,5.943,0,1,1,5.948-5.945A5.948,5.948,0,0,1,11.892,17.83Z" transform="translate(30.918 35.711)" fill="#3146bb"/>
            <path id="Path_653-3" data-name="Path 653" d="M77.653,47.59c15.734-19.1,7.192-34.259-17.414-30.153C51.563-5.724,34.153-5.9,25.4,17.445.986,13.383-7.881,28.362,7.97,47.606-8.083,67.092,1.321,81.774,25.384,77.759c8.649,23.09,26.078,23.361,34.842-.008C84.637,81.813,93.5,66.834,77.653,47.59Zm1.214-20.8c2.029,3.513.1,9.591-5.262,16.346a84.785,84.785,0,0,0-9.229-7.982,84.735,84.735,0,0,0-2.3-11.987C67.443,22.365,76.157,22.095,78.867,26.787ZM57.651,64.664c-.407,2.174-.886,4.233-1.426,6.164-1.976-.508-4-1.126-6.05-1.85C52.713,67.647,55.17,66.233,57.651,64.664Zm-14.844,1.32A100.675,100.675,0,0,1,26.876,56.8a100.752,100.752,0,0,1,0-18.388,100.785,100.785,0,0,1,15.936-9.2A100.673,100.673,0,0,1,58.747,38.4a100.752,100.752,0,0,1,0,18.388A100.784,100.784,0,0,1,42.807,65.985Zm-7.37,3c-2.052.724-4.074,1.344-6.051,1.852q-.808-2.9-1.423-6.164C30.386,66.2,32.839,67.62,35.437,68.983ZM20.6,51.916c-1.679-1.438-3.223-2.88-4.626-4.311,1.4-1.432,2.948-2.875,4.628-4.313C20.482,46.186,20.481,49.02,20.6,51.916Zm7.375-21.384c.407-2.174.886-4.233,1.426-6.164,1.976.508,4,1.126,6.05,1.85-2.538,1.332-4.994,2.746-7.475,4.315Zm22.213-4.318c2.052-.724,4.074-1.344,6.051-1.852.539,1.931,1.017,3.99,1.423,6.164-2.422-1.531-4.875-2.949-7.473-4.311ZM65.025,43.28c1.679,1.438,3.223,2.88,4.626,4.311-1.4,1.432-2.948,2.875-4.628,4.313.118-2.9.118-5.729,0-8.625ZM42.821,5.994c4.059,0,8.36,4.706,11.531,12.721a84.89,84.89,0,0,0-11.535,4A84.825,84.825,0,0,0,31.284,18.72C34.459,10.7,38.762,5.995,42.821,5.994ZM6.766,26.8c2.71-4.691,11.412-4.43,16.794-3.631a84.778,84.778,0,0,0-2.308,11.988,84.9,84.9,0,0,0-9.232,7.986C6.662,36.4,4.735,30.318,6.766,26.8Zm-.01,41.6c-2.029-3.513-.1-9.591,5.262-16.346a84.786,84.786,0,0,0,9.229,7.982,84.708,84.708,0,0,0,2.3,11.987C18.169,72.833,9.46,73.092,6.756,68.409ZM42.8,89.2c-4.059,0-8.36-4.706-11.531-12.721a84.892,84.892,0,0,0,11.535-4,84.836,84.836,0,0,0,11.533,3.994C51.164,84.493,46.861,89.2,42.8,89.2ZM78.857,68.392c-2.709,4.689-11.408,4.43-16.794,3.631A84.751,84.751,0,0,0,64.37,60.035,84.9,84.9,0,0,0,73.6,52.048C78.961,58.8,80.888,64.878,78.857,68.392Z" transform="translate(0 0)" fill="#3146bb"/>
          </g>
          <g id="_007-geometry-3" data-name="007-geometry" transform="translate(1403.514 170.935) rotate(20)" opacity="0.07">
            <path id="Path_662-3" data-name="Path 662" d="M79.122,16.049A2.469,2.469,0,0,0,77.7,13.814C77.437,13.691,35.354.11,35.311.1a2.463,2.463,0,0,0-1.573.066C-.707,13.409,1.45,12.556,1.128,12.767a2.478,2.478,0,0,0-1.049,1.5C-.038,14.754.008,63.2.012,63.243A2.478,2.478,0,0,0,1.1,65.066c.409.274-2.068-.569,42.635,13.876a2.482,2.482,0,0,0,.961.111c.538-.044-1.4.647,32.829-12.518a2.489,2.489,0,0,0,1.355-1.269c.35-.756.229,2.491.242-49.218ZM9.894,14.629,34.7,5.09,69.24,16.252l-24.8,9.539ZM46.98,30.107l27.2-10.46-.01,42.886-27.2,10.46ZM4.945,61.214l.01-42.987,27.238,8.8a2.47,2.47,0,0,0,4.117,1.33l5.725,1.85,0,20.9a2.47,2.47,0,0,0,0,4.525l0,17.565Z" transform="translate(0 0)" fill="#3146bb"/>
            <path id="Path_663-3" data-name="Path 663" d="M3.233.12A2.471,2.471,0,1,0,4.824,3.232,2.473,2.473,0,0,0,3.233.12Z" transform="translate(57.356 56.327)" fill="#3146bb"/>
            <path id="Path_664-3" data-name="Path 664" d="M3.233.12A2.471,2.471,0,1,0,4.824,3.23,2.473,2.473,0,0,0,3.233.12Z" transform="translate(48.951 53.611)" fill="#3146bb"/>
            <path id="Path_665-3" data-name="Path 665" d="M3.235.12A2.471,2.471,0,1,0,4.824,3.23,2.474,2.474,0,0,0,3.235.12Z" transform="translate(65.761 59.043)" fill="#3146bb"/>
            <ellipse id="Ellipse_161-3" data-name="Ellipse 161" cx="2.472" cy="2.47" rx="2.472" ry="2.47" transform="translate(32.144 40.15)" fill="#3146bb"/>
            <ellipse id="Ellipse_162-3" data-name="Ellipse 162" cx="2.472" cy="2.47" rx="2.472" ry="2.47" transform="translate(32.146 32.12)" fill="#3146bb"/>
            <ellipse id="Ellipse_163-3" data-name="Ellipse 163" cx="2.472" cy="2.47" rx="2.472" ry="2.47" transform="translate(32.15 16.06)" fill="#3146bb"/>
            <ellipse id="Ellipse_164-3" data-name="Ellipse 164" cx="2.472" cy="2.47" rx="2.472" ry="2.47" transform="translate(32.152 8.03)" fill="#3146bb"/>
            <path id="Path_666-3" data-name="Path 666" d="M1.586.166A2.471,2.471,0,1,0,4.78,1.585,2.469,2.469,0,0,0,1.586.166Z" transform="translate(16.071 54.36)" fill="#3146bb"/>
            <path id="Path_667-3" data-name="Path 667" d="M1.586.166A2.471,2.471,0,1,0,4.78,1.585,2.469,2.469,0,0,0,1.586.166Z" transform="translate(8.035 57.45)" fill="#3146bb"/>
            <path id="Path_668-3" data-name="Path 668" d="M1.586.166A2.471,2.471,0,1,0,4.78,1.585,2.469,2.469,0,0,0,1.586.166Z" transform="translate(24.106 51.269)" fill="#3146bb"/>
            <path id="Path_669-3" data-name="Path 669" d="M4.895,1.985A2.472,2.472,0,1,0,3.188,4.831,2.468,2.468,0,0,0,4.895,1.985Z" transform="translate(32.144 48.181)" fill="#3146bb"/>
          </g>
          <g id="_023-cubes_stack-4" data-name="023-cubes stack" transform="translate(2123.631 137.727) rotate(20)" opacity="0.07">
            <path id="Path_655-4" data-name="Path 655" d="M83.42,43.114l-13.438,0a8.581,8.581,0,0,0,.5-2.875l.007-31.621A8.631,8.631,0,0,0,61.858,0L30.22.007a8.641,8.641,0,0,0-8.631,8.626l-.007,31.621a8.577,8.577,0,0,0,.494,2.874l-13.438,0A8.641,8.641,0,0,0,.007,51.757L0,83.378A8.631,8.631,0,0,0,8.627,92l31.638-.007a8.6,8.6,0,0,0,5.753-2.2,8.592,8.592,0,0,0,5.752,2.2l31.638-.007a8.641,8.641,0,0,0,8.631-8.626l.007-31.621A8.631,8.631,0,0,0,83.42,43.114ZM27.334,40.252l.007-31.621a2.88,2.88,0,0,1,2.877-2.875l31.638-.007a2.877,2.877,0,0,1,2.876,2.874l-.007,31.621a2.88,2.88,0,0,1-2.877,2.875l-31.638.007A2.877,2.877,0,0,1,27.334,40.252ZM40.266,86.243,8.628,86.25a2.877,2.877,0,0,1-2.876-2.874L5.76,51.756a2.88,2.88,0,0,1,2.877-2.875l31.638-.007a2.877,2.877,0,0,1,2.876,2.874l-.007,31.621A2.88,2.88,0,0,1,40.266,86.243Zm46.02-2.885a2.88,2.88,0,0,1-2.877,2.875l-31.638.007A2.877,2.877,0,0,1,48.9,83.366L48.9,51.746a2.88,2.88,0,0,1,2.877-2.875l31.638-.007a2.877,2.877,0,0,1,2.876,2.874Z" transform="translate(0 0)" fill="#3146bb"/>
            <path id="Path_656-4" data-name="Path 656" d="M8.633,0H2.881a2.875,2.875,0,1,0,0,5.749H8.632a1.437,1.437,0,1,1,0,2.875H5.755a2.875,2.875,0,1,0,0,5.749H8.63a1.437,1.437,0,1,1,0,2.875H2.877a2.875,2.875,0,1,0,0,5.749H8.628a7.2,7.2,0,0,0,5.751-11.5A7.191,7.191,0,0,0,8.633,0Z" transform="translate(59.683 56.053)" fill="#3146bb"/>
            <path id="Path_657-4" data-name="Path 657" d="M15.822,7.9A7.91,7.91,0,0,0,0,7.907a2.876,2.876,0,0,0,5.752,0,2.157,2.157,0,0,1,4.314,0,4.117,4.117,0,0,1-1.722,3.343l-7.142,5.1A2.876,2.876,0,0,0,0,18.687v1.437A2.874,2.874,0,0,0,2.876,23l10.067,0a2.875,2.875,0,1,0,0-5.749h-3.1l1.852-1.322A9.88,9.88,0,0,0,15.822,7.9Z" transform="translate(16.54 56.063)" fill="#3146bb"/>
            <path id="Path_658-4" data-name="Path 658" d="M2.875,5.75l0,14.373a2.876,2.876,0,0,0,5.752,0l0-17.248A2.874,2.874,0,0,0,5.753,0H2.877a2.875,2.875,0,1,0,0,5.749Z" transform="translate(41.721 12.939)" fill="#3146bb"/>
          </g>
          <g id="_003-backpack-3" data-name="003-backpack" transform="translate(1865.5 -69.961) rotate(20)" opacity="0.07">
            <path id="Path_642-3" data-name="Path 642" d="M94.244,51.64l-9.12,0V47.084a36.495,36.495,0,0,0-22.8-33.8,13.676,13.676,0,0,0-27.34.006A36.537,36.537,0,0,0,12.166,47.1v4.557l-9.12,0A3.041,3.041,0,0,0,0,54.7L0,74.449a15.209,15.209,0,0,0,12.241,14.9,9.125,9.125,0,0,0,9.033,7.884l54.719-.013A9.136,9.136,0,0,0,85.03,89.33a15.226,15.226,0,0,0,12.248-14.9l0-19.749A3.037,3.037,0,0,0,94.244,51.64ZM48.656,6.077a7.608,7.608,0,0,1,7.236,5.277,36.638,36.638,0,0,0-14.474,0A7.617,7.617,0,0,1,48.656,6.077ZM6.08,74.447l0-16.71h6.08l-.006,25.3A9.125,9.125,0,0,1,6.08,74.447ZM79.036,88.1A3.044,3.044,0,0,1,76,91.141l-54.719.013a3.041,3.041,0,0,1-3.039-3.038c0-2.16.009-39.485.01-41.017a30.4,30.4,0,0,1,60.8-.014ZM91.2,74.427a9.136,9.136,0,0,1-6.082,8.6l.006-25.3H91.2Z" transform="translate(0 0)" fill="#3146bb"/>
            <path id="Path_643-3" data-name="Path 643" d="M25.846,0A25.876,25.876,0,0,0,0,25.831a3.04,3.04,0,0,0,6.08,0,19.76,19.76,0,0,1,39.52-.009,3.04,3.04,0,0,0,6.08,0A25.847,25.847,0,0,0,25.846,0Z" transform="translate(22.806 21.268)" fill="#3146bb"/>
            <path id="Path_644-3" data-name="Path 644" d="M39.524,0,9.125.007A9.133,9.133,0,0,0,0,9.124L0,19.758a9.123,9.123,0,0,0,9.118,9.113l30.4-.007a9.133,9.133,0,0,0,9.122-9.117l0-10.634A9.123,9.123,0,0,0,39.524,0ZM42.56,19.748a3.044,3.044,0,0,1-3.041,3.039l-30.4.007A3.041,3.041,0,0,1,6.08,19.757l0-10.634A3.044,3.044,0,0,1,9.123,6.084l30.4-.007a3.041,3.041,0,0,1,3.039,3.038Z" transform="translate(24.319 57.723)" fill="#3146bb"/>
          </g>
          <g id="_022-table_lamp-3" data-name="022-table lamp" transform="translate(1999.817 -64.568) rotate(20)" opacity="0.07">
            <path id="Path_654-3" data-name="Path 654" d="M70.619,78.2l0-7.607a3,3,0,0,0-3-3H64.611l.006-24.032A32.352,32.352,0,0,0,48.754,15.762a11.31,11.31,0,0,0-18.4-12.444L26.814,6.854a22.028,22.028,0,0,0-20.872,5.76l-5.016,4.8A3,3,0,0,0,.88,21.712l5.753,5.75A12.012,12.012,0,1,0,23.624,44.443l4.116,4.114a3.007,3.007,0,0,0,4.2.044c6.776-6.49,4.671-4.458,5.085-4.871a22,22,0,0,0,5.787-20.884l2.264-2.262A26.328,26.328,0,0,1,58.605,43.556L58.6,67.588H55.594a3.007,3.007,0,0,0-3.006,3l0,7.51H46.574V76.6a3.006,3.006,0,0,0-6.011,0v1.5h-1.5A12.04,12.04,0,0,0,27.035,90.125v3a3,3,0,0,0,3,3l48.091-.011a3.007,3.007,0,0,0,3.006-3v-3A12.027,12.027,0,0,0,70.619,78.2Zm-55.6-36.132a6.011,6.011,0,0,1-4.14-10.355L19.373,40.2A6.029,6.029,0,0,1,15.023,42.064Zm17.778-2.6-2.89,2.768L7.3,19.632c3.02-2.892,2.833-2.713,2.867-2.747A15.984,15.984,0,0,1,32.8,39.461Zm.025-30.122L34.6,7.565a5.3,5.3,0,0,1,8.652,5.777c-.535,1.29-1.256,1.828-2.925,3.5A22.015,22.015,0,0,0,32.827,9.339ZM58.6,73.6h6.011V78.1H58.6ZM33.046,90.124a6.02,6.02,0,0,1,6.013-6.009l30.057-.007a6.013,6.013,0,0,1,6.01,6.007Z" transform="translate(0 0)" fill="#3146bb"/>
          </g>
          <g id="_017-presentation-2" data-name="017-presentation" transform="translate(1295.859 -92.713) rotate(20)" opacity="0.07">
            <path id="Path_762-2" data-name="Path 762" d="M84.69,16.38a2.732,2.732,0,0,0,2.732-2.731l0-10.92A2.729,2.729,0,0,0,84.694,0L2.748.019A2.732,2.732,0,0,0,.015,2.75l0,10.92A2.729,2.729,0,0,0,2.744,16.4H4.11L4.1,65.54H2.732a2.73,2.73,0,1,0,0,5.46l38.242-.009,0,9.236a4.094,4.094,0,1,0,5.463,0l0-9.236,38.242-.009a2.73,2.73,0,1,0,0-5.46H83.313l.012-49.14ZM5.478,5.479l76.484-.018v5.46l-76.484.018ZM77.85,65.522l-68.289.016L9.573,16.4l68.289-.016Z" transform="translate(0 0)" fill="#3146bb"/>
            <path id="Path_763-2" data-name="Path 763" d="M1.642,15.381l7.719,3.342,0,8.972c0,3.119,1.959,5.925,5.518,7.9,10.213,5.669,28.039,1.759,28.041-7.908l0-8.972,7.721-3.345a2.732,2.732,0,0,0,0-5.01L27.231.225a2.733,2.733,0,0,0-2.172,0L1.643,10.371a2.732,2.732,0,0,0,0,5.01ZM37.455,27.687c0,2.067-4.41,5.071-11.318,5.073s-11.316-3-11.315-5.067l0-6.606,10.229,4.428a2.733,2.733,0,0,0,2.172,0l10.231-4.433ZM26.143,5.705l16.542,7.161L26.14,20.035,9.6,12.874Z" transform="translate(17.571 21.85)" fill="#3146bb"/>
          </g>
          <g id="_014-basketball-3" data-name="014-basketball" transform="translate(1607.716 -104.3)" opacity="0.07">
            <path id="Path_661-3" data-name="Path 661" d="M67.876,11.637h0a39.782,39.782,0,0,0-56.231,0A39.732,39.732,0,0,0,39.761,79.464,39.726,39.726,0,0,0,67.876,11.637Zm-3.514,3.512a34.548,34.548,0,0,1,8.976,15.508,27.168,27.168,0,0,0-7.28-4.776c-6.7-2.834-12.037-2.431-16.741-2.076-4.383.331-7.746.584-11.29-1.915a61.59,61.59,0,0,1,23.1-9.6,34.965,34.965,0,0,1,3.239,2.859ZM39.285,74.475c-4.074-3.089-7.342-6.938-8.809-10.4C28.11,58.484,28.45,54,28.778,49.655c.385-5.089.781-10.336-3.787-15.783q1.2-1.475,2.506-2.883L62.541,66.007A34.716,34.716,0,0,1,39.285,74.475ZM5.3,44.369c2.4-5.968,5.837-10.08,9.047-10.787a5.125,5.125,0,0,1,3.983.861A66.48,66.48,0,0,0,8.577,55.153,34.7,34.7,0,0,1,5.3,44.369Zm7.977-15.637c-2.8.616-5.477,2.5-7.836,5.408a34.551,34.551,0,0,1,8.029-17.171L23.98,27.474q-1.365,1.47-2.636,3.014a10.111,10.111,0,0,0-8.07-1.756Zm3.707-15.275A34.6,34.6,0,0,1,34.168,5.433c-2.927,2.367-4.813,5.056-5.422,7.859a10.1,10.1,0,0,0,1.764,8.035q-1.542,1.268-3.016,2.635Zm16.622.891c.7-3.2,4.823-6.653,10.8-9.054a34.763,34.763,0,0,1,10.79,3.278,66.563,66.563,0,0,0-20.726,9.742A5.118,5.118,0,0,1,33.6,14.347ZM12.3,61.078A61.505,61.505,0,0,1,21.905,38c2.5,3.541,2.248,6.9,1.917,11.281-.356,4.7-.759,10.029,2.078,16.729a27.137,27.137,0,0,0,4.778,7.274,34.585,34.585,0,0,1-15.518-8.97A34.942,34.942,0,0,1,12.3,61.078ZM66.055,62.5,31.011,27.477q1.408-1.3,2.886-2.5c5.451,4.565,10.7,4.169,15.795,3.784,4.344-.328,8.835-.667,14.43,1.7,3.463,1.464,7.316,4.731,10.408,8.8A34.66,34.66,0,0,1,66.055,62.5Z" transform="translate(0)" fill="#3146bb"/>
          </g>
          <g id="_005-whiteboard-4" data-name="005-whiteboard" transform="translate(2303.367 -42.427) rotate(20)" opacity="0.07">
            <path id="Path_757-4" data-name="Path 757" d="M82.5,50.532H79.837l.011-47.874A2.659,2.659,0,0,0,77.188,0L8,.016a2.662,2.662,0,0,0-2.662,2.66L5.325,50.55H2.664A2.662,2.662,0,0,0,0,53.211L0,63.85a2.659,2.659,0,0,0,2.661,2.659l9.778,0L8.082,81.735a2.661,2.661,0,0,0,5.117,1.46l1.35-4.72L70.6,78.461l1.348,4.72a2.661,2.661,0,0,0,5.118-1.463L72.717,66.492l9.778,0a2.662,2.662,0,0,0,2.662-2.66l0-10.639A2.659,2.659,0,0,0,82.5,50.532Zm-71.84-45.2L74.526,5.32l-.011,45.214H69.193v-2.66A7.986,7.986,0,0,0,61.212,39.9l-7.983,0a8,8,0,0,0-7.985,7.981v2.66l-34.595.008Zm53.212,45.2-13.306,0V47.88a2.665,2.665,0,0,1,2.662-2.66l7.983,0a2.662,2.662,0,0,1,2.661,2.659Zm5.211,22.606-53.01.012,1.9-6.65,49.208-.012ZM79.835,61.171l-74.512.018V55.87l74.512-.018Z" transform="translate(0 0)" fill="#3146bb"/>
            <path id="Path_758-4" data-name="Path 758" d="M15.968,17.285A7.986,7.986,0,0,0,5.325,9.766l0-7.107A2.661,2.661,0,0,0,0,2.66L0,22.608a2.664,2.664,0,0,0,4.543,1.879A8,8,0,0,0,15.968,17.285ZM7.985,14.627a2.66,2.66,0,1,1-2.662,2.66A2.662,2.662,0,0,1,7.985,14.627Z" transform="translate(34.602 9.318)" fill="#3146bb"/>
            <path id="Path_759-4" data-name="Path 759" d="M11.425.786a7.98,7.98,0,1,0,0,14.4A2.666,2.666,0,0,0,15.966,13.3l0-10.639A2.664,2.664,0,0,0,11.425.786Zm-3.442,9.86a2.66,2.66,0,1,1,2.662-2.66A2.662,2.662,0,0,1,7.983,10.646Z" transform="translate(14.645 18.623)" fill="#3146bb"/>
            <path id="Path_760-4" data-name="Path 760" d="M13.627,13.62A2.66,2.66,0,1,0,9.865,9.86a2.661,2.661,0,1,1,0-3.761A2.661,2.661,0,0,0,13.63,2.336a7.982,7.982,0,1,0,0,11.284Z" transform="translate(54.562 18.621)" fill="#3146bb"/>
          </g>
        </g>
      </g>
    </g>
    <path id="Path_413" data-name="Path 413" d="M0,0H1366V453.7H0Z" transform="translate(944.206 81.543)" fill="url(#linear-gradient)"/>
  </g>
</svg>
