<svg xmlns="http://www.w3.org/2000/svg" width="32" height="32" viewBox="0 0 32 32">
  <path id="btn-whatsapp-icon" d="M16,38.486A9.413,9.413,0,0,0,8.021,52.907l.221.357-.95,3.471,3.564-.936.343.207a9.389,9.389,0,0,0,4.793,1.314H16A9.342,9.342,0,0,0,22.657,41.25,9.342,9.342,0,0,0,16,38.486Zm5.536,13.457a2.887,2.887,0,0,1-1.907,1.343c-.9.136-1.6.064-3.393-.707A12.715,12.715,0,0,1,11.4,48.307a5.484,5.484,0,0,1-1.157-2.929,3.17,3.17,0,0,1,.993-2.364,1.031,1.031,0,0,1,.757-.357c.186,0,.379,0,.543.007s.407-.064.636.486.8,1.957.871,2.1a.5.5,0,0,1,.021.493c-.543,1.086-1.121,1.043-.829,1.543a7.711,7.711,0,0,0,3.85,3.364c.286.143.45.121.614-.071s.707-.829.893-1.107.379-.236.636-.143,1.65.779,1.936.921.471.214.543.329A2.513,2.513,0,0,1,21.536,51.943ZM28.571,32H3.429A3.429,3.429,0,0,0,0,35.429V60.571A3.429,3.429,0,0,0,3.429,64H28.571A3.429,3.429,0,0,0,32,60.571V35.429A3.429,3.429,0,0,0,28.571,32ZM15.993,59.229a11.317,11.317,0,0,1-5.414-1.379L4.571,59.429l1.607-5.871a11.348,11.348,0,1,1,21.25-5.65A11.432,11.432,0,0,1,15.993,59.229Z" transform="translate(0 -32)" fill="#63ed7a"/>
</svg>
