<svg xmlns="http://www.w3.org/2000/svg" width="14" height="14" viewBox="0 0 14 14">
  <g id="check" transform="translate(-967 -632.5)">
    <circle id="Ellipse_41" data-name="Ellipse 41" cx="7" cy="7" r="7" transform="translate(967 632.5)" fill="#2680eb"/>
    <path id="Path_160" data-name="Path 160" d="M2.536,70.557.11,68.13a.373.373,0,0,1,0-.528l.528-.528a.373.373,0,0,1,.528,0L2.8,68.709l3.5-3.5a.373.373,0,0,1,.528,0l.528.528a.373.373,0,0,1,0,.528L3.064,70.557a.373.373,0,0,1-.528,0Z" transform="translate(970.267 571.602)" fill="#fff"/>
  </g>
</svg>
