<svg xmlns="http://www.w3.org/2000/svg" width="159" height="65" viewBox="0 0 159 65">
  <g id="element-2" transform="translate(-1093 -2449)">
    <circle id="Ellipse_881" data-name="Ellipse 881" cx="5.5" cy="5.5" r="5.5" transform="translate(1177 2476)" fill="#2680eb" opacity="0.5"/>
    <circle id="Ellipse_884" data-name="Ellipse 884" cx="5.5" cy="5.5" r="5.5" transform="translate(1198 2476)" fill="#2680eb" opacity="0.5"/>
    <circle id="Ellipse_887" data-name="Ellipse 887" cx="5.5" cy="5.5" r="5.5" transform="translate(1219 2476)" fill="#2680eb" opacity="0.5"/>
    <circle id="Ellipse_890" data-name="Ellipse 890" cx="5.5" cy="5.5" r="5.5" transform="translate(1241 2476)" fill="#2680eb" opacity="0.5"/>
    <circle id="Ellipse_882" data-name="Ellipse 882" cx="5.5" cy="5.5" r="5.5" transform="translate(1177 2503)" fill="#2680eb" opacity="0.5"/>
    <circle id="Ellipse_885" data-name="Ellipse 885" cx="5.5" cy="5.5" r="5.5" transform="translate(1198 2503)" fill="#2680eb" opacity="0.5"/>
    <circle id="Ellipse_888" data-name="Ellipse 888" cx="5.5" cy="5.5" r="5.5" transform="translate(1219 2503)" fill="#2680eb" opacity="0.5"/>
    <circle id="Ellipse_891" data-name="Ellipse 891" cx="5.5" cy="5.5" r="5.5" transform="translate(1241 2503)" fill="#2680eb" opacity="0.5"/>
    <circle id="Ellipse_869" data-name="Ellipse 869" cx="5.5" cy="5.5" r="5.5" transform="translate(1093 2476)" fill="#2680eb" opacity="0.5"/>
    <circle id="Ellipse_872" data-name="Ellipse 872" cx="5.5" cy="5.5" r="5.5" transform="translate(1114 2476)" fill="#2680eb" opacity="0.5"/>
    <circle id="Ellipse_875" data-name="Ellipse 875" cx="5.5" cy="5.5" r="5.5" transform="translate(1135 2476)" fill="#2680eb" opacity="0.5"/>
    <circle id="Ellipse_878" data-name="Ellipse 878" cx="5.5" cy="5.5" r="5.5" transform="translate(1156 2476)" fill="#2680eb" opacity="0.5"/>
    <circle id="Ellipse_870" data-name="Ellipse 870" cx="5.5" cy="5.5" r="5.5" transform="translate(1093 2503)" fill="#2680eb" opacity="0.5"/>
    <circle id="Ellipse_873" data-name="Ellipse 873" cx="5.5" cy="5.5" r="5.5" transform="translate(1114 2503)" fill="#2680eb" opacity="0.5"/>
    <circle id="Ellipse_876" data-name="Ellipse 876" cx="5.5" cy="5.5" r="5.5" transform="translate(1135 2503)" fill="#2680eb" opacity="0.5"/>
    <circle id="Ellipse_879" data-name="Ellipse 879" cx="5.5" cy="5.5" r="5.5" transform="translate(1156 2503)" fill="#2680eb" opacity="0.5"/>
    <circle id="Ellipse_883" data-name="Ellipse 883" cx="5.5" cy="5.5" r="5.5" transform="translate(1177 2449)" fill="#2680eb" opacity="0.5"/>
    <circle id="Ellipse_886" data-name="Ellipse 886" cx="5.5" cy="5.5" r="5.5" transform="translate(1198 2449)" fill="#2680eb" opacity="0.5"/>
    <circle id="Ellipse_889" data-name="Ellipse 889" cx="5.5" cy="5.5" r="5.5" transform="translate(1219 2449)" fill="#2680eb" opacity="0.5"/>
    <circle id="Ellipse_892" data-name="Ellipse 892" cx="5.5" cy="5.5" r="5.5" transform="translate(1241 2449)" fill="#2680eb" opacity="0.5"/>
    <circle id="Ellipse_871" data-name="Ellipse 871" cx="5.5" cy="5.5" r="5.5" transform="translate(1093 2449)" fill="#2680eb" opacity="0.5"/>
    <circle id="Ellipse_874" data-name="Ellipse 874" cx="5.5" cy="5.5" r="5.5" transform="translate(1114 2449)" fill="#2680eb" opacity="0.5"/>
    <circle id="Ellipse_877" data-name="Ellipse 877" cx="5.5" cy="5.5" r="5.5" transform="translate(1135 2449)" fill="#2680eb" opacity="0.5"/>
    <circle id="Ellipse_880" data-name="Ellipse 880" cx="5.5" cy="5.5" r="5.5" transform="translate(1156 2449)" fill="#2680eb" opacity="0.5"/>
  </g>
</svg>
