<svg xmlns="http://www.w3.org/2000/svg" width="74" height="92" viewBox="0 0 74 92">
  <g id="element-1" transform="translate(-157 -2045)">
    <circle id="Ellipse_857" data-name="Ellipse 857" cx="5.5" cy="5.5" r="5.5" transform="translate(157 2072)" fill="#2680eb" opacity="0.5"/>
    <circle id="Ellipse_858" data-name="Ellipse 858" cx="5.5" cy="5.5" r="5.5" transform="translate(178 2072)" fill="#2680eb" opacity="0.5"/>
    <circle id="Ellipse_859" data-name="Ellipse 859" cx="5.5" cy="5.5" r="5.5" transform="translate(199 2072)" fill="#2680eb" opacity="0.5"/>
    <circle id="Ellipse_860" data-name="Ellipse 860" cx="5.5" cy="5.5" r="5.5" transform="translate(220 2072)" fill="#2680eb" opacity="0.5"/>
    <circle id="Ellipse_861" data-name="Ellipse 861" cx="5.5" cy="5.5" r="5.5" transform="translate(157 2099)" fill="#2680eb" opacity="0.5"/>
    <circle id="Ellipse_862" data-name="Ellipse 862" cx="5.5" cy="5.5" r="5.5" transform="translate(178 2099)" fill="#2680eb" opacity="0.5"/>
    <circle id="Ellipse_863" data-name="Ellipse 863" cx="5.5" cy="5.5" r="5.5" transform="translate(199 2099)" fill="#2680eb" opacity="0.5"/>
    <circle id="Ellipse_864" data-name="Ellipse 864" cx="5.5" cy="5.5" r="5.5" transform="translate(220 2099)" fill="#2680eb" opacity="0.5"/>
    <circle id="Ellipse_853" data-name="Ellipse 853" cx="5.5" cy="5.5" r="5.5" transform="translate(157 2045)" fill="#2680eb" opacity="0.5"/>
    <circle id="Ellipse_854" data-name="Ellipse 854" cx="5.5" cy="5.5" r="5.5" transform="translate(178 2045)" fill="#2680eb" opacity="0.5"/>
    <circle id="Ellipse_855" data-name="Ellipse 855" cx="5.5" cy="5.5" r="5.5" transform="translate(199 2045)" fill="#2680eb" opacity="0.5"/>
    <circle id="Ellipse_856" data-name="Ellipse 856" cx="5.5" cy="5.5" r="5.5" transform="translate(220 2045)" fill="#2680eb" opacity="0.5"/>
    <circle id="Ellipse_865" data-name="Ellipse 865" cx="5.5" cy="5.5" r="5.5" transform="translate(157 2126)" fill="#2680eb" opacity="0.5"/>
    <circle id="Ellipse_866" data-name="Ellipse 866" cx="5.5" cy="5.5" r="5.5" transform="translate(178 2126)" fill="#2680eb" opacity="0.5"/>
    <circle id="Ellipse_867" data-name="Ellipse 867" cx="5.5" cy="5.5" r="5.5" transform="translate(199 2126)" fill="#2680eb" opacity="0.5"/>
    <circle id="Ellipse_868" data-name="Ellipse 868" cx="5.5" cy="5.5" r="5.5" transform="translate(220 2126)" fill="#2680eb" opacity="0.5"/>
  </g>
</svg>
