<svg xmlns="http://www.w3.org/2000/svg" xmlns:xlink="http://www.w3.org/1999/xlink" width="60" height="60" viewBox="0 0 60 60">
  <defs>
    <clipPath id="clip-path">
      <path id="Subtraction_83" data-name="Subtraction 83" d="M35.453,30.081H3.76A3.755,3.755,0,0,1,0,26.323V8.059A1.609,1.609,0,0,1,1.611,6.448H4.3V1.614A1.613,1.613,0,0,1,5.909,0H37.064a1.613,1.613,0,0,1,1.611,1.614V26.858a3.235,3.235,0,0,1-.253,1.257,3.27,3.27,0,0,1-.691,1.023,3.2,3.2,0,0,1-2.279.942ZM9.4,24.712a.806.806,0,0,0-.8.806v.535a.8.8,0,0,0,.8.806H33.707a.8.8,0,0,0,.806-.806v-.535a.806.806,0,0,0-.806-.806ZM3.223,9.67h0V26.323a.538.538,0,0,0,1.075,0V9.67ZM9.4,20.579a.8.8,0,0,0-.8.8v.547a.8.8,0,0,0,.8.8h24.31a.806.806,0,0,0,.8-.8v-.547a.806.806,0,0,0-.8-.8Zm13.969-8.154a.806.806,0,0,0-.806.806v4.634a.808.808,0,0,0,.806.806H33.573a.808.808,0,0,0,.806-.806V13.23a.806.806,0,0,0-.806-.806ZM9.4,16.519a.806.806,0,0,0-.8.806v.54a.808.808,0,0,0,.8.806H19.607a.808.808,0,0,0,.806-.806v-.54a.806.806,0,0,0-.806-.806Zm0-4.094a.806.806,0,0,0-.8.806v.535a.8.8,0,0,0,.8.806H19.607a.8.8,0,0,0,.806-.806V13.23a.806.806,0,0,0-.806-.806ZM9.4,4.3a.808.808,0,0,0-.8.806V7.791a.808.808,0,0,0,.8.806H33.573a.808.808,0,0,0,.806-.806V5.1a.808.808,0,0,0-.806-.806Z" fill="#2680eb"/>
    </clipPath>
  </defs>
  <g id="icon-menu-berita" transform="translate(-121 -492)">
    <circle id="Ellipse_302" data-name="Ellipse 302" cx="30" cy="30" r="30" transform="translate(121 492)" fill="#fff"/>
    <g id="Group_4592" data-name="Group 4592" transform="translate(131.662 506.961)">
      <path id="Subtraction_78" data-name="Subtraction 78" d="M35.453,30.081H3.76A3.755,3.755,0,0,1,0,26.323V8.059A1.609,1.609,0,0,1,1.611,6.448H4.3V1.614A1.613,1.613,0,0,1,5.909,0H37.064a1.613,1.613,0,0,1,1.611,1.614V26.858a3.235,3.235,0,0,1-.253,1.257,3.27,3.27,0,0,1-.691,1.023,3.2,3.2,0,0,1-2.279.942ZM9.4,24.712a.806.806,0,0,0-.8.806v.535a.8.8,0,0,0,.8.806H33.707a.8.8,0,0,0,.806-.806v-.535a.806.806,0,0,0-.806-.806ZM3.223,9.67h0V26.323a.538.538,0,0,0,1.075,0V9.67ZM9.4,20.579a.8.8,0,0,0-.8.8v.547a.8.8,0,0,0,.8.8h24.31a.806.806,0,0,0,.8-.8v-.547a.806.806,0,0,0-.8-.8Zm13.969-8.154a.806.806,0,0,0-.806.806v4.634a.808.808,0,0,0,.806.806H33.573a.808.808,0,0,0,.806-.806V13.23a.806.806,0,0,0-.806-.806ZM9.4,16.519a.806.806,0,0,0-.8.806v.54a.808.808,0,0,0,.8.806H19.607a.808.808,0,0,0,.806-.806v-.54a.806.806,0,0,0-.806-.806Zm0-4.094a.806.806,0,0,0-.8.806v.535a.8.8,0,0,0,.8.806H19.607a.8.8,0,0,0,.806-.806V13.23a.806.806,0,0,0-.806-.806ZM9.4,4.3a.808.808,0,0,0-.8.806V7.791a.808.808,0,0,0,.8.806H33.573a.808.808,0,0,0,.806-.806V5.1a.808.808,0,0,0-.806-.806Z" fill="#2680eb"/>
      <g id="Mask_Group_1557" data-name="Mask Group 1557" clip-path="url(#clip-path)">
        <ellipse id="Ellipse_761" data-name="Ellipse 761" cx="30.43" cy="30.429" rx="30.43" ry="30.429" transform="translate(-35.137 -25.625)" fill="#87beff" opacity="0.5"/>
      </g>
    </g>
  </g>
</svg>
