<svg xmlns="http://www.w3.org/2000/svg" xmlns:xlink="http://www.w3.org/1999/xlink" width="64" height="64" viewBox="0 0 64 64">
  <defs>
    <clipPath id="clip-path">
      <path id="Path_251" data-name="Path 251" d="M28.36,7.735a7.735,7.735,0,1,0-7.735,7.735A7.735,7.735,0,0,0,28.36,7.735ZM18.82,19.425C14.04,16.5,6.3,15.7,2.4,15.473A2.229,2.229,0,0,0,0,17.656V35.607a2.216,2.216,0,0,0,2.134,2.179c3.518.184,10.634.86,15.553,3.338a1.122,1.122,0,0,0,1.65-.956V20.349a1.072,1.072,0,0,0-.517-.923Zm20.03-3.952c-3.9.221-11.639,1.026-16.418,3.952a1.092,1.092,0,0,0-.516.937v19.8a1.125,1.125,0,0,0,1.655.959c4.918-2.475,12.03-3.151,15.547-3.336a2.217,2.217,0,0,0,2.134-2.18V17.656A2.23,2.23,0,0,0,38.85,15.473Z" transform="translate(0 0)" fill="#2680eb"/>
    </clipPath>
  </defs>
  <g id="icon-faq-role-siswa-active" transform="translate(-793 -2139)">
    <g id="icon-role-murid" transform="translate(793.225 2139)">
      <circle id="Ellipse_1" data-name="Ellipse 1" cx="32" cy="32" r="32" transform="translate(-0.225)" fill="#2680eb"/>
      <path id="Path_258" data-name="Path 258" d="M28.36,7.735a7.735,7.735,0,1,0-7.735,7.735A7.735,7.735,0,0,0,28.36,7.735ZM18.82,19.425C14.04,16.5,6.3,15.7,2.4,15.473A2.229,2.229,0,0,0,0,17.656V35.607a2.216,2.216,0,0,0,2.134,2.179c3.518.184,10.634.86,15.553,3.338a1.122,1.122,0,0,0,1.65-.956V20.349a1.072,1.072,0,0,0-.517-.923Zm20.03-3.952c-3.9.221-11.639,1.026-16.418,3.952a1.092,1.092,0,0,0-.516.937v19.8a1.125,1.125,0,0,0,1.655.959c4.918-2.475,12.03-3.151,15.547-3.336a2.217,2.217,0,0,0,2.134-2.18V17.656A2.23,2.23,0,0,0,38.85,15.473Z" transform="translate(10.929 10.929)" fill="#fff"/>
    </g>
  </g>
</svg>
