<svg xmlns="http://www.w3.org/2000/svg" width="85" height="85" viewBox="0 0 85 85">
  <g id="icon-it-konsultasi" transform="translate(-531.258 -1391.258)">
    <path id="Path_37240" data-name="Path 37240" d="M42.5,0A42.5,42.5,0,1,1,0,42.5,42.5,42.5,0,0,1,42.5,0Z" transform="translate(531.258 1391.258)" fill="#2680eb"/>
    <g id="Group_3461" data-name="Group 3461" transform="translate(372.758 1214.092)">
      <path id="Subtraction_48" data-name="Subtraction 48" d="M47.338,37.336a14.635,14.635,0,0,1-7.4-2.08,21.206,21.206,0,0,1-9.273,2.08c-6.99,0-13.262-3.2-15.977-8.156a25.178,25.178,0,0,0,2.645.156c11.029,0,20-7.178,20-16a11.9,11.9,0,0,0-.109-1.672,17.2,17.2,0,0,1,7.756,4.828A11.245,11.245,0,0,1,48,24.006a11.25,11.25,0,0,1-3.166,7.664,18.508,18.508,0,0,0,2.982,4.541.659.659,0,0,1,.123.729A.642.642,0,0,1,47.338,37.336Zm-30-10.666a21.205,21.205,0,0,1-9.273-2.086A14.542,14.542,0,0,1,.67,26.67a.657.657,0,0,1-.611-.4.663.663,0,0,1,.125-.729A19.049,19.049,0,0,0,3.168,21,11.281,11.281,0,0,1,0,13.334,11.936,11.936,0,0,1,5.08,3.906,20.126,20.126,0,0,1,17.336,0a20.127,20.127,0,0,1,12.258,3.9,11.936,11.936,0,0,1,5.078,9.428,11.928,11.928,0,0,1-5.078,9.43A20.116,20.116,0,0,1,17.336,26.67Zm8.787-16.217a2.613,2.613,0,1,0,2.613,2.613A2.616,2.616,0,0,0,26.123,10.453Zm-7.838,0A2.613,2.613,0,1,0,20.9,13.066,2.616,2.616,0,0,0,18.285,10.453Zm-7.832,0a2.613,2.613,0,1,0,2.611,2.613A2.614,2.614,0,0,0,10.453,10.453Z" transform="translate(177 200.998)" fill="#fff"/>
    </g>
  </g>
</svg>
