<svg xmlns="http://www.w3.org/2000/svg" xmlns:xlink="http://www.w3.org/1999/xlink" width="69" height="69" viewBox="0 0 69 69">
  <defs>
    <clipPath id="clip-path">
      <path id="comments-solid" d="M29.31,43.273C29.31,37.045,22.751,32,14.655,32S0,37.045,0,43.273a9.559,9.559,0,0,0,2.677,6.482A15.858,15.858,0,0,1,.155,53.6a.56.56,0,0,0-.106.613.552.552,0,0,0,.514.338,12.406,12.406,0,0,0,6.25-1.761,17.928,17.928,0,0,0,7.842,1.761C22.751,54.547,29.31,49.5,29.31,43.273Zm8.6,15.5a9.545,9.545,0,0,0,2.677-6.482c0-4.714-3.769-8.751-9.11-10.435a10.471,10.471,0,0,1,.092,1.416c0,7.461-7.588,13.528-16.91,13.528a21.129,21.129,0,0,1-2.234-.134c2.219,4.051,7.433,6.9,13.507,6.9A17.83,17.83,0,0,0,33.77,61.8a12.406,12.406,0,0,0,6.25,1.761.556.556,0,0,0,.514-.338.565.565,0,0,0-.106-.613A15.69,15.69,0,0,1,37.906,58.774Z" transform="translate(0 -32)" fill="#2680eb"/>
    </clipPath>
  </defs>
  <g id="icon-message" transform="translate(-171 -193)">
    <circle id="Ellipse_302" data-name="Ellipse 302" cx="34.5" cy="34.5" r="34.5" transform="translate(171 193)" fill="#d9eeff" opacity="0.4"/>
    <g id="Group_2686" data-name="Group 2686" transform="translate(185.255 211.666)">
      <path id="comments-solid-2" data-name="comments-solid" d="M29.31,43.273C29.31,37.045,22.751,32,14.655,32S0,37.045,0,43.273a9.559,9.559,0,0,0,2.677,6.482A15.858,15.858,0,0,1,.155,53.6a.56.56,0,0,0-.106.613.552.552,0,0,0,.514.338,12.406,12.406,0,0,0,6.25-1.761,17.928,17.928,0,0,0,7.842,1.761C22.751,54.547,29.31,49.5,29.31,43.273Zm8.6,15.5a9.545,9.545,0,0,0,2.677-6.482c0-4.714-3.769-8.751-9.11-10.435a10.471,10.471,0,0,1,.092,1.416c0,7.461-7.588,13.528-16.91,13.528a21.129,21.129,0,0,1-2.234-.134c2.219,4.051,7.433,6.9,13.507,6.9A17.83,17.83,0,0,0,33.77,61.8a12.406,12.406,0,0,0,6.25,1.761.556.556,0,0,0,.514-.338.565.565,0,0,0-.106-.613A15.69,15.69,0,0,1,37.906,58.774Z" transform="translate(0 -32)" fill="#2680eb"/>
      <g id="Mask_Group_1425" data-name="Mask Group 1425" transform="translate(0 0)" clip-path="url(#clip-path)">
        <circle id="Ellipse_457" data-name="Ellipse 457" cx="25.077" cy="25.077" r="25.077" transform="translate(-23.456 -27.284)" fill="#6bb1fe" opacity="0.5"/>
      </g>
      <ellipse id="Ellipse_458" data-name="Ellipse 458" cx="2" cy="2.5" rx="2" ry="2.5" transform="translate(6.748 8.331)" fill="#fff"/>
      <circle id="Ellipse_459" data-name="Ellipse 459" cx="2.5" cy="2.5" r="2.5" transform="translate(12.748 8.331)" fill="#fff"/>
      <circle id="Ellipse_460" data-name="Ellipse 460" cx="2.5" cy="2.5" r="2.5" transform="translate(19.748 8.331)" fill="#fff"/>
    </g>
  </g>
</svg>
