<svg xmlns="http://www.w3.org/2000/svg" xmlns:xlink="http://www.w3.org/1999/xlink" width="20" height="20" viewBox="0 0 20 20">
  <defs>
    <clipPath id="clip-path">
      <path id="facebook-f-brands" d="M28.671,6.5l.321-2.09H26.986V3.05a1.045,1.045,0,0,1,1.178-1.129h.912V.141A11.119,11.119,0,0,0,27.457,0a2.552,2.552,0,0,0-2.731,2.814V4.407H22.89V6.5h1.836V11.55h2.26V6.5Z" transform="translate(-22.89)" fill="#2680eb"/>
    </clipPath>
  </defs>
  <g id="icon-facebook" transform="translate(0.334 0.334)">
    <circle id="Ellipse_381" data-name="Ellipse 381" cx="10" cy="10" r="10" transform="translate(-0.334 -0.334)" fill="#fff"/>
    <path id="facebook-f-brands-2" data-name="facebook-f-brands" d="M28.671,6.5l.321-2.09H26.986V3.05a1.045,1.045,0,0,1,1.178-1.129h.912V.141A11.119,11.119,0,0,0,27.457,0a2.552,2.552,0,0,0-2.731,2.814V4.407H22.89V6.5h1.836V11.55h2.26V6.5Z" transform="translate(-15.96 4.086)" fill="#2680eb"/>
    <g id="Mask_Group_1478" data-name="Mask Group 1478" transform="translate(6.93 4.086)" clip-path="url(#clip-path)">
      <circle id="Ellipse_530" data-name="Ellipse 530" cx="7.03" cy="7.03" r="7.03" transform="translate(-7.69 -6.558)" fill="#6bb1fe" opacity="0.5"/>
    </g>
  </g>
</svg>
