<svg xmlns="http://www.w3.org/2000/svg" xmlns:xlink="http://www.w3.org/1999/xlink" width="87" height="94" viewBox="0 0 87 94">
  <defs>
    <clipPath id="clip-path">
      <path id="Path_268" data-name="Path 268" d="M40.017,12.473H31.182V1.559A1.559,1.559,0,0,0,29.623,0H20.268a1.559,1.559,0,0,0-1.559,1.559V6.237H14.552v-5.2A1.039,1.039,0,0,0,13.512,0H12.473a1.039,1.039,0,0,0-1.039,1.039v5.2H7.276v-5.2A1.039,1.039,0,0,0,6.236,0H5.2A1.039,1.039,0,0,0,4.158,1.039v5.2h-2.6A1.559,1.559,0,0,0,0,7.8V31.183a2.079,2.079,0,0,0,2.079,2.079H39.5a2.079,2.079,0,0,0,2.079-2.079V14.032A1.559,1.559,0,0,0,40.017,12.473ZM8.315,26.245a.779.779,0,0,1-.78.78h-2.6a.779.779,0,0,1-.78-.78v-2.6a.779.779,0,0,1,.78-.78h2.6a.779.779,0,0,1,.78.78Zm0-6.237a.779.779,0,0,1-.78.78h-2.6a.779.779,0,0,1-.78-.78v-2.6a.779.779,0,0,1,.78-.78h2.6a.779.779,0,0,1,.78.78Zm0-6.237a.779.779,0,0,1-.78.78h-2.6a.779.779,0,0,1-.78-.78v-2.6a.779.779,0,0,1,.78-.78h2.6a.779.779,0,0,1,.78.78ZM16.63,26.245a.779.779,0,0,1-.78.78h-2.6a.779.779,0,0,1-.78-.78v-2.6a.779.779,0,0,1,.78-.78h2.6a.779.779,0,0,1,.78.78Zm0-6.237a.779.779,0,0,1-.78.78h-2.6a.779.779,0,0,1-.78-.78v-2.6a.779.779,0,0,1,.78-.78h2.6a.779.779,0,0,1,.78.78Zm0-6.237a.779.779,0,0,1-.78.78h-2.6a.779.779,0,0,1-.78-.78v-2.6a.779.779,0,0,1,.78-.78h2.6a.779.779,0,0,1,.78.78Zm10.394,6.237a.779.779,0,0,1-.78.78h-2.6a.779.779,0,0,1-.78-.78v-2.6a.779.779,0,0,1,.78-.78h2.6a.779.779,0,0,1,.78.78Zm0-6.237a.779.779,0,0,1-.78.78h-2.6a.779.779,0,0,1-.78-.78v-2.6a.779.779,0,0,1,.78-.78h2.6a.779.779,0,0,1,.78.78Zm0-6.237a.779.779,0,0,1-.78.78h-2.6a.779.779,0,0,1-.78-.78v-2.6a.779.779,0,0,1,.78-.78h2.6a.779.779,0,0,1,.78.78Zm10.394,18.71a.779.779,0,0,1-.78.78h-2.6a.779.779,0,0,1-.78-.78v-2.6a.779.779,0,0,1,.78-.78h2.6a.779.779,0,0,1,.78.78Zm0-6.237a.779.779,0,0,1-.78.78h-2.6a.779.779,0,0,1-.78-.78v-2.6a.779.779,0,0,1,.78-.78h2.6a.779.779,0,0,1,.78.78Z" transform="translate(0 0)" fill="#2680eb"/>
    </clipPath>
  </defs>
  <g id="icon-slider-role-perusahaan" transform="translate(-972 -2139)">
    <g id="icon-role-kewirausahaan" transform="translate(983.916 2139)">
      <circle id="Ellipse_1" data-name="Ellipse 1" cx="32" cy="32" r="32" transform="translate(0.084)" fill="#d9eeff"/>
      <path id="Path_255" data-name="Path 255" d="M40.017,12.473H31.182V1.559A1.559,1.559,0,0,0,29.623,0H20.268a1.559,1.559,0,0,0-1.559,1.559V6.237H14.552v-5.2A1.039,1.039,0,0,0,13.512,0H12.473a1.039,1.039,0,0,0-1.039,1.039v5.2H7.276v-5.2A1.039,1.039,0,0,0,6.236,0H5.2A1.039,1.039,0,0,0,4.158,1.039v5.2h-2.6A1.559,1.559,0,0,0,0,7.8V31.183a2.079,2.079,0,0,0,2.079,2.079H39.5a2.079,2.079,0,0,0,2.079-2.079V14.032A1.559,1.559,0,0,0,40.017,12.473ZM8.315,26.245a.779.779,0,0,1-.78.78h-2.6a.779.779,0,0,1-.78-.78v-2.6a.779.779,0,0,1,.78-.78h2.6a.779.779,0,0,1,.78.78Zm0-6.237a.779.779,0,0,1-.78.78h-2.6a.779.779,0,0,1-.78-.78v-2.6a.779.779,0,0,1,.78-.78h2.6a.779.779,0,0,1,.78.78Zm0-6.237a.779.779,0,0,1-.78.78h-2.6a.779.779,0,0,1-.78-.78v-2.6a.779.779,0,0,1,.78-.78h2.6a.779.779,0,0,1,.78.78ZM16.63,26.245a.779.779,0,0,1-.78.78h-2.6a.779.779,0,0,1-.78-.78v-2.6a.779.779,0,0,1,.78-.78h2.6a.779.779,0,0,1,.78.78Zm0-6.237a.779.779,0,0,1-.78.78h-2.6a.779.779,0,0,1-.78-.78v-2.6a.779.779,0,0,1,.78-.78h2.6a.779.779,0,0,1,.78.78Zm0-6.237a.779.779,0,0,1-.78.78h-2.6a.779.779,0,0,1-.78-.78v-2.6a.779.779,0,0,1,.78-.78h2.6a.779.779,0,0,1,.78.78Zm10.394,6.237a.779.779,0,0,1-.78.78h-2.6a.779.779,0,0,1-.78-.78v-2.6a.779.779,0,0,1,.78-.78h2.6a.779.779,0,0,1,.78.78Zm0-6.237a.779.779,0,0,1-.78.78h-2.6a.779.779,0,0,1-.78-.78v-2.6a.779.779,0,0,1,.78-.78h2.6a.779.779,0,0,1,.78.78Zm0-6.237a.779.779,0,0,1-.78.78h-2.6a.779.779,0,0,1-.78-.78v-2.6a.779.779,0,0,1,.78-.78h2.6a.779.779,0,0,1,.78.78Zm10.394,18.71a.779.779,0,0,1-.78.78h-2.6a.779.779,0,0,1-.78-.78v-2.6a.779.779,0,0,1,.78-.78h2.6a.779.779,0,0,1,.78.78Zm0-6.237a.779.779,0,0,1-.78.78h-2.6a.779.779,0,0,1-.78-.78v-2.6a.779.779,0,0,1,.78-.78h2.6a.779.779,0,0,1,.78.78Z" transform="translate(11.329 15.728)" fill="#2680eb"/>
      <g id="Mask_Group_9" data-name="Mask Group 9" transform="translate(11.329 15.728)" clip-path="url(#clip-path)">
        <circle id="Ellipse_90" data-name="Ellipse 90" cx="38.5" cy="38.5" r="38.5" transform="translate(-46.245 -43.729)" fill="#6bb1fe" opacity="0.5"/>
      </g>
    </g>
    <text id="Perusahaan" transform="translate(972 2227)" fill="#3a4166" font-size="16" font-family="NunitoSans-Bold, Nunito Sans" font-weight="700"><tspan x="0" y="0">Perusahaan</tspan></text>
  </g>
</svg>
