<svg xmlns="http://www.w3.org/2000/svg" width="24" height="24" viewBox="0 0 24 24">
  <g id="icon-delete-search" transform="translate(-646.347 -367.346)">
    <path id="Path_519" data-name="Path 519" d="M12,0A12,12,0,1,1,0,12,12,12,0,0,1,12,0Z" transform="translate(646.347 367.346)" fill="#e1e1e7"/>
    <path id="times-solid" d="M6.509,84.72l2.684-2.684a.844.844,0,0,0,0-1.193l-.6-.6a.844.844,0,0,0-1.193,0L4.72,82.931,2.036,80.247a.844.844,0,0,0-1.193,0l-.6.6a.844.844,0,0,0,0,1.193L2.931,84.72.247,87.4a.844.844,0,0,0,0,1.193l.6.6a.844.844,0,0,0,1.193,0L4.72,86.509,7.4,89.193a.844.844,0,0,0,1.193,0l.6-.6a.844.844,0,0,0,0-1.193Z" transform="translate(653.626 294.626)" fill="#fff"/>
  </g>
</svg>
