<svg xmlns="http://www.w3.org/2000/svg" xmlns:xlink="http://www.w3.org/1999/xlink" width="30" height="30" viewBox="0 0 30 30">
  <defs>
    <clipPath id="clip-path">
      <path id="Path_250" data-name="Path 250" d="M170.387,183.647a.487.487,0,0,0,.486-.486v-1.619a.487.487,0,0,0-.486-.486h-.81v-1.943a1.944,1.944,0,0,0-1.943-1.943H154.679a1.944,1.944,0,0,0-1.943,1.943v16.841a1.944,1.944,0,0,0,1.943,1.943h12.955a1.944,1.944,0,0,0,1.943-1.943v-1.943h.81a.487.487,0,0,0,.486-.486v-1.619a.487.487,0,0,0-.486-.486h-.81v-2.591h.81a.487.487,0,0,0,.486-.486v-1.619a.487.487,0,0,0-.486-.486h-.81v-2.591Zm-9.23-1.3a2.591,2.591,0,1,1-2.591,2.591A2.593,2.593,0,0,1,161.157,182.352Zm4.534,9.586a.849.849,0,0,1-.907.777h-7.255a.849.849,0,0,1-.907-.777v-.777a2.549,2.549,0,0,1,2.721-2.332h.2a4.169,4.169,0,0,0,3.222,0h.2a2.549,2.549,0,0,1,2.72,2.332Z" transform="translate(-152.736 -177.17)" fill="none"/>
    </clipPath>
    <clipPath id="clip-path-2">
      <path id="Path_37333" data-name="Path 37333" d="M14.431,2.749H10.995a2.749,2.749,0,0,0-5.5,0H2.062A2.062,2.062,0,0,0,0,4.81V19.928a2.062,2.062,0,0,0,2.062,2.061H14.431a2.062,2.062,0,0,0,2.062-2.061V4.81A2.062,2.062,0,0,0,14.431,2.749ZM4.123,18.21a1.031,1.031,0,1,1,1.031-1.031A1.028,1.028,0,0,1,4.123,18.21Zm0-4.123a1.031,1.031,0,1,1,1.031-1.031A1.028,1.028,0,0,1,4.123,14.087Zm0-4.123A1.031,1.031,0,1,1,5.154,8.933,1.028,1.028,0,0,1,4.123,9.964ZM8.246,1.718A1.031,1.031,0,1,1,7.215,2.749,1.028,1.028,0,0,1,8.246,1.718Zm5.5,15.8a.345.345,0,0,1-.344.344H7.215a.345.345,0,0,1-.344-.344v-.687a.345.345,0,0,1,.344-.344H13.4a.345.345,0,0,1,.344.344Zm0-4.123a.345.345,0,0,1-.344.344H7.215a.345.345,0,0,1-.344-.344v-.687a.345.345,0,0,1,.344-.344H13.4a.345.345,0,0,1,.344.344Zm0-4.123a.345.345,0,0,1-.344.344H7.215a.345.345,0,0,1-.344-.344V8.59a.345.345,0,0,1,.344-.344H13.4a.345.345,0,0,1,.344.344Z" transform="translate(0)" fill="#2680eb"/>
    </clipPath>
  </defs>
  <g id="icon-kegiatan-tugas" transform="translate(-34 -468.5)">
    <circle id="Ellipse_84" data-name="Ellipse 84" cx="15" cy="15" r="15" transform="translate(34 468.5)" fill="#d9eeff" opacity="0.7"/>
    <g id="Group_3732" data-name="Group 3732" transform="translate(42.4 475.1)">
      <path id="Path_37332" data-name="Path 37332" d="M14.431,2.749H10.995a2.749,2.749,0,0,0-5.5,0H2.062A2.062,2.062,0,0,0,0,4.81V19.928a2.062,2.062,0,0,0,2.062,2.061H14.431a2.062,2.062,0,0,0,2.062-2.061V4.81A2.062,2.062,0,0,0,14.431,2.749ZM4.123,18.21a1.031,1.031,0,1,1,1.031-1.031A1.028,1.028,0,0,1,4.123,18.21Zm0-4.123a1.031,1.031,0,1,1,1.031-1.031A1.028,1.028,0,0,1,4.123,14.087Zm0-4.123A1.031,1.031,0,1,1,5.154,8.933,1.028,1.028,0,0,1,4.123,9.964ZM8.246,1.718A1.031,1.031,0,1,1,7.215,2.749,1.028,1.028,0,0,1,8.246,1.718Zm5.5,15.8a.345.345,0,0,1-.344.344H7.215a.345.345,0,0,1-.344-.344v-.687a.345.345,0,0,1,.344-.344H13.4a.345.345,0,0,1,.344.344Zm0-4.123a.345.345,0,0,1-.344.344H7.215a.345.345,0,0,1-.344-.344v-.687a.345.345,0,0,1,.344-.344H13.4a.345.345,0,0,1,.344.344Zm0-4.123a.345.345,0,0,1-.344.344H7.215a.345.345,0,0,1-.344-.344V8.59a.345.345,0,0,1,.344-.344H13.4a.345.345,0,0,1,.344.344Z" transform="translate(-1.946 -2.595)" fill="#2680eb"/>
      <g id="Mask_Group_1522" data-name="Mask Group 1522" transform="translate(-1.946 -2.595)" clip-path="url(#clip-path-2)">
        <ellipse id="Ellipse_627" data-name="Ellipse 627" cx="9.711" cy="9.711" rx="9.711" ry="9.711" transform="translate(-8.019 -8.426)" fill="#6bb1fe" opacity="0.5"/>
      </g>
    </g>
  </g>
</svg>
