<svg xmlns="http://www.w3.org/2000/svg" xmlns:xlink="http://www.w3.org/1999/xlink" width="64" height="64" viewBox="0 0 64 64">
  <defs>
    <clipPath id="clip-path">
      <path id="Path_98" data-name="Path 98" d="M48.122,36.68V18.264a1.74,1.74,0,0,0-1.74-1.74H38.118V11.513a1.306,1.306,0,0,0-.669-1.14l-6.71-3.742c-.037-.021-.075-.039-.114-.056V4.44h3.613a.522.522,0,0,0,.522-.522V1.28a.522.522,0,0,0-.522-.522H30.624V.522a.522.522,0,1,0-1.044,0V6.575c-.038.017-.077.035-.114.056l-6.71,3.742a1.3,1.3,0,0,0-.67,1.14v5.011H13.822a1.74,1.74,0,0,0-1.74,1.74V36.68a2.132,2.132,0,0,0,.878,4.074H47.244a2.132,2.132,0,0,0,.878-4.074ZM41.4,22.59a1.014,1.014,0,0,1,1.014-1.014h1.9a1.014,1.014,0,0,1,1.014,1.014v1.9A1.014,1.014,0,0,1,44.305,25.5h-1.9A1.014,1.014,0,0,1,41.4,24.486v-1.9Zm0,6.091a1.014,1.014,0,0,1,1.014-1.014h1.9a1.014,1.014,0,0,1,1.014,1.014v1.9a1.014,1.014,0,0,1-1.014,1.014h-1.9A1.014,1.014,0,0,1,41.4,30.577v-1.9ZM35.3,22.59a1.014,1.014,0,0,1,1.014-1.014h1.9a1.014,1.014,0,0,1,1.014,1.014v1.9A1.014,1.014,0,0,1,38.214,25.5h-1.9A1.014,1.014,0,0,1,35.3,24.486Zm0,6.091a1.014,1.014,0,0,1,1.014-1.014h1.9a1.014,1.014,0,0,1,1.014,1.014v1.9a1.014,1.014,0,0,1-1.014,1.014h-1.9A1.014,1.014,0,0,1,35.3,30.577ZM30.1,11.517a2.872,2.872,0,1,1-2.872,2.871A2.872,2.872,0,0,1,30.1,11.517ZM27.227,28a1.014,1.014,0,0,1,1.014-1.014h3.723A1.014,1.014,0,0,1,32.977,28v7.987a1.007,1.007,0,0,1-.134.5H27.361a1.007,1.007,0,0,1-.134-.5V28Zm-6.25-5.412a1.014,1.014,0,0,1,1.014-1.014h1.9A1.014,1.014,0,0,1,24.9,22.59v1.9A1.014,1.014,0,0,1,23.886,25.5h-1.9a1.014,1.014,0,0,1-1.014-1.014Zm0,6.091a1.014,1.014,0,0,1,1.014-1.014h1.9A1.014,1.014,0,0,1,24.9,28.681v1.9a1.014,1.014,0,0,1-1.014,1.014h-1.9a1.014,1.014,0,0,1-1.014-1.014ZM14.885,22.59A1.014,1.014,0,0,1,15.9,21.576h1.9a1.014,1.014,0,0,1,1.014,1.014v1.9A1.014,1.014,0,0,1,17.794,25.5H15.9a1.014,1.014,0,0,1-1.014-1.014v-1.9Zm0,6.091A1.014,1.014,0,0,1,15.9,27.667h1.9a1.014,1.014,0,0,1,1.014,1.014v1.9a1.014,1.014,0,0,1-1.014,1.014H15.9a1.014,1.014,0,0,1-1.014-1.014v-1.9Z" transform="translate(-10.828 0)" fill="#2680eb"/>
    </clipPath>
  </defs>
  <g id="icon-faq-role-manajemen-active" transform="translate(-374 -2139)">
    <g id="icon-role-manajemen-sekolah" transform="translate(373.846 2139)">
      <circle id="Ellipse_1" data-name="Ellipse 1" cx="32" cy="32" r="32" transform="translate(0.154)" fill="#2680eb"/>
      <g id="Group_1" data-name="Group 1" transform="translate(12.159 9.411)">
        <g id="Group_192" data-name="Group 192" transform="translate(0)">
          <path id="Path_98-2" data-name="Path 98" d="M48.122,36.68V18.264a1.74,1.74,0,0,0-1.74-1.74H38.118V11.513a1.306,1.306,0,0,0-.669-1.14l-6.71-3.742c-.037-.021-.075-.039-.114-.056V4.44h3.613a.522.522,0,0,0,.522-.522V1.28a.522.522,0,0,0-.522-.522H30.624V.522a.522.522,0,1,0-1.044,0V6.575c-.038.017-.077.035-.114.056l-6.71,3.742a1.3,1.3,0,0,0-.67,1.14v5.011H13.822a1.74,1.74,0,0,0-1.74,1.74V36.68a2.132,2.132,0,0,0,.878,4.074H47.244a2.132,2.132,0,0,0,.878-4.074ZM41.4,22.59a1.014,1.014,0,0,1,1.014-1.014h1.9a1.014,1.014,0,0,1,1.014,1.014v1.9A1.014,1.014,0,0,1,44.305,25.5h-1.9A1.014,1.014,0,0,1,41.4,24.486v-1.9Zm0,6.091a1.014,1.014,0,0,1,1.014-1.014h1.9a1.014,1.014,0,0,1,1.014,1.014v1.9a1.014,1.014,0,0,1-1.014,1.014h-1.9A1.014,1.014,0,0,1,41.4,30.577v-1.9ZM35.3,22.59a1.014,1.014,0,0,1,1.014-1.014h1.9a1.014,1.014,0,0,1,1.014,1.014v1.9A1.014,1.014,0,0,1,38.214,25.5h-1.9A1.014,1.014,0,0,1,35.3,24.486Zm0,6.091a1.014,1.014,0,0,1,1.014-1.014h1.9a1.014,1.014,0,0,1,1.014,1.014v1.9a1.014,1.014,0,0,1-1.014,1.014h-1.9A1.014,1.014,0,0,1,35.3,30.577ZM30.1,11.517a2.872,2.872,0,1,1-2.872,2.871A2.872,2.872,0,0,1,30.1,11.517ZM27.227,28a1.014,1.014,0,0,1,1.014-1.014h3.723A1.014,1.014,0,0,1,32.977,28v7.987a1.007,1.007,0,0,1-.134.5H27.361a1.007,1.007,0,0,1-.134-.5V28Zm-6.25-5.412a1.014,1.014,0,0,1,1.014-1.014h1.9A1.014,1.014,0,0,1,24.9,22.59v1.9A1.014,1.014,0,0,1,23.886,25.5h-1.9a1.014,1.014,0,0,1-1.014-1.014Zm0,6.091a1.014,1.014,0,0,1,1.014-1.014h1.9A1.014,1.014,0,0,1,24.9,28.681v1.9a1.014,1.014,0,0,1-1.014,1.014h-1.9a1.014,1.014,0,0,1-1.014-1.014ZM14.885,22.59A1.014,1.014,0,0,1,15.9,21.576h1.9a1.014,1.014,0,0,1,1.014,1.014v1.9A1.014,1.014,0,0,1,17.794,25.5H15.9a1.014,1.014,0,0,1-1.014-1.014v-1.9Zm0,6.091A1.014,1.014,0,0,1,15.9,27.667h1.9a1.014,1.014,0,0,1,1.014,1.014v1.9a1.014,1.014,0,0,1-1.014,1.014H15.9a1.014,1.014,0,0,1-1.014-1.014v-1.9Z" transform="translate(-10.828)" fill="#fff"/>
        </g>
      </g>
    </g>
  </g>
</svg>
