<svg xmlns="http://www.w3.org/2000/svg" xmlns:xlink="http://www.w3.org/1999/xlink" width="64" height="94" viewBox="0 0 64 94">
  <defs>
    <clipPath id="clip-path">
      <path id="Path_266" data-name="Path 266" d="M22.542,22.6l-6.733,6.733L9.076,22.6A9.464,9.464,0,0,0,0,32.046v.678a3.388,3.388,0,0,0,3.388,3.388H28.23a3.388,3.388,0,0,0,3.388-3.388v-.678A9.464,9.464,0,0,0,22.542,22.6ZM.96,5.609l.452.106V9.836a1.63,1.63,0,0,0-.064,2.823l-1.1,4.4c-.12.487.148.988.536.988h2.95c.388,0,.656-.5.536-.988l-1.1-4.4a1.63,1.63,0,0,0-.064-2.823V6.124L7.763,7.246a9.017,9.017,0,1,0,17.079,4.023,8.873,8.873,0,0,0-.988-4.023l6.8-1.637a1.123,1.123,0,0,0,0-2.223L17.213.139a6.062,6.062,0,0,0-2.8,0L.96,3.379A1.128,1.128,0,0,0,.96,5.609Z" transform="translate(0 0.025)" fill="#2680eb"/>
    </clipPath>
  </defs>
  <g id="icon-slider-role-alumni-active" transform="translate(-620 -2139)">
    <g id="icon-role-alumni" transform="translate(619.535 2139)">
      <circle id="Ellipse_1" data-name="Ellipse 1" cx="32" cy="32" r="32" transform="translate(0.465)" fill="#2680eb"/>
      <path id="Path_253" data-name="Path 253" d="M22.542,22.6l-6.733,6.733L9.076,22.6A9.464,9.464,0,0,0,0,32.046v.678a3.388,3.388,0,0,0,3.388,3.388H28.23a3.388,3.388,0,0,0,3.388-3.388v-.678A9.464,9.464,0,0,0,22.542,22.6ZM.96,5.609l.452.106V9.836a1.63,1.63,0,0,0-.064,2.823l-1.1,4.4c-.12.487.148.988.536.988h2.95c.388,0,.656-.5.536-.988l-1.1-4.4a1.63,1.63,0,0,0-.064-2.823V6.124L7.763,7.246a9.017,9.017,0,1,0,17.079,4.023,8.873,8.873,0,0,0-.988-4.023l6.8-1.637a1.123,1.123,0,0,0,0-2.223L17.213.139a6.062,6.062,0,0,0-2.8,0L.96,3.379A1.128,1.128,0,0,0,.96,5.609Z" transform="translate(16.153 14.64)" fill="#fff"/>
    </g>
    <text id="Alumni" transform="translate(626 2227)" fill="#2680eb" font-size="16" font-family="NunitoSans-Bold, Nunito Sans" font-weight="700"><tspan x="0" y="0">Alumni</tspan></text>
  </g>
</svg>
