<svg xmlns="http://www.w3.org/2000/svg" xmlns:xlink="http://www.w3.org/1999/xlink" width="21" height="24" viewBox="0 0 21 24">
  <defs>
    <clipPath id="clip-path">
      <path id="Subtraction_87" data-name="Subtraction 87" d="M18.75,24H2.25A2.249,2.249,0,0,1,0,21.75V9H21V21.75A2.249,2.249,0,0,1,18.75,24ZM10.5,11.375a.556.556,0,0,0-.508.316L8.834,14.038l-2.59.378a.568.568,0,0,0-.314.968L7.8,17.21l-.443,2.58a.555.555,0,0,0,.123.459.579.579,0,0,0,.436.205.557.557,0,0,0,.263-.066L10.5,19.169l2.317,1.218a.559.559,0,0,0,.262.066.58.58,0,0,0,.438-.205.554.554,0,0,0,.123-.458L13.2,17.21l1.874-1.826a.568.568,0,0,0-.314-.968l-2.59-.378-1.158-2.347A.566.566,0,0,0,10.5,11.375ZM21,7.5H0V5.25A2.249,2.249,0,0,1,2.25,3H4.5V.75A.752.752,0,0,1,5.25,0h1.5A.752.752,0,0,1,7.5.75V3h6V.75A.752.752,0,0,1,14.25,0h1.5a.752.752,0,0,1,.75.75V3h2.25A2.249,2.249,0,0,1,21,5.25Z" transform="translate(0)" fill="#2680eb"/>
    </clipPath>
  </defs>
  <g id="icon-bottom-nav-event" transform="translate(0.25)">
    <path id="Subtraction_86" data-name="Subtraction 86" d="M18.75,24H2.25A2.249,2.249,0,0,1,0,21.75V9H21V21.75A2.249,2.249,0,0,1,18.75,24ZM10.5,11.375a.556.556,0,0,0-.508.316L8.834,14.038l-2.59.378a.568.568,0,0,0-.314.968L7.8,17.21l-.443,2.58a.555.555,0,0,0,.123.459.579.579,0,0,0,.436.205.557.557,0,0,0,.263-.066L10.5,19.169l2.317,1.218a.559.559,0,0,0,.262.066.58.58,0,0,0,.438-.205.554.554,0,0,0,.123-.458L13.2,17.21l1.874-1.826a.568.568,0,0,0-.314-.968l-2.59-.378-1.158-2.347A.566.566,0,0,0,10.5,11.375ZM21,7.5H0V5.25A2.249,2.249,0,0,1,2.25,3H4.5V.75A.752.752,0,0,1,5.25,0h1.5A.752.752,0,0,1,7.5.75V3h6V.75A.752.752,0,0,1,14.25,0h1.5a.752.752,0,0,1,.75.75V3h2.25A2.249,2.249,0,0,1,21,5.25Z" transform="translate(-0.25)" fill="#9b9eaf"/>
    <g id="Mask_Group_1558" data-name="Mask Group 1558" transform="translate(-0.25 0)" clip-path="url(#clip-path)">
      <ellipse id="Ellipse_763" data-name="Ellipse 763" cx="18.549" cy="18.548" rx="18.549" ry="18.548" transform="translate(-22.87 -11.47)" fill="#a7aab8"/>
    </g>
  </g>
</svg>
