<svg xmlns="http://www.w3.org/2000/svg" width="64" height="64" viewBox="0 0 64 64">
  <g id="icon-faq-role-umum-active" transform="translate(-184 -1052)">
    <circle id="Ellipse_565" data-name="Ellipse 565" cx="32" cy="32" r="32" transform="translate(184 1052)" fill="#2680eb"/>
    <path id="globe-solid" d="M27.137,20.258C25.968,13.056,23.21,8,20,8s-5.968,5.056-7.137,12.258ZM12.258,28a50.548,50.548,0,0,0,.266,5.161H27.468A50.548,50.548,0,0,0,27.734,28a50.549,50.549,0,0,0-.266-5.161H12.524A50.548,50.548,0,0,0,12.258,28Zm26.185-7.742A20.042,20.042,0,0,0,25.7,8.839c1.968,2.726,3.323,6.831,4.032,11.419ZM14.29,8.839A20.029,20.029,0,0,0,1.556,20.258h8.71C10.968,15.669,12.323,11.565,14.29,8.839Zm25.016,14h-9.25c.169,1.694.266,3.427.266,5.161s-.1,3.468-.266,5.161H39.3A19.828,19.828,0,0,0,39.992,28a20.174,20.174,0,0,0-.685-5.161ZM9.677,28c0-1.734.1-3.468.266-5.161H.694a19.552,19.552,0,0,0,0,10.323H9.935C9.774,31.468,9.677,29.734,9.677,28Zm3.185,7.742C14.032,42.944,16.79,48,20,48s5.968-5.056,7.137-12.258ZM25.71,47.161A20.061,20.061,0,0,0,38.452,35.742h-8.71C29.032,40.331,27.677,44.435,25.71,47.161ZM1.556,35.742A20.042,20.042,0,0,0,14.3,47.161c-1.968-2.726-3.323-6.831-4.032-11.419H1.556Z" transform="translate(196.004 1056)" fill="#fff"/>
  </g>
</svg>
