<svg xmlns="http://www.w3.org/2000/svg" xmlns:xlink="http://www.w3.org/1999/xlink" width="64" height="64" viewBox="0 0 64 64">
  <defs>
    <clipPath id="clip-path">
      <path id="external-link-alt-solid" d="M24.68,18.281H22.852a.914.914,0,0,0-.914.914v6.4H3.656V7.313h8.227A.914.914,0,0,0,12.8,6.4V4.57a.914.914,0,0,0-.914-.914H2.742A2.742,2.742,0,0,0,0,6.4V26.508A2.742,2.742,0,0,0,2.742,29.25H22.852a2.742,2.742,0,0,0,2.742-2.742V19.2A.914.914,0,0,0,24.68,18.281ZM27.879,0H20.566A1.374,1.374,0,0,0,19.6,2.342l2.041,2.041L7.712,18.3a1.371,1.371,0,0,0,0,1.942l1.3,1.293a1.371,1.371,0,0,0,1.942,0L24.867,7.616l2.041,2.038a1.373,1.373,0,0,0,2.342-.971V1.371A1.371,1.371,0,0,0,27.879,0Z" transform="translate(17.305 17.375)" fill="#6bb1fe" opacity="0.5"/>
    </clipPath>
  </defs>
  <g id="icon-link" transform="translate(0.07)">
    <circle id="Ellipse_1" data-name="Ellipse 1" cx="32" cy="32" r="32" transform="translate(-0.07)" fill="#d9eeff"/>
    <path id="external-link-alt-solid-2" data-name="external-link-alt-solid" d="M24.68,18.281H22.852a.914.914,0,0,0-.914.914v6.4H3.656V7.313h8.227A.914.914,0,0,0,12.8,6.4V4.57a.914.914,0,0,0-.914-.914H2.742A2.742,2.742,0,0,0,0,6.4V26.508A2.742,2.742,0,0,0,2.742,29.25H22.852a2.742,2.742,0,0,0,2.742-2.742V19.2A.914.914,0,0,0,24.68,18.281ZM27.879,0H20.566A1.374,1.374,0,0,0,19.6,2.342l2.041,2.041L7.712,18.3a1.371,1.371,0,0,0,0,1.942l1.3,1.293a1.371,1.371,0,0,0,1.942,0L24.867,7.616l2.041,2.038a1.373,1.373,0,0,0,2.342-.971V1.371A1.371,1.371,0,0,0,27.879,0Z" transform="translate(17.305 17.375)" fill="#2680eb"/>
    <g id="Mask_Group_1474" data-name="Mask Group 1474" clip-path="url(#clip-path)">
      <ellipse id="Ellipse_522" data-name="Ellipse 522" cx="31.5" cy="31" rx="31.5" ry="31" transform="translate(-20.07 -15.375)" fill="#6bb1fe" opacity="0.5"/>
    </g>
  </g>
</svg>
