<svg xmlns="http://www.w3.org/2000/svg" xmlns:xlink="http://www.w3.org/1999/xlink" width="24" height="24" viewBox="0 0 24 24">
  <defs>
    <clipPath id="clip-path">
      <path id="Path_589" data-name="Path 589" d="M1391.584,271.951c-.4.8-3.954-1.97-6.674-1.97s-6.272,2.773-6.674,1.97a1.511,1.511,0,0,1-.081-.78,10.446,10.446,0,0,1,.686-2.418s3.342-1.923,6.069-1.923,6.069,1.923,6.069,1.923a10.444,10.444,0,0,1,.686,2.418A1.509,1.509,0,0,1,1391.584,271.951Z" transform="translate(-1378.141 -266.83)" fill="#3c7ceb"/>
    </clipPath>
  </defs>
  <g id="icon-smp-mts" transform="translate(-460 -752)">
    <circle id="Ellipse_143" data-name="Ellipse 143" cx="12" cy="12" r="12" transform="translate(460 752)" fill="#d9eeff" opacity="0.65"/>
    <g id="Group_1485" data-name="Group 1485" transform="translate(465 758)">
      <g id="Group_1326" data-name="Group 1326" transform="translate(0)">
        <g id="Group_1312" data-name="Group 1312" transform="translate(0)">
          <path id="Path_462" data-name="Path 462" d="M1452.16,44.23a16.912,16.912,0,0,0-.078-4.01,5.5,5.5,0,0,0-2.211-3h0a8.193,8.193,0,0,0-5.36,0h0a5.634,5.634,0,0,0-2.255,3.144,16.3,16.3,0,0,0-.033,3.866,9.353,9.353,0,0,1,9.935,0Z" transform="translate(-1440.423 -36.77)" fill="#ededf4"/>
          <path id="Path_463" data-name="Path 463" d="M1400.721,59.068q0,.256.009.524l0,0-.508.492-.6.072s-.038-.188-.073-.506h0c-.167-1.472-.3-5.729,3.462-7.081C1402.982,52.591,1400.722,54.361,1400.721,59.068Z" transform="translate(-1398.918 -52.152)" fill="#3772d8"/>
          <path id="Path_464" data-name="Path 464" d="M1738.992,59.651c-.036.318-.073.506-.073.506l-.6-.072-.508-.492v0q.009-.268.009-.524c0-4.707-2.261-6.476-2.289-6.5C1739.292,53.922,1739.158,58.18,1738.992,59.651Z" transform="translate(-1726.081 -52.152)" fill="#3772d8"/>
          <g id="Group_1311" data-name="Group 1311" transform="translate(4.872 1.611)">
            <path id="Path_466" data-name="Path 466" d="M1592.681,211.441a.7.7,0,0,0,.356.13l-.027-.173a.915.915,0,0,1-.316-.118.66.66,0,0,0-.778.027l-.018.011-.018-.011a.66.66,0,0,0-.778-.027.915.915,0,0,1-.316.118l-.027.173a.7.7,0,0,0,.356-.13,11.374,11.374,0,0,0,1.564,0Z" transform="translate(-1590.011 -208.166)" fill="#fff"/>
            <path id="Path_467" data-name="Path 467" d="M1592.317,219.566a.739.739,0,0,1-.4-.14.541.541,0,0,0-.725.038l-.021.015-.021-.015a.541.541,0,0,0-.725-.038.74.74,0,0,1-.4.14l-.009.057a.652.652,0,0,0,.373-.138,8.966,8.966,0,0,0,1.571,0,.652.652,0,0,0,.373.138l-.009-.057Z" transform="translate(-1589.28 -216.09)" fill="#f4f4f7"/>
            <path id="Path_468" data-name="Path 468" d="M1629.11,197.552c.018-.021.036-.042.055-.062s.047-.047.073-.069a.554.554,0,0,1-.039-.071.725.725,0,0,1-.036-.1.135.135,0,0,1-.022-.016l0,0-.029.038-.029-.038,0,0a.145.145,0,0,1-.021.016.726.726,0,0,1-.036.1.525.525,0,0,1-.039.071c.026.022.05.045.073.069s.038.041.055.062Z" transform="translate(-1627.222 -194.601)" fill="#ffc107"/>
            <path id="Path_469" data-name="Path 469" d="M1631.077,212.163l-.057.013-.02.025-.02-.025-.057-.013.077.041c.026-.015.052-.029.076-.041Z" transform="translate(-1629.113 -209.136)" fill="#ffc107"/>
            <path id="Path_470" data-name="Path 470" d="M1654.332,147.685l-.063-.036-.012,0a.2.2,0,0,0-.12.028.175.175,0,0,0-.083.1.131.131,0,0,0,0,.019h0a.429.429,0,0,0,.064.182.75.75,0,0,1,.1.333v0h0a.623.623,0,0,1-.159.41.511.511,0,0,1-.282.155.329.329,0,0,0,.092.057.213.213,0,0,0,.154,0l.023-.008.016.018a.236.236,0,0,0,.062.047.371.371,0,0,0,.234.029.456.456,0,0,0,.226-.106.752.752,0,0,1-.24.013l.007-.071a.5.5,0,0,0,.486-.187.438.438,0,0,0,.047-.087h0l.008-.022a.645.645,0,0,1-.2.055,1.234,1.234,0,0,1-.272,0l.007-.071a1.162,1.162,0,0,0,.256,0,.468.468,0,0,0,.256-.1.289.289,0,0,0,.1-.2c0-.005,0-.01,0-.016a.572.572,0,0,1-.314.123,1.3,1.3,0,0,1-.188.008V148.3a1.224,1.224,0,0,0,.178-.008.5.5,0,0,0,.282-.11.3.3,0,0,0,.092-.2.537.537,0,0,1-.455.142l.006-.071a.436.436,0,0,0,.449-.189.362.362,0,0,0,.047-.141h0a.456.456,0,0,0-.123-.311l-.012-.017a.432.432,0,0,1-.046.3.277.277,0,0,1-.1.094h0c-.184.1-.358,0-.521-.1Z" transform="translate(-1651.361 -146.072)" fill="#ffc107"/>
            <path id="Path_471" data-name="Path 471" d="M1642.281,155.018a.857.857,0,0,0,.164.468.758.758,0,0,0,.05.059.511.511,0,0,0-.037-.3.68.68,0,0,0-.177-.227Z" transform="translate(-1640.169 -153.502)" fill="#ffc107"/>
            <path id="Path_472" data-name="Path 472" d="M1632.146,193.253l-.007,0-.034-.022-.016.011.027.012.018.011.011-.007Z" transform="translate(-1630.247 -190.7)" fill="#ffc107"/>
            <path id="Path_473" data-name="Path 473" d="M1623.989,161.181a1.121,1.121,0,0,1-.173-.442.762.762,0,0,0,.035.349.482.482,0,0,1,.021.3l-.068-.016a.717.717,0,0,0-.075-.324l-.013-.033a.458.458,0,0,1-.019.115h0a.368.368,0,0,1-.074.111.174.174,0,0,0-.057.107.286.286,0,0,0,.075.191.242.242,0,0,0,.029.027l.024.016a.329.329,0,0,0,.045-.02.219.219,0,0,0,.045-.032l.024-.022.024.022a.281.281,0,0,0,.046.033.3.3,0,0,0,.036.018.432.432,0,0,0,.121-.177.386.386,0,0,0,.013-.044.318.318,0,0,0,.006-.043h0a.473.473,0,0,0-.064-.131Z" transform="translate(-1621.949 -159.072)" fill="#fc544b"/>
            <path id="Path_474" data-name="Path 474" d="M1563.28,147.649l-.063.036c-.163.1-.336.2-.52.1h0a.283.283,0,0,1-.053-.037.278.278,0,0,1-.048-.057.432.432,0,0,1-.046-.3l-.012.017a.456.456,0,0,0-.123.311h0a.357.357,0,0,0,.016.071.372.372,0,0,0,.031.07.436.436,0,0,0,.449.189l.006.071a.537.537,0,0,1-.455-.142.3.3,0,0,0,.092.2.5.5,0,0,0,.282.11,1.226,1.226,0,0,0,.178.008v.071a1.3,1.3,0,0,1-.188-.008.572.572,0,0,1-.315-.123c0,.005,0,.01,0,.016a.288.288,0,0,0,.1.2.469.469,0,0,0,.256.1,1.163,1.163,0,0,0,.256,0l.007.071a1.235,1.235,0,0,1-.272,0,.642.642,0,0,1-.2-.055l.008.022h0a.457.457,0,0,0,.047.087.5.5,0,0,0,.486.187l.007.071a.752.752,0,0,1-.24-.013.457.457,0,0,0,.226.106.37.37,0,0,0,.233-.029.226.226,0,0,0,.062-.047l.016-.018.022.008a.213.213,0,0,0,.154,0,.326.326,0,0,0,.092-.057.51.51,0,0,1-.282-.155.625.625,0,0,1-.159-.41h0v0h0v0h0a.751.751,0,0,1,.1-.33.421.421,0,0,0,.064-.183.173.173,0,0,0,0-.019.176.176,0,0,0-.083-.1.2.2,0,0,0-.12-.028l-.012,0Z" transform="translate(-1562.413 -146.072)" fill="#ffc107"/>
            <path id="Path_475" data-name="Path 475" d="M1617.023,155.487a.856.856,0,0,0,.164-.468.684.684,0,0,0-.176.227.512.512,0,0,0-.038.3.685.685,0,0,0,.05-.059Z" transform="translate(-1615.523 -153.502)" fill="#ffc107"/>
            <path id="Path_476" data-name="Path 476" d="M1627.224,128.966h0l.16.173.16-.173a.068.068,0,0,0,.011-.065.088.088,0,0,0-.005-.013h0l-.007-.011h0l-.158-.2-.158.2a.078.078,0,0,0-.013.068.06.06,0,0,0,0,.012l.007.01Z" transform="translate(-1625.496 -127.858)" fill="#ffc107"/>
            <path id="Path_477" data-name="Path 477" d="M1600.711,144.011l-.126-.136v.218c0,.025,0,.048,0,.071a.926.926,0,0,1-.179.518.415.415,0,0,1-.24.178h-.007a.064.064,0,0,1-.029-.011.12.12,0,0,1-.021-.019.243.243,0,0,1-.057-.162h0a.67.67,0,0,1,.028-.136.3.3,0,0,0-.025-.3.181.181,0,0,0-.216-.053.3.3,0,0,1,.045.021.245.245,0,0,1,.116.147.24.24,0,0,1,.006.028.445.445,0,0,1-.07.223.7.7,0,0,0-.1.3v0a.554.554,0,0,0,.14.363.449.449,0,0,0,.348.142h.021l.011.014a.509.509,0,0,0,.15.131.631.631,0,0,0,.128.054l-.007-.008a.931.931,0,0,0-.092-.084l-.028-.022.021-.028a.439.439,0,0,0,.051-.086.647.647,0,0,0,.036-.1l0-.017.016-.007a.059.059,0,0,0,.017-.011.1.1,0,0,0,.016-.019l.017-.025-.019.011a.42.42,0,0,1-.071.03l-.027,0-.006,0a.292.292,0,0,1-.043-.028.316.316,0,0,1-.037-.035.356.356,0,0,1-.093-.24.225.225,0,0,1,.075-.153.311.311,0,0,0,.061-.09h0a.431.431,0,0,0,.014-.1.42.42,0,0,1,.028-.147l.062.006a.376.376,0,0,1,.107-.31l.059.036v0h0a.764.764,0,0,0,.15.555.4.4,0,0,1,.074.172h0a.364.364,0,0,1-.009.053.381.381,0,0,1-.015.052.5.5,0,0,1-.16.222l-.015.011-.011,0h0a.058.058,0,0,0,.017.011l.016.007,0,.017a.635.635,0,0,0,.036.1.472.472,0,0,0,.051.086l.022.028-.027.022a.877.877,0,0,0-.091.084l-.007.008a.641.641,0,0,0,.128-.054.5.5,0,0,0,.15-.131l.011-.014h.02a.449.449,0,0,0,.348-.142.553.553,0,0,0,.14-.363v0a.7.7,0,0,0-.1-.3.456.456,0,0,1-.071-.222h0c0-.01,0-.019.006-.028a.246.246,0,0,1,.116-.147.3.3,0,0,1,.045-.021.181.181,0,0,0-.216.053.3.3,0,0,0-.025.3.624.624,0,0,1,.028.136h0a.243.243,0,0,1-.057.162.129.129,0,0,1-.021.019.065.065,0,0,1-.029.011h-.007a.415.415,0,0,1-.24-.178.932.932,0,0,1-.179-.518c0-.022,0-.046,0-.071v-.218l-.125.136-.026.028-.026-.028Z" transform="translate(-1598.85 -142.654)" fill="#f9ac50"/>
            <path id="Path_478" data-name="Path 478" d="M1604.106,98.308h0l.182,1a.88.88,0,0,1,.193-.2l0-.28-.007-.011a.13.13,0,0,1-.011-.026.151.151,0,0,1,.027-.133l.186-.232.028-.035.028.035.186.232h0a.142.142,0,0,1,.015.023h0a.149.149,0,0,1-.006.145l0,.28a.879.879,0,0,1,.193.2l.182-1h0a.611.611,0,0,1,.073-.212.207.207,0,0,1,.07-.071.14.14,0,0,1,.051-.017.4.4,0,0,0-.082-.064.122.122,0,0,0-.08-.019.1.1,0,0,0-.062.046.457.457,0,0,0-.061.173l-.1.542-.07-.012.12-.755c.007-.043-.033-.064-.08-.088a.579.579,0,0,1-.084-.05l-.084.746-.071,0,.007-.685c0-.036-.022-.051-.049-.068a.256.256,0,0,1-.093-.088.252.252,0,0,1-.093.088c-.027.017-.05.032-.049.068l.007.685-.071,0-.084-.746a.578.578,0,0,1-.084.05c-.048.025-.087.045-.08.088l.12.755-.07.012-.1-.542a.458.458,0,0,0-.061-.173.1.1,0,0,0-.062-.046.122.122,0,0,0-.08.019.393.393,0,0,0-.082.064.141.141,0,0,1,.051.017.207.207,0,0,1,.07.071.6.6,0,0,1,.073.212Z" transform="translate(-1602.815 -97.682)" fill="#ffc107"/>
          </g>
          <path id="Path_479" data-name="Path 479" d="M1391.584,271.951c-.4.8-3.954-1.97-6.674-1.97s-6.272,2.773-6.674,1.97a1.511,1.511,0,0,1-.081-.78,10.446,10.446,0,0,1,.686-2.418s3.342-1.923,6.069-1.923,6.069,1.923,6.069,1.923a10.444,10.444,0,0,1,.686,2.418A1.509,1.509,0,0,1,1391.584,271.951Z" transform="translate(-1378.141 -260.807)" fill="#3c7ceb"/>
        </g>
      </g>
      <g id="Mask_Group_1263" data-name="Mask Group 1263" transform="translate(0 6.023)" clip-path="url(#clip-path)">
        <circle id="Ellipse_144" data-name="Ellipse 144" cx="5.222" cy="5.222" r="5.222" transform="translate(-3.675 -5.099)" fill="#6bb1fe" opacity="0.4"/>
      </g>
    </g>
  </g>
</svg>
