<svg xmlns="http://www.w3.org/2000/svg" xmlns:xlink="http://www.w3.org/1999/xlink" width="40" height="40" viewBox="0 0 40 40">
  <defs>
    <linearGradient id="linear-gradient" x1="0.813" y1="0.056" x2="0.331" y2="1" gradientUnits="objectBoundingBox">
      <stop offset="0" stop-color="#8357d0"/>
      <stop offset="0.379" stop-color="#ce2c9e"/>
      <stop offset="0.745" stop-color="#e66059"/>
      <stop offset="1" stop-color="#fbc575"/>
    </linearGradient>
  </defs>
  <g id="icon-share-instagram" transform="translate(-275 -1621)">
    <circle id="Ellipse_412" data-name="Ellipse 412" cx="20" cy="20" r="20" transform="translate(275 1621)" fill="url(#linear-gradient)"/>
    <path id="instagram-brands" d="M11.1,37.269a5.965,5.965,0,0,0-2.675.658A5.632,5.632,0,0,0,5.375,43a5.73,5.73,0,1,0,5.73-5.73Zm0,9.455A3.725,3.725,0,1,1,14.83,43,3.732,3.732,0,0,1,11.1,46.724Zm7.3-9.689A1.337,1.337,0,1,1,17.069,35.7,1.333,1.333,0,0,1,18.406,37.035Zm3.8,1.356A6.614,6.614,0,0,0,20.4,33.709,6.658,6.658,0,0,0,15.713,31.9c-1.845-.1-7.376-.1-9.221,0a6.648,6.648,0,0,0-4.683,1.8A6.635,6.635,0,0,0,0,38.386c-.1,1.845-.1,7.376,0,9.221A6.614,6.614,0,0,0,1.809,52.29,6.666,6.666,0,0,0,6.492,54.1c1.845.1,7.376.1,9.221,0A6.614,6.614,0,0,0,20.4,52.29,6.657,6.657,0,0,0,22.2,47.607C22.305,45.762,22.305,40.237,22.2,38.391Zm-2.384,11.2a3.771,3.771,0,0,1-2.124,2.124c-1.471.583-4.962.449-6.588.449s-5.122.13-6.588-.449a3.771,3.771,0,0,1-2.124-2.124c-.583-1.471-.449-4.962-.449-6.588s-.13-5.122.449-6.588a3.771,3.771,0,0,1,2.124-2.124c1.471-.583,4.962-.449,6.588-.449s5.122-.13,6.588.449a3.771,3.771,0,0,1,2.124,2.124,5.81,5.81,0,0,1,.286,1.195A38.833,38.833,0,0,1,20.266,43C20.266,44.625,20.4,48.121,19.817,49.587Z" transform="translate(283.898 1598.001)" fill="#fff"/>
  </g>
</svg>
