<svg xmlns="http://www.w3.org/2000/svg" xmlns:xlink="http://www.w3.org/1999/xlink" width="30" height="30" viewBox="0 0 30 30">
  <defs>
    <clipPath id="clip-path">
      <path id="Path_37334" data-name="Path 37334" d="M16.109,12.945V.863A.861.861,0,0,0,15.246,0H3.452A3.453,3.453,0,0,0,0,3.452V14.959a3.453,3.453,0,0,0,3.452,3.452H15.246a.861.861,0,0,0,.863-.863v-.575a.87.87,0,0,0-.32-.672,8.019,8.019,0,0,1,0-2.686.857.857,0,0,0,.32-.669ZM4.6,4.818A.216.216,0,0,1,4.818,4.6h7.623a.216.216,0,0,1,.216.216v.719a.216.216,0,0,1-.216.216H4.818A.216.216,0,0,1,4.6,5.538Zm0,2.3A.216.216,0,0,1,4.818,6.9h7.623a.216.216,0,0,1,.216.216v.719a.216.216,0,0,1-.216.216H4.818A.216.216,0,0,1,4.6,7.839Zm9.112,8.99H3.452a1.151,1.151,0,0,1,0-2.3H13.714A12.945,12.945,0,0,0,13.714,16.109Z" transform="translate(0 0)" fill="#2680eb"/>
    </clipPath>
  </defs>
  <g id="icon-kegiatan-materi" transform="translate(-792.407 -462.407)">
    <circle id="Ellipse_84" data-name="Ellipse 84" cx="15" cy="15" r="15" transform="translate(792.407 462.407)" fill="#d9eeff" opacity="0.5"/>
    <path id="Path_212" data-name="Path 212" d="M16.109,12.945V.863A.861.861,0,0,0,15.246,0H3.452A3.453,3.453,0,0,0,0,3.452V14.959a3.453,3.453,0,0,0,3.452,3.452H15.246a.861.861,0,0,0,.863-.863v-.575a.87.87,0,0,0-.32-.672,8.019,8.019,0,0,1,0-2.686.857.857,0,0,0,.32-.669ZM4.6,4.818A.216.216,0,0,1,4.818,4.6h7.623a.216.216,0,0,1,.216.216v.719a.216.216,0,0,1-.216.216H4.818A.216.216,0,0,1,4.6,5.538Zm0,2.3A.216.216,0,0,1,4.818,6.9h7.623a.216.216,0,0,1,.216.216v.719a.216.216,0,0,1-.216.216H4.818A.216.216,0,0,1,4.6,7.839Zm9.112,8.99H3.452a1.151,1.151,0,0,1,0-2.3H13.714A12.945,12.945,0,0,0,13.714,16.109Z" transform="translate(799.045 468.201)" fill="#2680eb"/>
    <g id="Mask_Group_1523" data-name="Mask Group 1523" transform="translate(799.045 468.201)" clip-path="url(#clip-path)">
      <ellipse id="Ellipse_628" data-name="Ellipse 628" cx="8.808" cy="8.808" rx="8.808" ry="8.808" transform="translate(-8.808 -4.602)" fill="#6bb1fe" opacity="0.5"/>
    </g>
  </g>
</svg>
