<svg xmlns="http://www.w3.org/2000/svg" xmlns:xlink="http://www.w3.org/1999/xlink" width="60" height="60" viewBox="0 0 60 60">
  <defs>
    <clipPath id="clip-path">
      <path id="Union_85" data-name="Union 85" d="M25.868,25.339,23.132,23.9a.586.586,0,0,0-.363,0l-2.736,1.44a1.208,1.208,0,0,1-.565.147.968.968,0,0,1-.568-.179,1.046,1.046,0,0,1-.4-.964l1.044-5.621q-.123-.15-.237-.311a4.9,4.9,0,1,1,7.294,0c-.077.107-.156.211-.24.312l.905,4.758.124.761A1.061,1.061,0,0,1,27,25.308a.973.973,0,0,1-.566.179A1.218,1.218,0,0,1,25.868,25.339ZM20.74,15.13a2.211,2.211,0,1,0,2.211-2.211A2.21,2.21,0,0,0,20.74,15.13Zm7.14,7.483-.7-3.712a5.661,5.661,0,1,0-8.522-.086l-.7,3.8H1.833A1.834,1.834,0,0,1,0,20.781V1.833A1.833,1.833,0,0,1,1.833,0H29.446a1.832,1.832,0,0,1,1.831,1.833V20.781a1.833,1.833,0,0,1-1.831,1.833ZM3.854,11.307a.927.927,0,0,0,.927.928h8.913a.929.929,0,1,0,0-1.858H4.781A.93.93,0,0,0,3.854,11.307Zm0-5.033a.928.928,0,0,0,.927.927H25.828a.928.928,0,0,0,0-1.857H4.781A.928.928,0,0,0,3.854,6.273Z" transform="translate(0 -0.001)" fill="#2680eb" stroke="rgba(0,0,0,0)" stroke-miterlimit="10" stroke-width="1"/>
    </clipPath>
  </defs>
  <g id="icon-menu-sertifikat" transform="translate(-292 -583)">
    <g id="Group_3399" data-name="Group 3399" transform="translate(292 583)">
      <path id="Path_40164" data-name="Path 40164" d="M30,0A30,30,0,1,1,0,30,30,30,0,0,1,30,0Z" fill="#fff"/>
    </g>
    <g id="Group_4865" data-name="Group 4865" transform="translate(0 -0.001)">
      <g id="Group_4864" data-name="Group 4864" transform="translate(306.361 600.258)">
        <path id="Path_428" data-name="Path 428" d="M894.828,215.263l-.9-4.758c.084-.1.164-.2.24-.312a4.905,4.905,0,1,0-7.293,0c.075.107.154.21.237.309h0l-1.043,5.623a1.04,1.04,0,0,0,.4.963.963.963,0,0,0,.567.179,1.213,1.213,0,0,0,.566-.148l2.735-1.44a.586.586,0,0,1,.363,0l2.735,1.44a1.214,1.214,0,0,0,.567.148.961.961,0,0,0,.566-.18,1.06,1.06,0,0,0,.388-1.065Zm-4.313-6.137a2.211,2.211,0,1,1,2.211-2.211A2.212,2.212,0,0,1,890.515,209.126Z" transform="translate(-867.565 -191.786)" fill="#2680eb"/>
        <path id="Path_429" data-name="Path 429" d="M619.665,34.62H592.053a1.833,1.833,0,0,0-1.833,1.833V55.4a1.833,1.833,0,0,0,1.833,1.833h16.115l.7-3.8a5.662,5.662,0,1,1,8.521.085l.706,3.713h1.565A1.833,1.833,0,0,0,621.5,55.4V36.453A1.832,1.832,0,0,0,619.665,34.62Zm-15.75,12.234H595A.929.929,0,1,1,595,45h8.913a.929.929,0,1,1,0,1.857Zm12.133-5.034H595a.929.929,0,1,1,0-1.857h21.046a.929.929,0,1,1,0,1.857Z" transform="translate(-590.22 -34.621)" fill="#2680eb"/>
      </g>
      <g id="Mask_Group_3686" data-name="Mask Group 3686" transform="translate(306.361 600.258)" clip-path="url(#clip-path)">
        <ellipse id="Ellipse_852" data-name="Ellipse 852" cx="14.12" cy="14.391" rx="14.12" ry="14.391" transform="translate(-12.602 -11.018)" fill="#6bb1fe" opacity="0.5"/>
      </g>
    </g>
  </g>
</svg>
