<svg xmlns="http://www.w3.org/2000/svg" width="32.004" height="32.004" viewBox="0 0 32.004 32.004">
  <path id="icon-whatsapp-dark" d="M19419,24221l0,0,2.252-8.217a15.869,15.869,0,0,1,13.738-23.785,15.8,15.8,0,0,1,11.283,27.074,15.981,15.981,0,0,1-11.283,4.65h-.006a15.846,15.846,0,0,1-7.58-1.928l-8.4,2.205Zm10.395-23.457a1.448,1.448,0,0,0-1.059.492l-.049.053c-.01.012-.02.021-.031.033a4.361,4.361,0,0,0-1.307,3.221,7.637,7.637,0,0,0,1.607,4.086l.01.01.01.012c.014.021.035.051.063.092a17.173,17.173,0,0,0,6.7,5.885,9.789,9.789,0,0,0,3.836,1.07,6.147,6.147,0,0,0,.924-.074,4.067,4.067,0,0,0,2.67-1.889,3.27,3.27,0,0,0,.225-1.885c-.078-.148-.273-.242-.568-.387l-.01-.006-.17-.082c-.023-.01-2.3-1.141-2.705-1.283a1.345,1.345,0,0,0-.428-.1.545.545,0,0,0-.467.3c-.246.369-.93,1.18-1.258,1.557a.557.557,0,0,1-.426.227.99.99,0,0,1-.432-.129,10.722,10.722,0,0,1-5.391-4.711c-.227-.389-.074-.549.232-.869l.008-.006a4.849,4.849,0,0,0,.926-1.289.742.742,0,0,0-.041-.693c-.062-.131-.42-1-.76-1.834l-.109-.264c-.135-.328-.26-.631-.348-.846-.281-.672-.566-.674-.795-.676a.784.784,0,0,1-.1,0C19429.92,24197.545,19429.664,24197.545,19429.393,24197.545Z" transform="translate(-19418.998 -24188.998)" fill="#3a4166"/>
</svg>
