<svg xmlns="http://www.w3.org/2000/svg" xmlns:xlink="http://www.w3.org/1999/xlink" width="64" height="64" viewBox="0 0 64 64">
  <defs>
    <clipPath id="clip-path">
      <path id="Path_256" data-name="Path 256" d="M17.444,19.936A9.968,9.968,0,1,0,7.476,9.968,9.967,9.967,0,0,0,17.444,19.936ZM24.9,22.475,21.182,37.381,18.69,26.789l2.492-4.361H13.706L16.2,26.789,13.706,37.381,9.984,22.475A10.448,10.448,0,0,0,0,32.895v3.24a3.739,3.739,0,0,0,3.738,3.738H31.15a3.739,3.739,0,0,0,3.738-3.738v-3.24A10.448,10.448,0,0,0,24.9,22.475Z" transform="translate(0 0)" fill="#2680eb"/>
    </clipPath>
  </defs>
  <g id="icon-faq-role-kepsek" transform="translate(-231 -2139)">
    <g id="icon-role-kepala-sekolah" transform="translate(231 2139)">
      <circle id="Ellipse_1" data-name="Ellipse 1" cx="32" cy="32" r="32" fill="#d9eeff" opacity="0.7"/>
      <path id="Path_249" data-name="Path 249" d="M17.444,19.936A9.968,9.968,0,1,0,7.476,9.968,9.967,9.967,0,0,0,17.444,19.936ZM24.9,22.475,21.182,37.381,18.69,26.789l2.492-4.361H13.706L16.2,26.789,13.706,37.381,9.984,22.475A10.448,10.448,0,0,0,0,32.895v3.24a3.739,3.739,0,0,0,3.738,3.738H31.15a3.739,3.739,0,0,0,3.738-3.738v-3.24A10.448,10.448,0,0,0,24.9,22.475Z" transform="translate(14.518 11.465)" fill="#2680eb"/>
      <g id="Mask_Group_2" data-name="Mask Group 2" transform="translate(14.518 11.465)" clip-path="url(#clip-path)">
        <circle id="Ellipse_83" data-name="Ellipse 83" cx="27" cy="27" r="27" transform="translate(-35.517 -15.465)" fill="#6bb1fe" opacity="0.5"/>
      </g>
    </g>
  </g>
</svg>
