<svg id="icon-program-sekolah" xmlns="http://www.w3.org/2000/svg" xmlns:xlink="http://www.w3.org/1999/xlink" width="35" height="35" viewBox="0 0 35 35">
  <defs>
    <clipPath id="clip-path">
      <path id="Path_37165" data-name="Path 37165" d="M26.125,12.061A13.946,13.946,0,0,1,12.179,26.007,14.24,14.24,0,0,1,7.821,25.3S6.78,15.318,12.179,10.577C17.348,6.037,26.125,9.057,26.125,12.061Z" transform="translate(-7.74 -8.259)" fill="#6bb1fe" opacity="0.5"/>
    </clipPath>
  </defs>
  <circle id="Ellipse_111" data-name="Ellipse 111" cx="17.5" cy="17.5" r="17.5" fill="#fff"/>
  <g id="Group_3329" data-name="Group 3329" transform="translate(5.927 3.624)">
    <g id="Group_2001" data-name="Group 2001" transform="translate(0.42 2.347)">
      <path id="Subtraction_40" data-name="Subtraction 40" d="M22.942,16.5H1.015a1.015,1.015,0,0,1,0-2.03h.2V6.442a.5.5,0,0,1,.5-.5h6.4V3.922H7.878a.714.714,0,0,1-.713-.713L11.948,0l4.487,3.209h0l0,0c-.057.118-.358.707-.711.707h-.292V5.943h6.4a.5.5,0,0,1,.5.5v8.027h.608a1.015,1.015,0,0,1,0,2.03ZM11.776,11.221a2.033,2.033,0,0,0-2.03,2.03v2.436a.407.407,0,0,0,.407.406H13.4a.406.406,0,0,0,.406-.406V13.252A2.033,2.033,0,0,0,11.776,11.221Zm7.918,0a1.016,1.016,0,0,0-1.015,1.015v.406a1.015,1.015,0,0,0,2.03,0v-.406A1.016,1.016,0,0,0,19.694,11.221Zm-2.842,0a1.016,1.016,0,0,0-1.015,1.015v.406a1.015,1.015,0,0,0,2.03,0v-.406A1.016,1.016,0,0,0,16.852,11.221Zm-10.151,0a1.016,1.016,0,0,0-1.015,1.015v.406a1.015,1.015,0,0,0,2.03,0v-.406A1.016,1.016,0,0,0,6.7,11.221Zm-2.843,0a1.016,1.016,0,0,0-1.015,1.015v.406a1.015,1.015,0,0,0,2.03,0v-.406A1.016,1.016,0,0,0,3.857,11.221ZM19.694,8.379a1.015,1.015,0,1,0,1.015,1.015A1.016,1.016,0,0,0,19.694,8.379Zm-2.842,0a1.015,1.015,0,1,0,1.015,1.015A1.016,1.016,0,0,0,16.852,8.379ZM6.7,8.379A1.015,1.015,0,1,0,7.716,9.394,1.016,1.016,0,0,0,6.7,8.379Zm-2.843,0A1.015,1.015,0,1,0,4.873,9.394,1.016,1.016,0,0,0,3.857,8.379Zm8.122-4.873A1.421,1.421,0,1,0,13.4,4.928,1.423,1.423,0,0,0,11.979,3.506Z" transform="translate(0 2.563)" fill="#2680eb"/>
      <path id="Path_2608" data-name="Path 2608" d="M-12649.98,1265.688v.824l.529.413" transform="translate(12661.788 -1258.957)" fill="none" stroke="#2680eb" stroke-linecap="round" stroke-width="0.3"/>
      <path id="flag-solid" d="M9.894.548c-.3,0-.543-.193-.916-.193A1.078,1.078,0,0,0,8.6.422a.311.311,0,1,0-.467.144V2.706a.133.133,0,0,0,.133.133h.089a.133.133,0,0,0,.133-.133V2.183a1.549,1.549,0,0,1,.635-.123c.3,0,.543.193.916.193a1.161,1.161,0,0,0,.679-.227.177.177,0,0,0,.077-.146V.532a.177.177,0,0,0-.252-.161A1.614,1.614,0,0,1,9.894.548Z" transform="translate(3.622 0)" fill="#2580eb"/>
    </g>
    <g id="Mask_Group_1452" data-name="Mask Group 1452" clip-path="url(#clip-path)">
      <g id="Group_3216" data-name="Group 3216" transform="translate(0.42 2.348)" opacity="0.5">
        <path id="Union_74" data-name="Union 74" d="M1.015,19.062a1.015,1.015,0,1,1,0-2.03h.2V9a.5.5,0,0,1,.5-.5h6.4V6.484H7.878a.714.714,0,0,1-.713-.713l4.59-3.08V.565a.311.311,0,1,1,.488-.275.306.306,0,0,1-.02.13A1.077,1.077,0,0,1,12.6.355c.373,0,.619.193.916.193a1.62,1.62,0,0,0,.649-.176.177.177,0,0,1,.252.16V1.88a.179.179,0,0,1-.076.147,1.163,1.163,0,0,1-.679.226c-.373,0-.619-.193-.916-.193a1.554,1.554,0,0,0-.635.122v.5l4.325,3.094h0l0,.005c-.057.118-.357.707-.711.707h-.293V8.505h6.4a.5.5,0,0,1,.5.5v8.027h.608a1.015,1.015,0,1,1,0,2.03Zm8.73-3.248V18.25a.407.407,0,0,0,.407.406H13.4a.407.407,0,0,0,.406-.406V15.814a2.03,2.03,0,0,0-4.061,0ZM18.679,14.8V15.2a1.015,1.015,0,1,0,2.03,0V14.8a1.015,1.015,0,0,0-2.03,0Zm-2.842,0V15.2a1.015,1.015,0,1,0,2.03,0V14.8a1.015,1.015,0,0,0-2.03,0Zm-10.151,0V15.2a1.015,1.015,0,1,0,2.03,0V14.8a1.015,1.015,0,0,0-2.03,0Zm-2.843,0V15.2a1.015,1.015,0,1,0,2.03,0V14.8a1.015,1.015,0,0,0-2.03,0Zm15.836-2.842a1.015,1.015,0,1,0,1.015-1.015A1.016,1.016,0,0,0,18.679,11.957Zm-2.842,0a1.015,1.015,0,1,0,1.015-1.015A1.016,1.016,0,0,0,15.836,11.957Zm-10.151,0A1.015,1.015,0,1,0,6.7,10.941,1.016,1.016,0,0,0,5.685,11.957Zm-2.843,0a1.015,1.015,0,1,0,1.015-1.015A1.016,1.016,0,0,0,2.842,11.957ZM10.558,7.49a1.421,1.421,0,1,0,1.421-1.421A1.423,1.423,0,0,0,10.558,7.49Z" transform="translate(0 0)" fill="#6bb1fe"/>
        <path id="Path_2608-2" data-name="Path 2608" d="M-12649.98,1265.688v.824l.529.413" transform="translate(12661.788 -1258.957)" fill="none" stroke="#6bb1fe" stroke-linecap="round" stroke-width="0.3"/>
      </g>
    </g>
  </g>
</svg>
