<svg xmlns="http://www.w3.org/2000/svg" xmlns:xlink="http://www.w3.org/1999/xlink" width="60" height="60" viewBox="0 0 60 60">
  <defs>
    <clipPath id="clip-path">
      <path id="Path_37165" data-name="Path 37165" d="M38.746,14.67a23.519,23.519,0,0,1-23.52,23.519A24.016,24.016,0,0,1,7.876,37s-1.755-16.835,7.35-24.829C23.943,4.513,38.746,9.6,38.746,14.67Z" transform="translate(-7.74 -8.259)" fill="#6bb1fe" opacity="0.5"/>
    </clipPath>
  </defs>
  <g id="icon-menu-anggota" transform="translate(-292 -491.785)">
    <g id="Group_3399" data-name="Group 3399" transform="translate(292 491.784)">
      <circle id="Ellipse_302" data-name="Ellipse 302" cx="30" cy="30" r="30" transform="translate(0 0)" fill="#fff"/>
    </g>
    <g id="Group_4593" data-name="Group 4593" transform="translate(301.327 498.245)">
      <g id="Group_2001" data-name="Group 2001" transform="translate(0.709 3.959)">
        <path id="Subtraction_40" data-name="Subtraction 40" d="M38.691,27.825H1.712a1.712,1.712,0,0,1,0-3.424h.343V10.521a.5.5,0,0,1,.5-.5H13.7V6.615h-.41a1.2,1.2,0,0,1-1.2-1.2L20.15,0l7.568,5.412h0l0,0c-.058.123-.582,1.2-1.2,1.2h-.494v3.406H37.164a.5.5,0,0,1,.5.5V24.4h1.028a1.712,1.712,0,0,1,0,3.424Zm-18.832-8.9a3.428,3.428,0,0,0-3.425,3.424v4.108a.686.686,0,0,0,.685.685H22.6a.686.686,0,0,0,.685-.685V22.347A3.427,3.427,0,0,0,19.859,18.923Zm13.353,0A1.714,1.714,0,0,0,31.5,20.635v.685a1.712,1.712,0,0,0,3.424,0v-.685A1.714,1.714,0,0,0,33.213,18.923Zm-4.793,0a1.714,1.714,0,0,0-1.713,1.712v.685a1.712,1.712,0,0,0,3.425,0v-.685A1.714,1.714,0,0,0,28.419,18.923Zm-17.12,0a1.714,1.714,0,0,0-1.712,1.712v.685a1.712,1.712,0,0,0,3.424,0v-.685A1.714,1.714,0,0,0,11.3,18.923Zm-4.793,0a1.714,1.714,0,0,0-1.713,1.712v.685a1.712,1.712,0,0,0,3.425,0v-.685A1.714,1.714,0,0,0,6.506,18.923ZM33.213,14.13a1.712,1.712,0,1,0,1.712,1.712A1.714,1.714,0,0,0,33.213,14.13Zm-4.793,0a1.712,1.712,0,1,0,1.712,1.712A1.714,1.714,0,0,0,28.419,14.13Zm-17.12,0a1.712,1.712,0,1,0,1.712,1.712A1.714,1.714,0,0,0,11.3,14.13Zm-4.793,0a1.712,1.712,0,1,0,1.712,1.712A1.714,1.714,0,0,0,6.506,14.13ZM20.2,5.913a2.4,2.4,0,1,0,2.4,2.4A2.4,2.4,0,0,0,20.2,5.913Z" transform="translate(0 4.323)" fill="#2680eb"/>
        <path id="Path_2608" data-name="Path 2608" d="M-12649.983,1265.688v1.39l.894.7" transform="translate(12669.896 -1254.338)" fill="none" stroke="#2680eb" stroke-linecap="round" stroke-width="0.3"/>
        <path id="flag-solid" d="M11.194.924c-.5,0-.915-.325-1.545-.325a1.818,1.818,0,0,0-.636.112.524.524,0,1,0-.788.242v3.61a.224.224,0,0,0,.224.224H8.6a.224.224,0,0,0,.224-.224V3.681a2.613,2.613,0,0,1,1.07-.207c.5,0,.915.325,1.545.325a1.958,1.958,0,0,0,1.146-.382.3.3,0,0,0,.129-.246V.9a.3.3,0,0,0-.425-.271A2.723,2.723,0,0,1,11.194.924Z" transform="translate(11.6 0)" fill="#2580eb"/>
      </g>
      <g id="Mask_Group_1452" data-name="Mask Group 1452" clip-path="url(#clip-path)">
        <g id="Group_3216" data-name="Group 3216" transform="translate(0.71 3.959)" opacity="0.5">
          <path id="Union_74" data-name="Union 74" d="M1.712,32.146a1.712,1.712,0,0,1,0-3.424h.343V14.842a.5.5,0,0,1,.5-.5H13.7V10.936h-.41a1.2,1.2,0,0,1-1.2-1.2l7.74-5.193V.954a.524.524,0,1,1,.822-.463.511.511,0,0,1-.033.221A1.822,1.822,0,0,1,21.248.6c.63,0,1.044.326,1.545.326a2.732,2.732,0,0,0,1.094-.3A.3.3,0,0,1,24.313.9V3.171a.3.3,0,0,1-.13.247,1.962,1.962,0,0,1-1.146.383c-.63,0-1.044-.326-1.545-.326a2.618,2.618,0,0,0-1.07.207v.834l7.3,5.217,0,.005c-.059.122-.582,1.2-1.2,1.2h-.494v3.406H37.164a.5.5,0,0,1,.5.5V28.723h1.028a1.712,1.712,0,0,1,0,3.424Zm14.723-5.478v4.109a.686.686,0,0,0,.685.685H22.6a.686.686,0,0,0,.685-.685V26.668a3.424,3.424,0,0,0-6.848,0ZM31.5,24.956v.685a1.712,1.712,0,1,0,3.424,0v-.685a1.712,1.712,0,0,0-3.424,0Zm-4.794,0v.685a1.712,1.712,0,0,0,3.425,0v-.685a1.712,1.712,0,0,0-3.425,0Zm-17.119,0v.685a1.712,1.712,0,0,0,3.424,0v-.685a1.712,1.712,0,0,0-3.424,0Zm-4.794,0v.685a1.712,1.712,0,0,0,3.424,0v-.685a1.712,1.712,0,0,0-3.424,0ZM31.5,20.163a1.712,1.712,0,1,0,1.712-1.712A1.714,1.714,0,0,0,31.5,20.163Zm-4.794,0a1.712,1.712,0,1,0,1.713-1.712A1.714,1.714,0,0,0,26.707,20.163Zm-17.119,0A1.712,1.712,0,1,0,11.3,18.451,1.714,1.714,0,0,0,9.588,20.163Zm-4.794,0a1.712,1.712,0,1,0,1.713-1.712A1.714,1.714,0,0,0,4.793,20.163ZM17.8,12.631a2.4,2.4,0,1,0,2.4-2.4A2.4,2.4,0,0,0,17.8,12.631Z" transform="translate(0 0)" fill="#6bb1fe"/>
          <path id="Path_2608-2" data-name="Path 2608" d="M-12649.983,1265.688v1.39l.894.7" transform="translate(12669.895 -1254.338)" fill="none" stroke="#6bb1fe" stroke-linecap="round" stroke-width="0.3"/>
        </g>
      </g>
    </g>
  </g>
</svg>
