<svg xmlns="http://www.w3.org/2000/svg" xmlns:xlink="http://www.w3.org/1999/xlink" width="31.931" height="25.318" viewBox="0 0 31.931 25.318">
  <defs>
    <clipPath id="clip-path">
      <path id="Path_37165" data-name="Path 37165" d="M31.876,13.25A18.309,18.309,0,0,1,13.568,31.558a18.7,18.7,0,0,1-5.722-.927s-1.073-13.7,8.927-17.381C22.439,9.26,31.273,11.594,31.876,13.25Z" transform="translate(-7.74 -8.259)" fill="#a7aab8"/>
    </clipPath>
  </defs>
  <g id="icon-bottom-nav-anggota" transform="translate(-0.072 -2.789)">
    <g id="Group_2001" data-name="Group 2001" transform="translate(0.552 3.082)">
      <path id="Subtraction_40" data-name="Subtraction 40" d="M30.118,21.66H1.333a1.332,1.332,0,1,1,0-2.665H1.6V8.3a.5.5,0,0,1,.5-.5h8.562V5.149h-.319a.938.938,0,0,1-.937-.936L15.686,0l5.891,4.213h0l0,0c-.074.155-.465.931-.935.931h-.383V7.8h8.562a.5.5,0,0,1,.5.5V19h.8a1.332,1.332,0,1,1,0,2.665ZM15.459,14.731A2.668,2.668,0,0,0,12.793,17.4v3.2a.534.534,0,0,0,.534.533h4.264a.534.534,0,0,0,.534-.533V17.4A2.668,2.668,0,0,0,15.459,14.731Zm10.395,0a1.334,1.334,0,0,0-1.333,1.332V16.6a1.333,1.333,0,0,0,2.666,0v-.534A1.334,1.334,0,0,0,25.854,14.731Zm-3.731,0a1.334,1.334,0,0,0-1.333,1.332V16.6a1.333,1.333,0,0,0,2.666,0v-.534A1.334,1.334,0,0,0,22.123,14.731Zm-13.327,0a1.334,1.334,0,0,0-1.333,1.332V16.6a1.333,1.333,0,0,0,2.666,0v-.534A1.334,1.334,0,0,0,8.8,14.731Zm-3.731,0a1.334,1.334,0,0,0-1.333,1.332V16.6a1.333,1.333,0,0,0,2.666,0v-.534A1.334,1.334,0,0,0,5.064,14.731ZM25.854,11a1.332,1.332,0,1,0,1.333,1.332A1.334,1.334,0,0,0,25.854,11Zm-3.731,0a1.332,1.332,0,1,0,1.333,1.332A1.334,1.334,0,0,0,22.123,11ZM8.8,11a1.332,1.332,0,1,0,1.333,1.332A1.334,1.334,0,0,0,8.8,11ZM5.064,11A1.332,1.332,0,1,0,6.4,12.332,1.334,1.334,0,0,0,5.064,11ZM15.726,4.6a1.866,1.866,0,1,0,1.866,1.866A1.868,1.868,0,0,0,15.726,4.6Z" transform="translate(0 3.365)" fill="#9b9eaf"/>
      <path id="Path_2608" data-name="Path 2608" d="M-12649.983,1265.688v1.082l.7.542" transform="translate(12665.484 -1256.852)" fill="none" stroke="#a7aab8" stroke-linecap="round" stroke-width="0.3"/>
      <path id="flag-solid" d="M10.486.719c-.39,0-.712-.253-1.2-.253a1.415,1.415,0,0,0-.5.087.408.408,0,1,0-.614.189v2.81a.175.175,0,0,0,.175.175h.116a.175.175,0,0,0,.175-.175V2.866A2.034,2.034,0,0,1,9.474,2.7c.39,0,.712.253,1.2.253a1.524,1.524,0,0,0,.892-.3.233.233,0,0,0,.1-.192V.7a.233.233,0,0,0-.331-.211A2.119,2.119,0,0,1,10.486.719Z" transform="translate(7.258 0)" fill="#9b9eaf"/>
    </g>
    <g id="Mask_Group_1452" data-name="Mask Group 1452" clip-path="url(#clip-path)">
      <g id="Group_3216" data-name="Group 3216" transform="translate(0.553 3.082)">
        <path id="Union_74" data-name="Union 74" d="M1.333,25.024a1.332,1.332,0,1,1,0-2.665H1.6V11.664a.5.5,0,0,1,.5-.5h8.562V8.512h-.319a.938.938,0,0,1-.937-.936l6.026-4.042V.742a.408.408,0,1,1,.64-.36.415.415,0,0,1-.026.172,1.411,1.411,0,0,1,.5-.087c.49,0,.813.253,1.2.253a2.123,2.123,0,0,0,.851-.232A.234.234,0,0,1,18.926.7V2.468a.233.233,0,0,1-.1.192,1.524,1.524,0,0,1-.892.3c-.491,0-.813-.253-1.2-.253a2.042,2.042,0,0,0-.833.16v.65l5.68,4.062,0,.005c-.074.155-.465.931-.935.931h-.383v2.652h8.562a.5.5,0,0,1,.5.5V22.359h.8a1.332,1.332,0,1,1,0,2.665Zm11.461-4.264v3.2a.534.534,0,0,0,.534.533h4.264a.534.534,0,0,0,.534-.533v-3.2a2.666,2.666,0,0,0-5.332,0Zm11.728-1.333v.534a1.333,1.333,0,0,0,2.666,0v-.534a1.333,1.333,0,0,0-2.666,0Zm-3.731,0v.534a1.333,1.333,0,0,0,2.666,0v-.534a1.333,1.333,0,0,0-2.666,0Zm-13.327,0v.534a1.333,1.333,0,0,0,2.666,0v-.534a1.333,1.333,0,0,0-2.666,0Zm-3.731,0v.534a1.333,1.333,0,0,0,2.666,0v-.534a1.333,1.333,0,0,0-2.666,0ZM24.521,15.7a1.333,1.333,0,1,0,1.333-1.332A1.335,1.335,0,0,0,24.521,15.7Zm-3.731,0a1.333,1.333,0,1,0,1.333-1.332A1.335,1.335,0,0,0,20.79,15.7Zm-13.327,0A1.333,1.333,0,1,0,8.8,14.363,1.335,1.335,0,0,0,7.463,15.7Zm-3.731,0a1.333,1.333,0,1,0,1.333-1.332A1.335,1.335,0,0,0,3.731,15.7ZM13.86,9.832a1.866,1.866,0,1,0,1.866-1.866A1.868,1.868,0,0,0,13.86,9.832Z" transform="translate(0 0)" fill="#a7aab8"/>
        <path id="Path_2608-2" data-name="Path 2608" d="M-12649.983,1265.688v1.082l.7.542" transform="translate(12665.483 -1256.853)" fill="none" stroke="#a7aab8" stroke-linecap="round" stroke-width="0.3"/>
      </g>
    </g>
  </g>
</svg>
