<svg xmlns="http://www.w3.org/2000/svg" xmlns:xlink="http://www.w3.org/1999/xlink" width="64" height="64" viewBox="0 0 64 64">
  <defs>
    <clipPath id="clip-path">
      <path id="Path_38515" data-name="Path 38515" d="M27.764,22.31V1.487A1.484,1.484,0,0,0,26.276,0H5.949A5.951,5.951,0,0,0,0,5.949V25.781A5.951,5.951,0,0,0,5.949,31.73H26.276a1.484,1.484,0,0,0,1.487-1.487v-.992a1.5,1.5,0,0,0-.552-1.159,13.82,13.82,0,0,1,0-4.629,1.477,1.477,0,0,0,.552-1.153ZM7.932,8.3A.373.373,0,0,1,8.3,7.932H21.442a.373.373,0,0,1,.372.372V9.544a.373.373,0,0,1-.372.372H8.3a.373.373,0,0,1-.372-.372Zm0,3.966A.373.373,0,0,1,8.3,11.9H21.442a.373.373,0,0,1,.372.372V13.51a.373.373,0,0,1-.372.372H8.3a.373.373,0,0,1-.372-.372Zm15.7,15.493H5.949a1.983,1.983,0,0,1,0-3.966H23.636A22.31,22.31,0,0,0,23.636,27.764Z" transform="translate(0 0)" fill="#2680eb"/>
    </clipPath>
  </defs>
  <g id="icon-buku-panduan" transform="translate(0.225)">
    <circle id="Ellipse_1" data-name="Ellipse 1" cx="32" cy="32" r="32" transform="translate(-0.225)" fill="#d9eeff" opacity="0.7"/>
    <g id="Group_4429" data-name="Group 4429" transform="translate(-27.623 -20.888)">
      <path id="Path_38514" data-name="Path 38514" d="M27.764,22.31V1.487A1.484,1.484,0,0,0,26.276,0H5.949A5.951,5.951,0,0,0,0,5.949V25.781A5.951,5.951,0,0,0,5.949,31.73H26.276a1.484,1.484,0,0,0,1.487-1.487v-.992a1.5,1.5,0,0,0-.552-1.159,13.82,13.82,0,0,1,0-4.629,1.477,1.477,0,0,0,.552-1.153ZM7.932,8.3A.373.373,0,0,1,8.3,7.932H21.442a.373.373,0,0,1,.372.372V9.544a.373.373,0,0,1-.372.372H8.3a.373.373,0,0,1-.372-.372Zm0,3.966A.373.373,0,0,1,8.3,11.9H21.442a.373.373,0,0,1,.372.372V13.51a.373.373,0,0,1-.372.372H8.3a.373.373,0,0,1-.372-.372Zm15.7,15.493H5.949a1.983,1.983,0,0,1,0-3.966H23.636A22.31,22.31,0,0,0,23.636,27.764Z" transform="translate(45.635 36.588)" fill="#2680eb"/>
      <g id="Mask_Group_1556" data-name="Mask Group 1556" transform="translate(45.635 36.588)" clip-path="url(#clip-path)">
        <ellipse id="Ellipse_727" data-name="Ellipse 727" cx="18.784" cy="19.895" rx="18.784" ry="19.895" transform="translate(-19.097 -17.763)" fill="#6bb1fe" opacity="0.5"/>
      </g>
    </g>
  </g>
</svg>
