<svg xmlns="http://www.w3.org/2000/svg" xmlns:xlink="http://www.w3.org/1999/xlink" width="60" height="60" viewBox="0 0 60 60">
  <defs>
    <clipPath id="clip-path">
      <path id="Subtraction_87" data-name="Subtraction 87" d="M24.107,31H2.893a2.877,2.877,0,0,1-2.045-.851A2.9,2.9,0,0,1,0,28.094V11.625H27V28.094a2.909,2.909,0,0,1-1.767,2.678A2.862,2.862,0,0,1,24.107,31ZM13.5,14.693a.714.714,0,0,0-.653.408l-1.488,3.032-3.33.488a.734.734,0,0,0-.4,1.25l2.409,2.359-.57,3.332a.719.719,0,0,0,.158.593.743.743,0,0,0,.561.265.713.713,0,0,0,.338-.086L13.5,24.76l2.979,1.573a.716.716,0,0,0,.337.085.744.744,0,0,0,.563-.265.718.718,0,0,0,.158-.592l-.57-3.332,2.409-2.359a.734.734,0,0,0-.4-1.25l-3.33-.488L14.154,15.1A.727.727,0,0,0,13.5,14.693ZM27,9.688H0V6.781A2.909,2.909,0,0,1,1.767,4.1a2.862,2.862,0,0,1,1.126-.228H5.786V.969A.964.964,0,0,1,6.069.285.955.955,0,0,1,6.75,0H8.679A.955.955,0,0,1,9.36.285a.964.964,0,0,1,.283.684V3.875h7.714V.969A.964.964,0,0,1,17.64.285.955.955,0,0,1,18.321,0H20.25a.955.955,0,0,1,.681.285.964.964,0,0,1,.283.684V3.875h2.893a2.877,2.877,0,0,1,2.045.851A2.9,2.9,0,0,1,27,6.781Z" transform="translate(-0.25)" fill="#2680eb"/>
    </clipPath>
  </defs>
  <g id="icon-menu-event" transform="translate(-206 -583)">
    <circle id="Ellipse_302" data-name="Ellipse 302" cx="30" cy="30" r="30" transform="translate(206 583)" fill="#fff"/>
    <g id="Group_4605" data-name="Group 4605" transform="translate(222.25 598)">
      <path id="Subtraction_86" data-name="Subtraction 86" d="M24.107,31H2.893a2.877,2.877,0,0,1-2.045-.851A2.9,2.9,0,0,1,0,28.094V11.625H27V28.094a2.909,2.909,0,0,1-1.767,2.678A2.862,2.862,0,0,1,24.107,31ZM13.5,14.693a.714.714,0,0,0-.653.408l-1.488,3.032-3.33.488a.734.734,0,0,0-.4,1.25l2.409,2.359-.57,3.332a.719.719,0,0,0,.158.593.743.743,0,0,0,.561.265.713.713,0,0,0,.338-.086L13.5,24.76l2.979,1.573a.716.716,0,0,0,.337.085.744.744,0,0,0,.563-.265.718.718,0,0,0,.158-.592l-.57-3.332,2.409-2.359a.734.734,0,0,0-.4-1.25l-3.33-.488L14.154,15.1A.727.727,0,0,0,13.5,14.693ZM27,9.688H0V6.781A2.909,2.909,0,0,1,1.767,4.1a2.862,2.862,0,0,1,1.126-.228H5.786V.969A.964.964,0,0,1,6.069.285.955.955,0,0,1,6.75,0H8.679A.955.955,0,0,1,9.36.285a.964.964,0,0,1,.283.684V3.875h7.714V.969A.964.964,0,0,1,17.64.285.955.955,0,0,1,18.321,0H20.25a.955.955,0,0,1,.681.285.964.964,0,0,1,.283.684V3.875h2.893a2.877,2.877,0,0,1,2.045.851A2.9,2.9,0,0,1,27,6.781Z" transform="translate(-0.25)" fill="#2680eb"/>
      <g id="Mask_Group_1558" data-name="Mask Group 1558" transform="translate(0 0)" clip-path="url(#clip-path)">
        <ellipse id="Ellipse_763" data-name="Ellipse 763" cx="24.163" cy="24.162" rx="24.163" ry="24.162" transform="translate(-30.042 -14.941)" fill="#87beff" opacity="0.5"/>
      </g>
    </g>
  </g>
</svg>
