<svg xmlns="http://www.w3.org/2000/svg" xmlns:xlink="http://www.w3.org/1999/xlink" width="24" height="24" viewBox="0 0 24 24">
  <defs>
    <clipPath id="clip-path">
      <path id="calendar-alt-solid" d="M0,12.9a1.335,1.335,0,0,0,1.334,1.334h9.785A1.335,1.335,0,0,0,12.454,12.9V5.337H0ZM8.9,7.45a.335.335,0,0,1,.334-.334h1.112a.335.335,0,0,1,.334.334V8.562a.335.335,0,0,1-.334.334H9.229A.335.335,0,0,1,8.9,8.562Zm0,3.558a.335.335,0,0,1,.334-.334h1.112a.335.335,0,0,1,.334.334V12.12a.335.335,0,0,1-.334.334H9.229A.335.335,0,0,1,8.9,12.12ZM5.337,7.45a.335.335,0,0,1,.334-.334H6.783a.335.335,0,0,1,.334.334V8.562a.335.335,0,0,1-.334.334H5.671a.335.335,0,0,1-.334-.334Zm0,3.558a.335.335,0,0,1,.334-.334H6.783a.335.335,0,0,1,.334.334V12.12a.335.335,0,0,1-.334.334H5.671a.335.335,0,0,1-.334-.334ZM1.779,7.45a.335.335,0,0,1,.334-.334H3.225a.335.335,0,0,1,.334.334V8.562a.335.335,0,0,1-.334.334H2.113a.335.335,0,0,1-.334-.334Zm0,3.558a.335.335,0,0,1,.334-.334H3.225a.335.335,0,0,1,.334.334V12.12a.335.335,0,0,1-.334.334H2.113a.335.335,0,0,1-.334-.334Zm9.34-9.229H9.785V.445A.446.446,0,0,0,9.34,0h-.89a.446.446,0,0,0-.445.445V1.779H4.448V.445A.446.446,0,0,0,4,0h-.89a.446.446,0,0,0-.445.445V1.779H1.334A1.335,1.335,0,0,0,0,3.113V4.448H12.454V3.113A1.335,1.335,0,0,0,11.119,1.779Z" fill="#2680eb"/>
    </clipPath>
  </defs>
  <g id="icon-tanggal-event" transform="translate(-26.454 -1969.454)">
    <circle id="Ellipse_392" data-name="Ellipse 392" cx="12" cy="12" r="12" transform="translate(26.454 1969.454)" fill="#eef5ff"/>
    <path id="calendar-alt-solid-2" data-name="calendar-alt-solid" d="M0,12.9a1.335,1.335,0,0,0,1.334,1.334h9.785A1.335,1.335,0,0,0,12.454,12.9V5.337H0ZM8.9,7.45a.335.335,0,0,1,.334-.334h1.112a.335.335,0,0,1,.334.334V8.562a.335.335,0,0,1-.334.334H9.229A.335.335,0,0,1,8.9,8.562Zm0,3.558a.335.335,0,0,1,.334-.334h1.112a.335.335,0,0,1,.334.334V12.12a.335.335,0,0,1-.334.334H9.229A.335.335,0,0,1,8.9,12.12ZM5.337,7.45a.335.335,0,0,1,.334-.334H6.783a.335.335,0,0,1,.334.334V8.562a.335.335,0,0,1-.334.334H5.671a.335.335,0,0,1-.334-.334Zm0,3.558a.335.335,0,0,1,.334-.334H6.783a.335.335,0,0,1,.334.334V12.12a.335.335,0,0,1-.334.334H5.671a.335.335,0,0,1-.334-.334ZM1.779,7.45a.335.335,0,0,1,.334-.334H3.225a.335.335,0,0,1,.334.334V8.562a.335.335,0,0,1-.334.334H2.113a.335.335,0,0,1-.334-.334Zm0,3.558a.335.335,0,0,1,.334-.334H3.225a.335.335,0,0,1,.334.334V12.12a.335.335,0,0,1-.334.334H2.113a.335.335,0,0,1-.334-.334Zm9.34-9.229H9.785V.445A.446.446,0,0,0,9.34,0h-.89a.446.446,0,0,0-.445.445V1.779H4.448V.445A.446.446,0,0,0,4,0h-.89a.446.446,0,0,0-.445.445V1.779H1.334A1.335,1.335,0,0,0,0,3.113V4.448H12.454V3.113A1.335,1.335,0,0,0,11.119,1.779Z" transform="translate(32.227 1974.397)" fill="#2680eb"/>
    <g id="Mask_Group_1475" data-name="Mask Group 1475" transform="translate(32.227 1974.397)" clip-path="url(#clip-path)">
      <circle id="Ellipse_527" data-name="Ellipse 527" cx="8.843" cy="8.843" r="8.843" transform="translate(-7.598 -7.182)" fill="#6bb1fe" opacity="0.5"/>
    </g>
  </g>
</svg>
