<svg xmlns="http://www.w3.org/2000/svg" width="40" height="40" viewBox="0 0 40 40">
  <g id="icon-share-twitter" transform="translate(0.228)">
    <circle id="Ellipse_413" data-name="Ellipse 413" cx="20" cy="20" r="20" transform="translate(-0.228)" fill="#43bceb"/>
    <path id="twitter-brands" d="M17.879,52.646c.013.2.013.4.013.6,0,6.11-4.109,13.149-11.62,13.149A10.591,10.591,0,0,1,0,64.322a7.476,7.476,0,0,0,.986.057A7.6,7.6,0,0,0,6.057,62.4,4.19,4.19,0,0,1,2.238,59.2a4.567,4.567,0,0,0,.771.072,3.848,3.848,0,0,0,1.075-.157A4.518,4.518,0,0,1,.809,54.578v-.057a3.76,3.76,0,0,0,1.846.587A4.8,4.8,0,0,1,.835,51.258a5.056,5.056,0,0,1,.556-2.332,11.227,11.227,0,0,0,8.421,4.836,5.878,5.878,0,0,1-.1-1.059A4.376,4.376,0,0,1,13.8,48.082a3.871,3.871,0,0,1,2.984,1.459,7.5,7.5,0,0,0,2.592-1.116,4.551,4.551,0,0,1-1.8,2.547,7.452,7.452,0,0,0,2.352-.715A9.5,9.5,0,0,1,17.879,52.646Z" transform="translate(9.33 -37.204)" fill="#fff"/>
  </g>
</svg>
