<svg xmlns="http://www.w3.org/2000/svg" xmlns:xlink="http://www.w3.org/1999/xlink" width="64" height="64" viewBox="0 0 64 64">
  <defs>
    <clipPath id="clip-path">
      <path id="Union_4" data-name="Union 4" d="M22,41V36.284a12.883,12.883,0,0,0,8.8-3.531v7.087A1.13,1.13,0,0,1,29.7,41Zm-8.8,0V35.641a4.736,4.736,0,0,0,.094-7.937,1.1,1.1,0,0,1,1.006-.7h4.4a1.1,1.1,0,0,1,1.006.7,4.735,4.735,0,0,0,.094,7.937V41ZM3.3,41a1.129,1.129,0,0,1-1.1-1.159V32.711A12.741,12.741,0,0,0,11,36.284V41Zm16.5-9.355a2.269,2.269,0,0,1,2.2-2.32,6.806,6.806,0,0,0,6.6-6.959,1.1,1.1,0,1,0-2.2,0A4.538,4.538,0,0,1,22,27.006c-.067,0-.132.023-.2.023a3.3,3.3,0,0,0-3.1-2.343H16.5a4.538,4.538,0,0,0,4.4-4.639,4.538,4.538,0,0,0-4.4-4.639,4.538,4.538,0,0,0-4.4,4.639,4.538,4.538,0,0,0,4.4,4.639H14.3a3.3,3.3,0,0,0-3.1,2.343c-.066,0-.132-.023-.2-.023a4.538,4.538,0,0,1-4.4-4.639,1.1,1.1,0,1,0-2.2,0A6.806,6.806,0,0,0,11,29.326a2.323,2.323,0,0,1,0,4.639,10.819,10.819,0,0,1-8.609-4.38A12.259,12.259,0,0,1,0,22.367a9.056,9.056,0,0,1,8.8-9.279h5.5a3.31,3.31,0,0,1,2.2.882,3.313,3.313,0,0,1,2.2-.882h5.5A9.047,9.047,0,0,1,33,22.367a12.307,12.307,0,0,1-2.885,7.851A10.79,10.79,0,0,1,22,33.965,2.269,2.269,0,0,1,19.8,31.645Zm-5.5-11.6a2.2,2.2,0,1,1,2.2,2.32A2.261,2.261,0,0,1,14.3,20.047ZM17.6,5.876A5.731,5.731,0,0,1,23.1,0a5.731,5.731,0,0,1,5.5,5.876,5.661,5.661,0,0,1-5.5,5.8A5.662,5.662,0,0,1,17.6,5.876Zm-13.2,0A5.73,5.73,0,0,1,9.9,0a5.73,5.73,0,0,1,5.5,5.876,5.661,5.661,0,0,1-5.5,5.8A5.661,5.661,0,0,1,4.4,5.876Z" transform="translate(-0.07 0.465)" fill="#2680eb"/>
    </clipPath>
  </defs>
  <g id="icon-faq-role-orang-tua-active" transform="translate(-652 -2139)">
    <g id="icon-role-orang-tua" transform="translate(651.689 2139)">
      <circle id="Ellipse_1" data-name="Ellipse 1" cx="32" cy="32" r="32" transform="translate(0.311)" fill="#2680eb"/>
      <path id="Union_1" data-name="Union 1" d="M22,41V36.284a12.883,12.883,0,0,0,8.8-3.531v7.087A1.13,1.13,0,0,1,29.7,41Zm-8.8,0V35.641a4.736,4.736,0,0,0,.094-7.937,1.1,1.1,0,0,1,1.006-.7h4.4a1.1,1.1,0,0,1,1.006.7,4.735,4.735,0,0,0,.094,7.937V41ZM3.3,41a1.129,1.129,0,0,1-1.1-1.159V32.711A12.741,12.741,0,0,0,11,36.284V41Zm16.5-9.355a2.269,2.269,0,0,1,2.2-2.32,6.806,6.806,0,0,0,6.6-6.959,1.1,1.1,0,1,0-2.2,0A4.538,4.538,0,0,1,22,27.006c-.067,0-.132.023-.2.023a3.3,3.3,0,0,0-3.1-2.343H16.5a4.538,4.538,0,0,0,4.4-4.639,4.538,4.538,0,0,0-4.4-4.639,4.538,4.538,0,0,0-4.4,4.639,4.538,4.538,0,0,0,4.4,4.639H14.3a3.3,3.3,0,0,0-3.1,2.343c-.066,0-.132-.023-.2-.023a4.538,4.538,0,0,1-4.4-4.639,1.1,1.1,0,1,0-2.2,0A6.806,6.806,0,0,0,11,29.326a2.323,2.323,0,0,1,0,4.639,10.819,10.819,0,0,1-8.609-4.38A12.259,12.259,0,0,1,0,22.367a9.056,9.056,0,0,1,8.8-9.279h5.5a3.31,3.31,0,0,1,2.2.882,3.313,3.313,0,0,1,2.2-.882h5.5A9.047,9.047,0,0,1,33,22.367a12.307,12.307,0,0,1-2.885,7.851A10.79,10.79,0,0,1,22,33.965,2.269,2.269,0,0,1,19.8,31.645Zm-5.5-11.6a2.2,2.2,0,1,1,2.2,2.32A2.261,2.261,0,0,1,14.3,20.047ZM17.6,5.876A5.731,5.731,0,0,1,23.1,0a5.731,5.731,0,0,1,5.5,5.876,5.661,5.661,0,0,1-5.5,5.8A5.662,5.662,0,0,1,17.6,5.876Zm-13.2,0A5.73,5.73,0,0,1,9.9,0a5.73,5.73,0,0,1,5.5,5.876,5.661,5.661,0,0,1-5.5,5.8A5.661,5.661,0,0,1,4.4,5.876Z" transform="translate(15.311 12)" fill="#fff"/>
    </g>
  </g>
</svg>
