<svg xmlns="http://www.w3.org/2000/svg" width="22" height="22" viewBox="0 0 22 22">
  <g id="icon-program" transform="translate(-929 -940)">
    <rect id="Rectangle_1561" data-name="Rectangle 1561" width="22" height="22" transform="translate(929 940)" fill="none"/>
    <g id="Group_4863" data-name="Group 4863" transform="translate(931.862 940.693)">
      <path id="Subtraction_86" data-name="Subtraction 86" d="M14.286,20H1.714a1.577,1.577,0,0,1-.667-.147,1.71,1.71,0,0,1-.545-.4,1.888,1.888,0,0,1-.367-.6A2.014,2.014,0,0,1,0,18.125V7.5H16V18.125a2.014,2.014,0,0,1-.135.73,1.888,1.888,0,0,1-.367.6,1.71,1.71,0,0,1-.545.4A1.578,1.578,0,0,1,14.286,20ZM8,9.479a.422.422,0,0,0-.387.263L6.73,11.7l-1.973.315a.442.442,0,0,0-.348.322.5.5,0,0,0,.109.485l1.428,1.522-.338,2.15a.494.494,0,0,0,.094.382.427.427,0,0,0,.333.171.4.4,0,0,0,.2-.055L8,15.974l1.765,1.015a.4.4,0,0,0,.2.055.428.428,0,0,0,.333-.171.493.493,0,0,0,.093-.382l-.338-2.15,1.428-1.522a.5.5,0,0,0,.109-.485.442.442,0,0,0-.348-.322L9.27,11.7,8.388,9.742A.429.429,0,0,0,8,9.479ZM16,6.25H0V4.375a2.014,2.014,0,0,1,.135-.73,1.888,1.888,0,0,1,.367-.6,1.71,1.71,0,0,1,.545-.4A1.577,1.577,0,0,1,1.714,2.5H3.429V.625A.651.651,0,0,1,3.6.184.544.544,0,0,1,4,0H5.143a.544.544,0,0,1,.4.184.651.651,0,0,1,.168.441V2.5h4.571V.625a.651.651,0,0,1,.168-.441.544.544,0,0,1,.4-.184H12a.544.544,0,0,1,.4.184.651.651,0,0,1,.168.441V2.5h1.714a1.578,1.578,0,0,1,.667.147,1.71,1.71,0,0,1,.545.4,1.888,1.888,0,0,1,.367.6,2.014,2.014,0,0,1,.135.73Z" transform="translate(0.138 0.308)" fill="#3a4166"/>
    </g>
  </g>
</svg>
