<svg id="icon-share-wa" xmlns="http://www.w3.org/2000/svg" width="40" height="40" viewBox="0 0 40 40">
  <circle id="Ellipse_414" data-name="Ellipse 414" cx="20" cy="20" r="20" fill="#0dc143"/>
  <path id="whatsapp-brands" d="M20.772,35.55A12.111,12.111,0,0,0,1.718,50.16L0,56.432l6.419-1.685A12.07,12.07,0,0,0,12.2,56.219h.005A12.03,12.03,0,0,0,20.772,35.55ZM12.21,54.179a10.045,10.045,0,0,1-5.126-1.4l-.365-.218-3.807,1,1.014-3.714-.24-.382a10.082,10.082,0,1,1,18.7-5.35A10.175,10.175,0,0,1,12.21,54.179Zm5.519-7.537c-.3-.153-1.789-.883-2.067-.982s-.48-.153-.682.153-.78.982-.96,1.189-.354.229-.654.076a8.234,8.234,0,0,1-4.117-3.6c-.311-.534.311-.5.889-1.652a.561.561,0,0,0-.027-.529c-.076-.153-.682-1.642-.933-2.247-.245-.589-.5-.507-.682-.518s-.376-.011-.578-.011a1.121,1.121,0,0,0-.807.376,3.4,3.4,0,0,0-1.058,2.525,5.926,5.926,0,0,0,1.232,3.13,13.518,13.518,0,0,0,5.17,4.57c1.92.829,2.672.9,3.632.758a3.1,3.1,0,0,0,2.04-1.44A2.53,2.53,0,0,0,18.3,47C18.231,46.866,18.029,46.79,17.729,46.643Z" transform="translate(8.388 -25.312)" fill="#fff"/>
</svg>
