<svg xmlns="http://www.w3.org/2000/svg" width="22" height="22" viewBox="0 0 22 22">
  <g id="icon-data-peserta" transform="translate(-894 -902)">
    <rect id="Rectangle_1562" data-name="Rectangle 1562" width="22" height="22" transform="translate(894 902)" fill="none"/>
    <path id="address-card-solid" d="M18.635,32H1.694A1.7,1.7,0,0,0,0,33.694V46.118a1.7,1.7,0,0,0,1.694,1.694H18.635a1.7,1.7,0,0,0,1.694-1.694V33.694A1.7,1.7,0,0,0,18.635,32ZM6.212,35.388a2.259,2.259,0,1,1-2.259,2.259A2.261,2.261,0,0,1,6.212,35.388Zm3.953,8.358a.74.74,0,0,1-.791.678H3.049a.74.74,0,0,1-.791-.678v-.678a2.223,2.223,0,0,1,2.372-2.033h.176a3.635,3.635,0,0,0,2.809,0h.176a2.223,2.223,0,0,1,2.372,2.033Zm7.906-1.864a.283.283,0,0,1-.282.282H12.706a.283.283,0,0,1-.282-.282v-.565a.283.283,0,0,1,.282-.282h5.082a.283.283,0,0,1,.282.282Zm0-2.259a.283.283,0,0,1-.282.282H12.706a.283.283,0,0,1-.282-.282v-.565a.283.283,0,0,1,.282-.282h5.082a.283.283,0,0,1,.282.282Zm0-2.259a.283.283,0,0,1-.282.282H12.706a.283.283,0,0,1-.282-.282V36.8a.283.283,0,0,1,.282-.282h5.082a.283.283,0,0,1,.282.282Z" transform="translate(894.835 873.094)" fill="#3a4166"/>
  </g>
</svg>
