<svg xmlns="http://www.w3.org/2000/svg" xmlns:xlink="http://www.w3.org/1999/xlink" width="24" height="24" viewBox="0 0 24 24">
  <defs>
    <clipPath id="clip-path">
      <path id="Path_482" data-name="Path 482" d="M1394.678,273.129c-.494.988-4.865-2.423-8.21-2.423s-7.716,3.411-8.21,2.423a1.856,1.856,0,0,1-.1-.96A12.848,12.848,0,0,1,1379,269.2s4.112-2.365,7.465-2.365,7.466,2.365,7.466,2.365a12.849,12.849,0,0,1,.844,2.974A1.855,1.855,0,0,1,1394.678,273.129Z" transform="translate(-1378.141 -266.83)" fill="#3c7ceb"/>
    </clipPath>
  </defs>
  <g id="icon-smk-mak" transform="translate(-138.413 -864.413)">
    <circle id="Ellipse_134" data-name="Ellipse 134" cx="12" cy="12" r="12" transform="translate(138.413 864.413)" fill="#ededf4" opacity="0.65"/>
    <g id="Group_1319" data-name="Group 1319" transform="translate(143.413 870.414)">
      <g id="Group_1312" data-name="Group 1312" transform="translate(0)">
        <path id="Path_462" data-name="Path 462" d="M1452,44.109a16.629,16.629,0,0,0-.076-3.945,5.408,5.408,0,0,0-2.175-2.951h0a8.06,8.06,0,0,0-5.273,0h0a5.543,5.543,0,0,0-2.219,3.093,16.036,16.036,0,0,0-.032,3.8,9.2,9.2,0,0,1,9.774,0Z" transform="translate(-1440.45 -36.77)" fill="#ededf4"/>
        <path id="Path_463" data-name="Path 463" d="M1400.7,58.962q0,.252.008.515l0,0-.5.484-.589.071s-.037-.185-.072-.5h0c-.164-1.448-.3-5.636,3.406-6.966C1402.925,52.591,1400.7,54.331,1400.7,58.962Z" transform="translate(-1398.927 -52.159)" fill="#747998"/>
        <path id="Path_464" data-name="Path 464" d="M1738.935,59.536c-.035.313-.072.5-.072.5l-.589-.071-.5-.484,0,0q.009-.263.009-.515c0-4.631-2.224-6.371-2.251-6.392C1739.23,53.9,1739.1,58.089,1738.935,59.536Z" transform="translate(-1726.234 -52.159)" fill="#747998"/>
        <path id="Path_465" data-name="Path 465" d="M1391.365,271.867c-.4.79-3.89-1.937-6.565-1.937s-6.17,2.728-6.566,1.937a1.485,1.485,0,0,1-.08-.768,10.274,10.274,0,0,1,.675-2.378s3.288-1.891,5.97-1.891,5.97,1.891,5.97,1.891a10.274,10.274,0,0,1,.675,2.378A1.484,1.484,0,0,1,1391.365,271.867Z" transform="translate(-1378.141 -260.721)" fill="#8a90b2"/>
        <g id="Group_1311" data-name="Group 1311" transform="translate(4.793 1.584)">
          <path id="Path_466" data-name="Path 466" d="M1592.65,211.436a.687.687,0,0,0,.35.127l-.026-.17a.9.9,0,0,1-.31-.116.65.65,0,0,0-.765.026l-.018.011-.018-.011a.65.65,0,0,0-.765-.026.9.9,0,0,1-.31.116l-.026.17a.687.687,0,0,0,.35-.127,11.194,11.194,0,0,0,1.539,0Z" transform="translate(-1590.024 -208.215)" fill="#fff"/>
          <path id="Path_467" data-name="Path 467" d="M1592.279,219.561a.727.727,0,0,1-.4-.137.533.533,0,0,0-.713.038l-.021.015-.021-.015a.533.533,0,0,0-.713-.038.728.728,0,0,1-.4.137l-.009.056a.641.641,0,0,0,.366-.136,8.819,8.819,0,0,0,1.546,0,.641.641,0,0,0,.367.136l-.009-.056Z" transform="translate(-1589.292 -216.142)" fill="#f4f4f7"/>
          <path id="Path_468" data-name="Path 468" d="M1629.108,197.547c.017-.021.035-.041.054-.061a.977.977,0,0,1,.072-.068.512.512,0,0,1-.039-.07.723.723,0,0,1-.036-.1.134.134,0,0,1-.021-.016l0,0-.028.038-.028-.038,0,0a.138.138,0,0,1-.021.016.723.723,0,0,1-.036.1.525.525,0,0,1-.038.07.975.975,0,0,1,.071.068c.019.02.037.04.054.061Z" transform="translate(-1627.251 -194.644)" fill="#ffc107"/>
          <path id="Path_469" data-name="Path 469" d="M1631.074,212.163l-.056.013-.02.025-.02-.025-.056-.013.075.041.075-.041Z" transform="translate(-1629.142 -209.185)" fill="#ffc107"/>
          <path id="Path_470" data-name="Path 470" d="M1654.323,147.68l-.062-.036-.012,0a.192.192,0,0,0-.118.027.172.172,0,0,0-.082.1.166.166,0,0,0,0,.019h0a.42.42,0,0,0,.063.179.735.735,0,0,1,.1.327v0h0a.613.613,0,0,1-.156.4.5.5,0,0,1-.277.153.322.322,0,0,0,.091.056.209.209,0,0,0,.152,0l.022-.008.016.017a.229.229,0,0,0,.061.047.364.364,0,0,0,.229.029.447.447,0,0,0,.222-.1.738.738,0,0,1-.236.013l.007-.07a.5.5,0,0,0,.479-.184.437.437,0,0,0,.046-.086h0l.008-.022a.628.628,0,0,1-.2.054,1.213,1.213,0,0,1-.267,0l.007-.07a1.145,1.145,0,0,0,.252,0,.462.462,0,0,0,.252-.1.285.285,0,0,0,.1-.192c0-.005,0-.01,0-.015a.563.563,0,0,1-.31.121,1.273,1.273,0,0,1-.185.008v-.07a1.2,1.2,0,0,0,.175-.008.487.487,0,0,0,.277-.108.29.29,0,0,0,.09-.2.528.528,0,0,1-.447.14l.006-.07a.429.429,0,0,0,.441-.186.384.384,0,0,0,.031-.069.362.362,0,0,0,.015-.07h0a.448.448,0,0,0-.121-.306l-.012-.017a.422.422,0,0,1-.045.3.271.271,0,0,1-.047.056.277.277,0,0,1-.052.037h0c-.181.1-.352,0-.512-.1Z" transform="translate(-1651.4 -146.093)" fill="#ffc107"/>
          <path id="Path_471" data-name="Path 471" d="M1642.281,155.018a.841.841,0,0,0,.161.461.7.7,0,0,0,.049.058.5.5,0,0,0-.037-.3.67.67,0,0,0-.174-.223Z" transform="translate(-1640.204 -153.527)" fill="#ffc107"/>
          <path id="Path_472" data-name="Path 472" d="M1632.145,193.252l-.008,0-.033-.022-.016.011.027.012.018.01.011-.007Z" transform="translate(-1630.277 -190.741)" fill="#ffc107"/>
          <path id="Path_473" data-name="Path 473" d="M1623.982,161.174a1.1,1.1,0,0,1-.17-.435.747.747,0,0,0,.034.343.476.476,0,0,1,.021.291l-.067-.016a.707.707,0,0,0-.074-.319l-.013-.032a.445.445,0,0,1-.018.113h0a.365.365,0,0,1-.073.109.17.17,0,0,0-.056.105.28.28,0,0,0,.073.188.246.246,0,0,0,.028.026l.023.016a.344.344,0,0,0,.044-.02.226.226,0,0,0,.045-.031l.024-.022.024.021a.277.277,0,0,0,.08.05.424.424,0,0,0,.119-.174.375.375,0,0,0,.013-.043.309.309,0,0,0,.006-.043h0a.46.46,0,0,0-.063-.129Z" transform="translate(-1621.975 -159.099)" fill="#fc544b"/>
          <path id="Path_474" data-name="Path 474" d="M1563.266,147.644l-.062.036c-.16.094-.331.194-.512.1h0a.277.277,0,0,1-.052-.037.272.272,0,0,1-.048-.056.424.424,0,0,1-.045-.3l-.011.017a.449.449,0,0,0-.121.306h0a.363.363,0,0,0,.016.07.352.352,0,0,0,.031.069.429.429,0,0,0,.441.186l.006.07a.528.528,0,0,1-.447-.14.29.29,0,0,0,.09.2.488.488,0,0,0,.277.108,1.2,1.2,0,0,0,.175.008v.07a1.269,1.269,0,0,1-.185-.008.563.563,0,0,1-.31-.121c0,.005,0,.01,0,.015a.284.284,0,0,0,.1.192.461.461,0,0,0,.252.1,1.145,1.145,0,0,0,.252,0l.007.07a1.213,1.213,0,0,1-.267,0,.632.632,0,0,1-.2-.054l.008.022h0a.425.425,0,0,0,.046.086.5.5,0,0,0,.479.184l.006.07a.737.737,0,0,1-.235-.013.447.447,0,0,0,.222.1.364.364,0,0,0,.229-.029.224.224,0,0,0,.061-.047l.016-.017.022.008a.208.208,0,0,0,.152,0,.32.32,0,0,0,.091-.056.5.5,0,0,1-.277-.153.613.613,0,0,1-.156-.4h0v0h0v0h0a.739.739,0,0,1,.1-.325.414.414,0,0,0,.063-.18.166.166,0,0,0,0-.019.172.172,0,0,0-.082-.1.191.191,0,0,0-.117-.027l-.012,0Z" transform="translate(-1562.413 -146.093)" fill="#ffc107"/>
          <path id="Path_475" data-name="Path 475" d="M1617.022,155.479a.841.841,0,0,0,.161-.461.673.673,0,0,0-.174.223.5.5,0,0,0-.037.3.674.674,0,0,0,.049-.058Z" transform="translate(-1615.547 -153.527)" fill="#ffc107"/>
          <path id="Path_476" data-name="Path 476" d="M1627.223,128.961h0l.157.17.157-.17a.068.068,0,0,0,.011-.064.086.086,0,0,0-.005-.013h0l-.007-.011h0l-.156-.194-.156.194a.077.077,0,0,0-.013.067.079.079,0,0,0,0,.012l.007.01Z" transform="translate(-1625.524 -127.872)" fill="#ffc107"/>
          <path id="Path_477" data-name="Path 477" d="M1600.7,144.009l-.124-.134v.214c0,.024,0,.047,0,.07a.914.914,0,0,1-.176.509.407.407,0,0,1-.236.175h-.007a.064.064,0,0,1-.029-.011.123.123,0,0,1-.021-.018.24.24,0,0,1-.056-.16h0a.632.632,0,0,1,.028-.133.3.3,0,0,0-.025-.3.178.178,0,0,0-.212-.052.287.287,0,0,1,.044.021.241.241,0,0,1,.115.145.177.177,0,0,1,.005.027.438.438,0,0,1-.069.22.691.691,0,0,0-.094.293v0a.544.544,0,0,0,.138.357.442.442,0,0,0,.343.14h.02l.011.014a.5.5,0,0,0,.147.129.622.622,0,0,0,.126.053l-.007-.007a.874.874,0,0,0-.09-.083l-.027-.022.021-.027a.435.435,0,0,0,.05-.084.63.63,0,0,0,.036-.1l0-.017.016-.007a.059.059,0,0,0,.017-.011.111.111,0,0,0,.016-.019l.016-.024-.019.011a.414.414,0,0,1-.07.03l-.026,0-.006,0a.281.281,0,0,1-.042-.027.319.319,0,0,1-.037-.034.352.352,0,0,1-.092-.236.223.223,0,0,1,.073-.151.307.307,0,0,0,.06-.089h0a.429.429,0,0,0,.014-.1.424.424,0,0,1,.028-.145l.061.006a.37.37,0,0,1,.105-.305l.058.035v0h0a.751.751,0,0,0,.148.546.394.394,0,0,1,.073.169h0a.367.367,0,0,1-.008.053.407.407,0,0,1-.015.051.493.493,0,0,1-.157.218l-.015.011-.011,0h0a.059.059,0,0,0,.017.011l.016.007,0,.017a.63.63,0,0,0,.036.1.435.435,0,0,0,.05.084l.021.027-.027.022a.874.874,0,0,0-.09.083l-.007.007a.632.632,0,0,0,.126-.053.5.5,0,0,0,.147-.129l.011-.014h.02a.442.442,0,0,0,.342-.14.543.543,0,0,0,.138-.357v0a.687.687,0,0,0-.094-.295.447.447,0,0,1-.069-.218h0a.261.261,0,0,1,.005-.027.242.242,0,0,1,.115-.145.287.287,0,0,1,.044-.021.178.178,0,0,0-.213.052.3.3,0,0,0-.024.3.647.647,0,0,1,.027.133h0a.239.239,0,0,1-.056.16.123.123,0,0,1-.021.018.063.063,0,0,1-.028.011h-.007a.408.408,0,0,1-.236-.175.915.915,0,0,1-.176-.509c0-.022,0-.045,0-.07v-.214l-.123.134-.026.028-.026-.028Z" transform="translate(-1598.866 -142.674)" fill="#f9ac50"/>
          <path id="Path_478" data-name="Path 478" d="M1604.1,98.3h0l.179.981a.864.864,0,0,1,.19-.2l0-.276-.006-.01a.141.141,0,0,1-.01-.026.15.15,0,0,1,.026-.131l.183-.228.027-.034.027.034.183.228h0a.138.138,0,0,1,.015.023h0a.145.145,0,0,1-.006.143l0,.275a.867.867,0,0,1,.19.2l.179-.981h0a.6.6,0,0,1,.072-.208.2.2,0,0,1,.069-.069.136.136,0,0,1,.05-.017.386.386,0,0,0-.081-.063.12.12,0,0,0-.078-.019.1.1,0,0,0-.061.045.45.45,0,0,0-.06.17l-.1.533-.069-.012.118-.743c.007-.042-.032-.063-.079-.087a.575.575,0,0,1-.082-.049l-.083.734-.07,0,.006-.673c0-.036-.022-.05-.049-.067a.092.092,0,0,0-.183,0c-.026.017-.049.031-.049.067l.006.673-.07,0-.083-.734a.564.564,0,0,1-.083.049c-.047.024-.086.045-.079.087l.118.743-.069.012-.1-.533a.452.452,0,0,0-.06-.17.1.1,0,0,0-.061-.045.12.12,0,0,0-.078.019.39.39,0,0,0-.081.063.136.136,0,0,1,.05.017.2.2,0,0,1,.069.069.6.6,0,0,1,.072.208Z" transform="translate(-1602.833 -97.682)" fill="#ffc107"/>
        </g>
      </g>
    </g>
    <g id="Mask_Group_1259" data-name="Mask Group 1259" transform="translate(142.087 876.619)" clip-path="url(#clip-path)">
      <circle id="Ellipse_135" data-name="Ellipse 135" cx="6.5" cy="6.5" r="6.5" transform="translate(-4.674 -6.206)" fill="#f4f4f7" opacity="0.15"/>
    </g>
  </g>
</svg>
