<svg xmlns="http://www.w3.org/2000/svg" width="60" height="60" viewBox="0 0 60 60">
  <g id="icon-menu-kontak" transform="translate(-292 -583)">
    <g id="Group_3399" data-name="Group 3399" transform="translate(292 583)">
      <path id="Path_40164" data-name="Path 40164" d="M30,0A30,30,0,1,1,0,30,30,30,0,0,1,30,0Z" fill="#fff"/>
    </g>
    <g id="Group_4604" data-name="Group 4604" transform="translate(307.391 595.034)">
      <g id="Group_4696" transform="translate(5344.896 16674.846)">
        <g id="Rectangle_1488" transform="translate(-5320.84 -16662.199)">
          <path id="Path_40187" data-name="Path 40187" d="M9.52,4.76A4.76,4.76,0,0,0,0,4.76v6.7a4.76,4.76,0,1,0,9.52,0Z" fill="#2680eb" fill-rule="evenodd"/>
        </g>
        <g id="Rectangle_1489" transform="translate(-5322.67 -16643.4) rotate(90)">
          <path id="Path_40188" data-name="Path 40188" d="M5.76,2.88A2.88,2.88,0,0,0,0,2.88V6.45a2.88,2.88,0,0,0,5.76,0Z" fill="#2680eb" fill-rule="evenodd"/>
        </g>
        <g id="Group_4698" data-name="Group 4698" transform="translate(-5348.52 -16673.9)">
          <path id="Path_40189" data-name="Path 40189" d="M24.357,31.985c3.778.973,6.511-.206,7.615-4.738l2.093-.135s-.65,8.149-9.582,7.171A13.607,13.607,0,0,1,24.357,31.985Z" fill="#2680eb" fill-rule="evenodd"/>
        </g>
        <g id="Rectangle_1490" transform="translate(-5348.52 -16662.199)">
          <path id="Path_40190" data-name="Path 40190" d="M9.52,4.76A4.76,4.76,0,0,0,0,4.76v6.7a4.76,4.76,0,1,0,9.52,0Z" fill="#2680eb" fill-rule="evenodd"/>
        </g>
        <g id="Group_4699" data-name="Group 4699" transform="translate(-5348.52 -16673.9)">
          <path id="Path_40191" data-name="Path 40191" d="M30.38,15.093c.111-.035.655-10.644-11.808-11.186-11.124.766-11.611,9.135-11.678,9.4l-4.028-.1A13.961,13.961,0,0,1,10.209,2.182c.593-.414,7.645-3.959,14.969-.977C31.294,3.7,34.217,8.484,34.5,14.993Z" fill="#2680eb" fill-rule="evenodd"/>
        </g>
      </g>
      <path id="Intersection_3" data-name="Intersection 3" d="M4014.428,19590.055v-6.7a4.765,4.765,0,0,1,3.016-4.434,14.079,14.079,0,0,1,7.193-9.848,18.677,18.677,0,0,1,13.281-1.555,20.315,20.315,0,0,1,1.338,4.76,15.131,15.131,0,0,0-6.256-1.484c-8.89.621-10.986,6.092-11.5,8.393a4.771,4.771,0,0,1,2.455,4.168v6.7a4.762,4.762,0,0,1-9.525,0Z" transform="translate(-4018.054 -19565.949)" fill="#6bb1fe" stroke="rgba(0,0,0,0)" stroke-miterlimit="10" stroke-width="1" opacity="0.5"/>
    </g>
  </g>
</svg>
