<svg xmlns="http://www.w3.org/2000/svg" xmlns:xlink="http://www.w3.org/1999/xlink" width="24" height="24" viewBox="0 0 24 24">
  <defs>
    <clipPath id="clip-path">
      <path id="Path_481" data-name="Path 481" d="M1394.495,273.059c-.489.978-4.811-2.4-8.119-2.4s-7.63,3.373-8.119,2.4a1.833,1.833,0,0,1-.1-.949,12.7,12.7,0,0,1,.835-2.941s4.066-2.339,7.383-2.339,7.383,2.339,7.383,2.339a12.71,12.71,0,0,1,.835,2.941A1.834,1.834,0,0,1,1394.495,273.059Z" transform="translate(-1378.141 -266.83)" fill="#3c7ceb"/>
    </clipPath>
  </defs>
  <g id="icon-sd-mi" transform="translate(-138 -648)">
    <circle id="Ellipse_132" data-name="Ellipse 132" cx="12" cy="12" r="12" transform="translate(138 648)" fill="#f9d5d4" opacity="0.65"/>
    <g id="Group_1318" data-name="Group 1318" transform="translate(143.269 654.064)">
      <g id="Group_1312" data-name="Group 1312" transform="translate(0)">
        <path id="Path_462" data-name="Path 462" d="M1452.1,44.189a16.81,16.81,0,0,0-.077-3.988,5.467,5.467,0,0,0-2.2-2.983h0a8.148,8.148,0,0,0-5.33,0h0a5.6,5.6,0,0,0-2.243,3.126,16.209,16.209,0,0,0-.033,3.845,9.3,9.3,0,0,1,9.88,0Z" transform="translate(-1440.432 -36.77)" fill="#ededf4"/>
        <path id="Path_463" data-name="Path 463" d="M1400.714,59.032q0,.255.008.521l0,0-.505.49-.6.072s-.037-.187-.073-.5h0c-.166-1.464-.3-5.7,3.443-7.042C1402.962,52.591,1400.715,54.351,1400.714,59.032Z" transform="translate(-1398.921 -52.155)" fill="#d43f37"/>
        <path id="Path_464" data-name="Path 464" d="M1738.972,59.612c-.036.317-.073.5-.073.5l-.6-.072-.505-.49v0c.006-.177.009-.351.009-.521,0-4.681-2.248-6.44-2.276-6.462C1739.271,53.915,1739.138,58.149,1738.972,59.612Z" transform="translate(-1726.133 -52.155)" fill="#d43f37"/>
        <path id="Path_465" data-name="Path 465" d="M1391.51,271.922c-.4.8-3.932-1.959-6.637-1.959s-6.237,2.758-6.637,1.959a1.5,1.5,0,0,1-.08-.776,10.383,10.383,0,0,1,.683-2.4s3.324-1.912,6.035-1.912,6.035,1.912,6.035,1.912a10.387,10.387,0,0,1,.682,2.4A1.5,1.5,0,0,1,1391.51,271.922Z" transform="translate(-1378.141 -260.781)" fill="#fc544b"/>
        <g id="Group_1311" data-name="Group 1311" transform="translate(4.845 1.602)">
          <path id="Path_466" data-name="Path 466" d="M1592.671,211.439a.694.694,0,0,0,.354.129L1593,211.4a.91.91,0,0,1-.314-.117.657.657,0,0,0-.774.027l-.018.011-.018-.011a.657.657,0,0,0-.774-.027.909.909,0,0,1-.314.117l-.027.172a.7.7,0,0,0,.354-.129,11.315,11.315,0,0,0,1.556,0Z" transform="translate(-1590.016 -208.183)" fill="#fff"/>
          <path id="Path_467" data-name="Path 467" d="M1592.3,219.564a.736.736,0,0,1-.4-.139.538.538,0,0,0-.721.038l-.021.015-.021-.015a.539.539,0,0,0-.721-.038.735.735,0,0,1-.4.139l-.009.057a.648.648,0,0,0,.371-.137,8.913,8.913,0,0,0,1.562,0,.648.648,0,0,0,.371.137l-.009-.057Z" transform="translate(-1589.283 -216.107)" fill="#f4f4f7"/>
          <path id="Path_468" data-name="Path 468" d="M1629.109,197.55c.017-.021.036-.041.055-.062s.047-.047.072-.069a.533.533,0,0,1-.039-.071.719.719,0,0,1-.036-.1.135.135,0,0,1-.021-.016l0,0-.028.038-.028-.038,0,0a.14.14,0,0,1-.021.016.736.736,0,0,1-.036.1.532.532,0,0,1-.039.071c.026.022.05.045.072.069s.038.041.055.062Z" transform="translate(-1627.232 -194.615)" fill="#ffc107"/>
          <path id="Path_469" data-name="Path 469" d="M1631.076,212.163l-.056.013-.02.025-.02-.025-.056-.013.076.041.076-.041Z" transform="translate(-1629.123 -209.153)" fill="#ffc107"/>
          <path id="Path_470" data-name="Path 470" d="M1654.329,147.683l-.062-.036-.012,0a.194.194,0,0,0-.119.028.173.173,0,0,0-.083.1.146.146,0,0,0,0,.019h0a.427.427,0,0,0,.063.181.744.744,0,0,1,.1.331v0h0a.62.62,0,0,1-.158.408.507.507,0,0,1-.28.154.326.326,0,0,0,.092.056.211.211,0,0,0,.153,0l.022-.008.016.018a.233.233,0,0,0,.062.047.369.369,0,0,0,.232.029.454.454,0,0,0,.225-.105.747.747,0,0,1-.238.013l.007-.071a.5.5,0,0,0,.484-.186.439.439,0,0,0,.047-.087h0l.008-.022a.637.637,0,0,1-.2.055,1.226,1.226,0,0,1-.27,0l.007-.071a1.157,1.157,0,0,0,.255,0,.467.467,0,0,0,.255-.1.288.288,0,0,0,.1-.195c0-.005,0-.01,0-.015a.569.569,0,0,1-.313.122,1.289,1.289,0,0,1-.187.008v-.071a1.219,1.219,0,0,0,.177-.008.493.493,0,0,0,.28-.109.293.293,0,0,0,.091-.2.534.534,0,0,1-.452.141l.006-.071a.434.434,0,0,0,.446-.188.366.366,0,0,0,.047-.14h0a.454.454,0,0,0-.122-.309l-.012-.017a.429.429,0,0,1-.045.3.274.274,0,0,1-.1.094h0c-.183.1-.356,0-.517-.1Z" transform="translate(-1651.374 -146.079)" fill="#ffc107"/>
          <path id="Path_471" data-name="Path 471" d="M1642.281,155.018a.851.851,0,0,0,.163.466.7.7,0,0,0,.05.058.508.508,0,0,0-.037-.3.679.679,0,0,0-.175-.226Z" transform="translate(-1640.181 -153.51)" fill="#ffc107"/>
          <path id="Path_472" data-name="Path 472" d="M1632.146,193.253l-.008,0-.033-.022-.016.011.027.012.018.011.011-.007Z" transform="translate(-1630.257 -190.714)" fill="#ffc107"/>
          <path id="Path_473" data-name="Path 473" d="M1623.987,161.178a1.114,1.114,0,0,1-.172-.439.753.753,0,0,0,.034.347.481.481,0,0,1,.021.295l-.068-.016a.716.716,0,0,0-.074-.322l-.013-.032a.442.442,0,0,1-.019.114h0a.368.368,0,0,1-.073.111.173.173,0,0,0-.057.106.284.284,0,0,0,.074.19.262.262,0,0,0,.029.026l.024.016a.356.356,0,0,0,.045-.02.237.237,0,0,0,.045-.032l.024-.022.024.021a.271.271,0,0,0,.045.033.276.276,0,0,0,.036.018.428.428,0,0,0,.12-.176.339.339,0,0,0,.013-.043.315.315,0,0,0,.007-.043h0a.473.473,0,0,0-.064-.13Z" transform="translate(-1621.958 -159.081)" fill="#fc544b"/>
          <path id="Path_474" data-name="Path 474" d="M1563.275,147.647l-.063.036c-.162.095-.334.2-.517.1h0a.285.285,0,0,1-.053-.037.275.275,0,0,1-.048-.057.429.429,0,0,1-.046-.3l-.012.017a.453.453,0,0,0-.122.309h0a.371.371,0,0,0,.047.14.434.434,0,0,0,.446.188l.006.071a.534.534,0,0,1-.452-.141.292.292,0,0,0,.091.2.492.492,0,0,0,.28.109,1.22,1.22,0,0,0,.177.008v.071a1.287,1.287,0,0,1-.187-.008.569.569,0,0,1-.313-.122v.015a.288.288,0,0,0,.1.195.468.468,0,0,0,.255.1,1.157,1.157,0,0,0,.255,0l.007.071a1.225,1.225,0,0,1-.27,0,.638.638,0,0,1-.2-.055l.008.022h0a.446.446,0,0,0,.047.087.5.5,0,0,0,.484.186l.007.071a.747.747,0,0,1-.238-.013.453.453,0,0,0,.225.105.369.369,0,0,0,.232-.029.231.231,0,0,0,.062-.047l.016-.018.022.008a.211.211,0,0,0,.153,0,.321.321,0,0,0,.092-.056.507.507,0,0,1-.28-.154.62.62,0,0,1-.158-.408h0v0h0v0h0a.748.748,0,0,1,.1-.329.419.419,0,0,0,.063-.182.146.146,0,0,0,0-.019.174.174,0,0,0-.083-.1.194.194,0,0,0-.119-.028l-.012,0Z" transform="translate(-1562.413 -146.079)" fill="#ffc107"/>
          <path id="Path_475" data-name="Path 475" d="M1617.023,155.484a.851.851,0,0,0,.163-.466.681.681,0,0,0-.176.226.51.51,0,0,0-.037.3.682.682,0,0,0,.05-.058Z" transform="translate(-1615.531 -153.51)" fill="#ffc107"/>
          <path id="Path_476" data-name="Path 476" d="M1627.224,128.964h0l.159.172.159-.172a.068.068,0,0,0,.011-.065.075.075,0,0,0-.005-.013h0l-.007-.011h0l-.157-.2-.157.2a.078.078,0,0,0-.013.068.059.059,0,0,0,0,.012l.007.01Z" transform="translate(-1625.505 -127.863)" fill="#ffc107"/>
          <path id="Path_477" data-name="Path 477" d="M1600.706,144.01l-.125-.135v.216c0,.025,0,.048,0,.07a.926.926,0,0,1-.178.515.412.412,0,0,1-.239.177h-.007a.064.064,0,0,1-.029-.011.129.129,0,0,1-.021-.018.241.241,0,0,1-.057-.161h0a.639.639,0,0,1,.028-.135.3.3,0,0,0-.025-.3.18.18,0,0,0-.215-.052.287.287,0,0,1,.045.021.245.245,0,0,1,.116.147.215.215,0,0,1,.005.028.443.443,0,0,1-.07.222.7.7,0,0,0-.095.3v0a.55.55,0,0,0,.139.361.446.446,0,0,0,.346.141h.02l.011.014a.5.5,0,0,0,.149.131.626.626,0,0,0,.127.054l-.007-.008a.876.876,0,0,0-.091-.084l-.027-.022.021-.028a.448.448,0,0,0,.051-.085.667.667,0,0,0,.036-.1l0-.017.016-.007a.058.058,0,0,0,.017-.011.1.1,0,0,0,.016-.019l.017-.025-.019.011a.419.419,0,0,1-.07.03l-.027,0-.006,0a.274.274,0,0,1-.043-.027.324.324,0,0,1-.037-.035.356.356,0,0,1-.093-.238.225.225,0,0,1,.074-.152.313.313,0,0,0,.061-.09h0a.423.423,0,0,0,.014-.1.427.427,0,0,1,.028-.147l.062.006a.373.373,0,0,1,.106-.309l.059.036v0h0a.759.759,0,0,0,.149.552.4.4,0,0,1,.073.171h0a.414.414,0,0,1-.008.053A.463.463,0,0,1,1601,145a.5.5,0,0,1-.159.22l-.015.011-.011,0h0a.059.059,0,0,0,.017.011l.016.007,0,.017a.654.654,0,0,0,.036.1.435.435,0,0,0,.051.085l.021.028-.027.022a.876.876,0,0,0-.091.084l-.007.008a.64.64,0,0,0,.127-.054.5.5,0,0,0,.149-.131l.011-.014h.02a.446.446,0,0,0,.346-.141.549.549,0,0,0,.139-.361v0a.693.693,0,0,0-.095-.3.451.451,0,0,1-.07-.221h0a.238.238,0,0,1,.006-.028.244.244,0,0,1,.116-.147.291.291,0,0,1,.045-.021.18.18,0,0,0-.215.052.3.3,0,0,0-.025.3.624.624,0,0,1,.028.135h0a.242.242,0,0,1-.057.161.115.115,0,0,1-.021.018.065.065,0,0,1-.029.011h-.007a.412.412,0,0,1-.239-.177.924.924,0,0,1-.178-.515c0-.022,0-.046,0-.07v-.216l-.125.135-.026.028-.026-.028Z" transform="translate(-1598.855 -142.66)" fill="#f9ac50"/>
          <path id="Path_478" data-name="Path 478" d="M1604.1,98.3h0l.181.992a.875.875,0,0,1,.192-.2l0-.279-.006-.011a.136.136,0,0,1-.011-.026.152.152,0,0,1,.026-.132l.185-.231.028-.034.028.034.185.231h0a.143.143,0,0,1,.015.023h0a.151.151,0,0,1,.01.025.143.143,0,0,1-.016.119l0,.278a.878.878,0,0,1,.192.2l.181-.992h0a.6.6,0,0,1,.073-.211.2.2,0,0,1,.07-.07.14.14,0,0,1,.05-.017.39.39,0,0,0-.082-.064.121.121,0,0,0-.079-.019.1.1,0,0,0-.061.046.457.457,0,0,0-.061.172l-.1.539-.07-.012.12-.751c.007-.043-.033-.063-.08-.088a.57.57,0,0,1-.083-.05l-.083.742-.071,0,.006-.681c0-.036-.022-.051-.049-.068a.093.093,0,0,0-.185,0c-.027.017-.05.032-.049.068l.007.681-.071,0-.083-.742a.562.562,0,0,1-.083.05c-.047.024-.087.045-.08.088l.12.751-.07.012-.1-.539a.457.457,0,0,0-.061-.172.1.1,0,0,0-.062-.046.121.121,0,0,0-.079.019.394.394,0,0,0-.081.064.138.138,0,0,1,.05.017.2.2,0,0,1,.07.07.6.6,0,0,1,.073.211Z" transform="translate(-1602.821 -97.682)" fill="#ffc107"/>
        </g>
      </g>
    </g>
    <g id="Mask_Group_1258" data-name="Mask Group 1258" transform="translate(141.766 660.203)" clip-path="url(#clip-path)">
      <circle id="Ellipse_133" data-name="Ellipse 133" cx="6.5" cy="6.5" r="6.5" transform="translate(-4.766 -6.204)" fill="#f9d5d4" opacity="0.25"/>
    </g>
  </g>
</svg>
