<svg xmlns="http://www.w3.org/2000/svg" xmlns:xlink="http://www.w3.org/1999/xlink" width="20" height="20" viewBox="0 0 20 20">
  <defs>
    <clipPath id="clip-path">
      <path id="instagram-brands" d="M5.111,34.351a2.658,2.658,0,1,0,2.658,2.658A2.654,2.654,0,0,0,5.111,34.351Zm0,4.386a1.728,1.728,0,1,1,1.728-1.728A1.731,1.731,0,0,1,5.111,38.737ZM8.5,34.242a.62.62,0,1,1-.62-.62A.619.619,0,0,1,8.5,34.242Zm1.76.629A3.068,3.068,0,0,0,9.421,32.7a3.088,3.088,0,0,0-2.172-.837c-.856-.049-3.421-.049-4.277,0A3.084,3.084,0,0,0,.8,32.7a3.078,3.078,0,0,0-.837,2.172c-.049.856-.049,3.421,0,4.277A3.068,3.068,0,0,0,.8,41.319a3.092,3.092,0,0,0,2.172.837c.856.049,3.421.049,4.277,0a3.068,3.068,0,0,0,2.172-.837,3.088,3.088,0,0,0,.837-2.172C10.307,38.29,10.307,35.727,10.258,34.871ZM9.152,40.065a1.75,1.75,0,0,1-.985.985,11.426,11.426,0,0,1-3.056.208,11.515,11.515,0,0,1-3.056-.208,1.75,1.75,0,0,1-.985-.985,11.426,11.426,0,0,1-.208-3.056,11.515,11.515,0,0,1,.208-3.056,1.75,1.75,0,0,1,.985-.985,11.426,11.426,0,0,1,3.056-.208,11.515,11.515,0,0,1,3.056.208,1.75,1.75,0,0,1,.985.985,11.426,11.426,0,0,1,.208,3.056A11.419,11.419,0,0,1,9.152,40.065Z" transform="translate(0.075 -31.825)" fill="#2680eb"/>
    </clipPath>
  </defs>
  <g id="icon-instagram" transform="translate(0.666 0.8)">
    <circle id="Ellipse_381" data-name="Ellipse 381" cx="10" cy="10" r="10" transform="translate(-0.666 -0.8)" fill="#fff"/>
    <path id="instagram-brands-2" data-name="instagram-brands" d="M5.111,34.351a2.658,2.658,0,1,0,2.658,2.658A2.654,2.654,0,0,0,5.111,34.351Zm0,4.386a1.728,1.728,0,1,1,1.728-1.728A1.731,1.731,0,0,1,5.111,38.737ZM8.5,34.242a.62.62,0,1,1-.62-.62A.619.619,0,0,1,8.5,34.242Zm1.76.629A3.068,3.068,0,0,0,9.421,32.7a3.088,3.088,0,0,0-2.172-.837c-.856-.049-3.421-.049-4.277,0A3.084,3.084,0,0,0,.8,32.7a3.078,3.078,0,0,0-.837,2.172c-.049.856-.049,3.421,0,4.277A3.068,3.068,0,0,0,.8,41.319a3.092,3.092,0,0,0,2.172.837c.856.049,3.421.049,4.277,0a3.068,3.068,0,0,0,2.172-.837,3.088,3.088,0,0,0,.837-2.172C10.307,38.29,10.307,35.727,10.258,34.871ZM9.152,40.065a1.75,1.75,0,0,1-.985.985,11.426,11.426,0,0,1-3.056.208,11.515,11.515,0,0,1-3.056-.208,1.75,1.75,0,0,1-.985-.985,11.426,11.426,0,0,1-.208-3.056,11.515,11.515,0,0,1,.208-3.056,1.75,1.75,0,0,1,.985-.985,11.426,11.426,0,0,1,3.056-.208,11.515,11.515,0,0,1,3.056.208,1.75,1.75,0,0,1,.985.985,11.426,11.426,0,0,1,.208,3.056A11.419,11.419,0,0,1,9.152,40.065Z" transform="translate(4.183 -27.46)" fill="#2680eb"/>
    <g id="Mask_Group_1479" data-name="Mask Group 1479" transform="translate(4.108 4.365)" clip-path="url(#clip-path)">
      <circle id="Ellipse_531" data-name="Ellipse 531" cx="6.692" cy="6.692" r="6.692" transform="translate(-4.084 -6.692)" fill="#6bb1fe" opacity="0.5"/>
    </g>
  </g>
</svg>
