<svg id="icon-bottom-nav-berita-active" xmlns="http://www.w3.org/2000/svg" xmlns:xlink="http://www.w3.org/1999/xlink" width="30.857" height="24" viewBox="0 0 30.857 24">
  <defs>
    <clipPath id="clip-path">
      <path id="Subtraction_83" data-name="Subtraction 83" d="M28.286,24H3a3,3,0,0,1-3-3V6.43A1.284,1.284,0,0,1,1.286,5.144H3.429V1.288A1.287,1.287,0,0,1,4.715,0H29.572a1.287,1.287,0,0,1,1.286,1.288V21.429a2.581,2.581,0,0,1-.2,1,2.609,2.609,0,0,1-.551.816A2.552,2.552,0,0,1,28.286,24ZM7.5,19.717a.643.643,0,0,0-.642.643v.427a.642.642,0,0,0,.642.643H26.894a.642.642,0,0,0,.643-.643v-.427a.643.643,0,0,0-.643-.643Zm-4.928-12h0V21a.429.429,0,0,0,.858,0V7.716Zm4.927,8.7a.642.642,0,0,0-.641.641V17.5a.642.642,0,0,0,.641.641h19.4a.643.643,0,0,0,.642-.641V17.06a.643.643,0,0,0-.642-.641ZM18.643,9.913a.643.643,0,0,0-.643.643v3.7a.645.645,0,0,0,.643.643h8.143a.645.645,0,0,0,.643-.643v-3.7a.643.643,0,0,0-.643-.643ZM7.5,13.179a.643.643,0,0,0-.642.643v.43A.644.644,0,0,0,7.5,14.9h8.144a.645.645,0,0,0,.643-.643v-.43a.643.643,0,0,0-.643-.643Zm0-3.267a.643.643,0,0,0-.642.643v.427a.642.642,0,0,0,.642.643h8.144a.642.642,0,0,0,.643-.643v-.427a.643.643,0,0,0-.643-.643Zm0-6.485a.644.644,0,0,0-.642.643V6.216a.644.644,0,0,0,.642.643H26.786a.645.645,0,0,0,.643-.643V4.071a.645.645,0,0,0-.643-.643Z" fill="#2680eb"/>
    </clipPath>
  </defs>
  <path id="Subtraction_78" data-name="Subtraction 78" d="M28.286,24H3a3,3,0,0,1-3-3V6.43A1.284,1.284,0,0,1,1.286,5.144H3.429V1.288A1.287,1.287,0,0,1,4.715,0H29.572a1.287,1.287,0,0,1,1.286,1.288V21.429a2.581,2.581,0,0,1-.2,1,2.609,2.609,0,0,1-.551.816A2.552,2.552,0,0,1,28.286,24ZM7.5,19.717a.643.643,0,0,0-.642.643v.427a.642.642,0,0,0,.642.643H26.894a.642.642,0,0,0,.643-.643v-.427a.643.643,0,0,0-.643-.643Zm-4.928-12h0V21a.429.429,0,0,0,.858,0V7.716Zm4.927,8.7a.642.642,0,0,0-.641.641V17.5a.642.642,0,0,0,.641.641h19.4a.643.643,0,0,0,.642-.641V17.06a.643.643,0,0,0-.642-.641ZM18.643,9.913a.643.643,0,0,0-.643.643v3.7a.645.645,0,0,0,.643.643h8.143a.645.645,0,0,0,.643-.643v-3.7a.643.643,0,0,0-.643-.643ZM7.5,13.179a.643.643,0,0,0-.642.643v.43A.644.644,0,0,0,7.5,14.9h8.144a.645.645,0,0,0,.643-.643v-.43a.643.643,0,0,0-.643-.643Zm0-3.267a.643.643,0,0,0-.642.643v.427a.642.642,0,0,0,.642.643h8.144a.642.642,0,0,0,.643-.643v-.427a.643.643,0,0,0-.643-.643Zm0-6.485a.644.644,0,0,0-.642.643V6.216a.644.644,0,0,0,.642.643H26.786a.645.645,0,0,0,.643-.643V4.071a.645.645,0,0,0-.643-.643Z" fill="#2680eb"/>
  <g id="Mask_Group_1557" data-name="Mask Group 1557" clip-path="url(#clip-path)">
    <ellipse id="Ellipse_761" data-name="Ellipse 761" cx="24.278" cy="24.278" rx="24.278" ry="24.278" transform="translate(-28.034 -20.445)" fill="#87beff" opacity="0.5"/>
  </g>
</svg>
