<svg xmlns="http://www.w3.org/2000/svg" width="37.333" height="28" viewBox="0 0 37.333 28">
  <path id="icon-email-dark" d="M36.626,73.246a.439.439,0,0,1,.707.343V88.5a3.5,3.5,0,0,1-3.5,3.5H3.5A3.5,3.5,0,0,1,0,88.5V73.6a.436.436,0,0,1,.707-.343c1.633,1.269,3.8,2.88,11.236,8.283,1.539,1.123,4.134,3.485,6.723,3.471,2.6.022,5.25-2.392,6.73-3.471C32.834,76.133,34.993,74.515,36.626,73.246ZM18.667,82.667c1.692.029,4.127-2.129,5.352-3.019,9.676-7.022,10.413-7.634,12.644-9.384a1.745,1.745,0,0,0,.671-1.378V67.5a3.5,3.5,0,0,0-3.5-3.5H3.5A3.5,3.5,0,0,0,0,67.5v1.385a1.756,1.756,0,0,0,.671,1.378c2.231,1.743,2.968,2.363,12.644,9.384,1.225.89,3.66,3.048,5.352,3.019Z" transform="translate(0 -64)" fill="#3a4166"/>
</svg>
