<svg xmlns="http://www.w3.org/2000/svg" width="85" height="85" viewBox="0 0 85 85">
  <g id="icon-platform" transform="translate(-163.021 -1391.021)">
    <circle id="Ellipse_13" data-name="Ellipse 13" cx="42.5" cy="42.5" r="42.5" transform="translate(163.021 1391.021)" fill="#2680eb"/>
    <path id="layer-group-solid" d="M.992,11.847,19.647,20.31a2.051,2.051,0,0,0,1.705,0l18.655-8.463a1.789,1.789,0,0,0,0-3.206L21.353.178a2.051,2.051,0,0,0-1.705,0L.992,8.641A1.79,1.79,0,0,0,.992,11.847Zm39.016,7.07-4.652-2.109L22.411,22.677a4.616,4.616,0,0,1-3.822,0L5.645,16.809.992,18.917a1.787,1.787,0,0,0,0,3.2l18.655,8.456a2.057,2.057,0,0,0,1.705,0l18.656-8.456a1.787,1.787,0,0,0,0-3.2Zm0,10.235-4.635-2.1L22.411,32.928a4.616,4.616,0,0,1-3.822,0L5.627,27.052l-4.635,2.1a1.787,1.787,0,0,0,0,3.2l18.655,8.456a2.057,2.057,0,0,0,1.705,0l18.656-8.456A1.787,1.787,0,0,0,40.008,29.152Z" transform="translate(185.021 1413.026)" fill="#fff"/>
  </g>
</svg>
