<svg xmlns="http://www.w3.org/2000/svg" width="64" height="64" viewBox="0 0 64 64">
  <g id="icon-video-panduan" transform="translate(-167 -833)">
    <g id="Group_4902" data-name="Group 4902" transform="translate(167 833)">
      <circle id="Ellipse_629" data-name="Ellipse 629" cx="32" cy="32" r="32" fill="#d9eeff" opacity="0.4"/>
    </g>
    <g id="Group_4903" data-name="Group 4903" transform="translate(181.782 852.895)">
      <path id="youtube-brands" d="M48.646,67.788A4.326,4.326,0,0,0,45.6,64.724C42.917,64,32.149,64,32.149,64s-10.767,0-13.453.724a4.327,4.327,0,0,0-3.044,3.064,48.714,48.714,0,0,0,0,16.683A4.262,4.262,0,0,0,18.7,87.486c2.685.724,13.453.724,13.453.724s10.767,0,13.453-.724a4.262,4.262,0,0,0,3.044-3.015,48.714,48.714,0,0,0,0-16.683ZM28.628,81.249V71.01l9,5.12Z" transform="translate(-14.932 -64)" fill="#2680eb"/>
      <path id="Intersection_4" data-name="Intersection 4" d="M1.438,21.936a4.153,4.153,0,0,1-.717-1.465A45.229,45.229,0,0,1,0,12.131,45.292,45.292,0,0,1,.722,3.785,4.328,4.328,0,0,1,3.765.721C6.45,0,17.217,0,17.217,0s.66,0,1.693.012a15.778,15.778,0,0,1,1.337,6.377,15.872,15.872,0,0,1-.522,4.051L13.7,7.01V17.246l4.035-2.293A15.82,15.82,0,0,1,4.419,22.217,15.939,15.939,0,0,1,1.438,21.936Z" transform="translate(0 0.001)" fill="#6bb1fe" stroke="rgba(0,0,0,0)" stroke-miterlimit="10" stroke-width="1" opacity="0.5"/>
    </g>
  </g>
</svg>
