<svg xmlns="http://www.w3.org/2000/svg" width="150" height="150" viewBox="0 0 150 150">
  <g id="icon-buku-pengguna" transform="translate(0.426)">
    <path id="Path_38445" data-name="Path 38445" d="M75,0A75,75,0,1,1,0,75,75,75,0,0,1,75,0Z" transform="translate(-0.426)" fill="#fff"/>
    <circle id="Ellipse_31" data-name="Ellipse 31" cx="66" cy="66" r="66" transform="translate(8.574 9)" fill="#2680eb"/>
    <g id="Group_3462" data-name="Group 3462" transform="translate(27.291 30.771)" opacity="0">
      <path id="Subtraction_49" data-name="Subtraction 49" d="M40.842,62.227h-35A5.844,5.844,0,0,1,0,56.395V13.609A5.844,5.844,0,0,1,5.838,7.777h9.723a7.776,7.776,0,1,1,15.553,0h9.729a5.84,5.84,0,0,1,5.832,5.832V36.332L36.342,46.666H20.418a.969.969,0,0,0-.967.975v1.941a.969.969,0,0,0,.967.973H34.2l-.586,5.275a1.508,1.508,0,0,0,.373,1.18,1.532,1.532,0,0,0,1.135.514.981.981,0,0,0,.17-.01l7.236-.8,4.146-4.148v3.828A5.84,5.84,0,0,1,40.842,62.227ZM11.67,45.7a2.916,2.916,0,1,0,2.916,2.914A2.914,2.914,0,0,0,11.67,45.7Zm0-11.672a2.916,2.916,0,1,0,2.916,2.918A2.917,2.917,0,0,0,11.67,34.027ZM20.418,35a.965.965,0,0,0-.967.965v1.949a.965.965,0,0,0,.967.967h17.51a.965.965,0,0,0,.967-.967V35.969A.979.979,0,0,0,37.928,35ZM11.67,22.363a2.916,2.916,0,1,0,2.916,2.91A2.915,2.915,0,0,0,11.67,22.363Zm8.748.969a.969.969,0,0,0-.967.973V26.25a.969.969,0,0,0,.967.973h17.51a.969.969,0,0,0,.967-.973V24.3a.969.969,0,0,0-.967-.973ZM23.342,4.855a2.92,2.92,0,1,0,2.914,2.922A2.927,2.927,0,0,0,23.342,4.855Z" transform="translate(20.361 13.115)" fill="#fff" stroke="rgba(0,0,0,0)" stroke-miterlimit="10" stroke-width="1"/>
      <path id="Path_37245" data-name="Path 37245" d="M11.349,3.65l5,5L5.49,19.514l-4.46.492A.938.938,0,0,1,0,18.971l.5-4.463Zm8.1-.745L17.1.557a1.876,1.876,0,0,0-2.653,0l-2.21,2.21,5,5,2.21-2.21A1.876,1.876,0,0,0,19.445,2.906Z" transform="translate(56.295 48.349)" fill="#fff"/>
    </g>
    <path id="Path_212" data-name="Path 212" d="M53.594,43.066V2.871A2.864,2.864,0,0,0,50.723,0H11.484A11.487,11.487,0,0,0,0,11.484V49.766A11.487,11.487,0,0,0,11.484,61.25H50.723a2.864,2.864,0,0,0,2.871-2.871V56.465a2.894,2.894,0,0,0-1.065-2.237,26.678,26.678,0,0,1,0-8.936,2.851,2.851,0,0,0,1.065-2.225ZM15.312,16.03a.72.72,0,0,1,.718-.718H41.392a.72.72,0,0,1,.718.718v2.393a.72.72,0,0,1-.718.718H16.03a.72.72,0,0,1-.718-.718Zm0,7.656a.72.72,0,0,1,.718-.718H41.392a.72.72,0,0,1,.718.718v2.393a.72.72,0,0,1-.718.718H16.03a.72.72,0,0,1-.718-.718ZM45.626,53.594H11.484a3.828,3.828,0,0,1,0-7.656H45.626A43.066,43.066,0,0,0,45.626,53.594Z" transform="translate(47.652 44.376)" fill="#fff"/>
  </g>
</svg>
