<svg xmlns="http://www.w3.org/2000/svg" width="150" height="150" viewBox="0 0 150 150">
  <g id="icon-video-pengguna" transform="translate(-884 -5698)">
    <g id="icon" transform="translate(670 4721)">
      <path id="Path_38446" data-name="Path 38446" d="M75,0A75,75,0,1,1,0,75,75,75,0,0,1,75,0Z" transform="translate(214 977)" fill="#fff"/>
      <circle id="Ellipse_31" data-name="Ellipse 31" cx="66" cy="66" r="66" transform="translate(223 986)" fill="#2680eb"/>
    </g>
    <g id="Group_4268" data-name="Group 4268" opacity="0">
      <path id="Subtraction_51" data-name="Subtraction 51" d="M27.542,68.171H19.325a4.249,4.249,0,0,1-3.546-1.9L13.5,62.849a4.251,4.251,0,0,1-.714-2.355l-.006-5.106H28.7a14.6,14.6,0,0,0,4.115,8.281l-1.73,2.6A4.249,4.249,0,0,1,27.542,68.171Zm1.175-17.042H12.766l-.006-.042c0-.021-.006-.041-.009-.062A38.386,38.386,0,0,0,5.8,38.849,23.523,23.523,0,0,1,6.587,7.088,23.147,23.147,0,0,1,23.36,0h.073A23.409,23.409,0,0,1,41.178,38.721,14.8,14.8,0,0,0,28.718,51.129ZM23.433,8.521A14.929,14.929,0,0,0,8.521,23.434a2.13,2.13,0,0,0,4.261,0A10.663,10.663,0,0,1,23.433,12.782a2.13,2.13,0,0,0,0-4.261Z" transform="translate(931.588 5738.916)" fill="#fff" stroke="rgba(0,0,0,0)" stroke-miterlimit="10" stroke-width="1"/>
      <g id="Group_4267" data-name="Group 4267">
        <ellipse id="Ellipse_547" data-name="Ellipse 547" cx="11.531" cy="11.531" rx="11.531" ry="11.531" transform="translate(963.35 5780.689)" fill="#fff"/>
        <path id="Path_37249" data-name="Path 37249" d="M4.16,74.052.18,70.072a.612.612,0,0,1,0-.866l.866-.866a.612.612,0,0,1,.866,0l2.682,2.681,5.743-5.743a.612.612,0,0,1,.866,0l.866.866a.612.612,0,0,1,0,.866L5.026,74.052a.612.612,0,0,1-.866,0Z" transform="translate(968.758 5722.529)" fill="#2680eb" stroke="#267fe9" stroke-width="1"/>
      </g>
    </g>
    <path id="youtube-brands" d="M77.449,71.025A8.023,8.023,0,0,0,71.8,65.343C66.825,64,46.858,64,46.858,64s-19.967,0-24.946,1.343a8.023,8.023,0,0,0-5.645,5.682c-1.334,5.012-1.334,15.468-1.334,15.468s0,10.457,1.334,15.468a7.9,7.9,0,0,0,5.645,5.591c4.979,1.343,24.946,1.343,24.946,1.343s19.967,0,24.946-1.343a7.9,7.9,0,0,0,5.645-5.591c1.334-5.012,1.334-15.468,1.334-15.468S78.784,76.036,77.449,71.025ZM40.328,95.987V77l16.688,9.494Z" transform="translate(912.142 5686.552)" fill="#fff"/>
  </g>
</svg>
